<svg xmlns="http://www.w3.org/2000/svg" width="1000" height="1000" viewBox="0 0 750 750"><defs><clipPath id="a"><path d="M171.414 4H580v742H171.414Zm0 0"/></clipPath></defs><path fill="#939598" d="m502.125 17.332.441-.988zh.11c.218.11.44.11.66.11h.218c.219 0 .328 0 .547-.11 1.867-.988 2.961-2.633 3.184-4.5.219-2.082-.77-4.277-2.524-5.812-.218-.22-.66-.329-.988-.22s-.656.329-.766.657c-1.207 2.414-2.304 5.707-1.097 9.215q.164.494.656.66m0 0"/><g clip-path="url(#a)"><path fill="#939598" d="M574.629 227.496c-.11-.113-.328-.113-.438-.113-.437 0-.879-.11-1.316-.219-1.426-.437-2.523-1.316-3.73-2.96l-.985-1.427c-1.207-1.754-2.523-3.62-3.512-5.484-.66-1.207-1.207-2.523-1.863-3.84-.222-.547-.55-1.098-.77-1.644-.437-.989-.656-1.864-.878-3.07-.219-.77-.219-1.645-.328-2.524v-.547c-.11-1.207-.11-2.305-.22-3.293 0-1.973.11-4.059.329-6.473.219-1.644.441-3.289.66-4.824q.329-2.301.656-4.61c0-.327.11-.655.11-1.093v-1.648c0-.22-.11-.547-.11-.875 0-.11-.109-.22-.109-.438l-.328-.66c-.11-.219-.219-.328-.328-.547-.11-.11-.223-.223-.332-.441l-.328-.328c-.329-.22-.657-.438-.875-.657-.551-.441-.989-.77-1.54-1.207-.765-.77-1.535-1.867-2.19-3.293-.552-1.207-.99-2.41-1.427-3.508a36 36 0 0 0-.66-1.867c-.219-.547-.328-1.207-.547-1.754-.218-.656-.55-1.316-.879-1.972-.218-.442-.546-.88-.875-1.317-.441-.66-.988-1.316-1.648-2.086-.547-.547-1.094-1.207-1.645-1.754-.656-.77-1.425-1.425-2.082-2.195-1.648-1.863-2.964-4.168-3.84-6.582-.437-1.203-.437-2.742-.55-3.836-.11-1.976.441-3.95 1.539-6.144.765-1.426 1.644-2.743 2.629-4.168l.66-.989c.11-.218.219-.328.328-.547v-.109c.11-.11.11-.328.219-.55l.332-1.313c0-.332.11-.66.11-.988v-.88c0-.218 0-.437-.11-.546v-.11l-.11-.332v-.109l-.113-.219s-.11-.11-.11-.219l-.109-.109-.109-.11-.11-.109-.109-.109-.11-.11-.108-.109c-.438-.222-.88-.441-1.317-.66-.547-.219-.988-.437-1.426-.77-1.097-.656-2.086-1.644-3.07-3.07-.879-1.316-1.648-2.523-2.086-3.726-.437-.989-.766-1.977-1.098-2.965a7.7 7.7 0 0 0-.546-1.426c-.329-.766-.551-1.426-.88-1.973a7.4 7.4 0 0 0-.765-1.207c-.11-.218-.219-.328-.441-.546-.11-.114-.22-.223-.22-.223l-.109-.11c-.109-.109-.109-.109-.218-.109h-.11l-.109-.11c-.219-.109-.441-.109-.66-.109h-.547c-1.098.328-2.195.66-3.293 1.098-1.203.438-2.3.879-3.398 1.098-1.754.437-3.512.547-4.938.328-1.644-.219-3.289-.88-4.824-1.535l-.66-.22c-1.864-.769-3.29-1.534-4.387-2.632-1.207-1.098-2.191-2.633-2.961-4.719-.219-.547-.328-1.097-.437-1.863-.22-1.535.109-3.289.984-4.828.879-1.535 2.086-3.07 3.73-4.606.989-.878 1.864-1.425 2.852-1.863.66-.332 1.426-.55 2.195-.77l.219-.109c.328-.11.656-.328 1.098-.437.656-.332 1.316-.77 1.972-1.207.551-.442 1.207-.88 1.867-1.426.22-.219.438-.441.766-.77.11-.109.219-.218.219-.328 0 0 0-.11.11-.11q.166-.326.331-.66a60 60 0 0 1 1.864-3.726q.494-.988.988-1.976v-.22c.11-.218.11-.546 0-.878a.98.98 0 0 0-.66-.656l-.328-.11c-.438-.109-.989-.218-1.426-.328-.219 0-.438-.11-.66-.11h-.766c-.988.11-1.863.22-2.852.438-.66.11-1.425.22-2.086.328-1.535.22-2.96.11-4.496-.218-1.425-.328-2.96-1.098-4.605-2.196-1.316-.875-2.414-2.3-3.184-4.058-1.425-3.29-1.207-7.238-.765-10.75.11-1.203.328-2.301.765-3.508.332-.988.88-1.977 1.426-2.742.77-1.317 1.758-2.414 2.852-3.621l.441-.438a28 28 0 0 0 1.973-2.633c.218-.328.328-.546.55-.988.11-.219.11-.437.22-.656.109-.55.218-1.098.437-1.754.11-.441.11-.988.219-1.43 0-.218 0-.437-.11-.547 0-.109-.11-.109-.11-.218-.109-.11-.218-.22-.327-.438-.551-.55-1.207-1.097-1.754-1.648-1.098-.875-2.196-1.754-3.184-2.52-.328-.222-.547-.441-.875-.66-.441-.328-.988-.766-1.539-1.098l-.328-.218h-.11c-.218-.11-.328-.11-.656-.22-.55-.108-1.097-.327-1.867-.437-.437-.109-.765-.109-1.207-.222-.219 0-.437 0-.656.113l-1.645.984c-.55.442-.988.77-1.535 1.207l-.11.11c-1.316 1.207-2.413 2.304-3.948 2.851-1.977.77-4.278.66-6.692-.328-2.633-1.097-4.719-2.414-6.363-3.949-.988-.988-1.863-2.082-2.852-3.29-.547-.769-1.207-1.425-1.754-2.194-.77-.766-1.535-1.536-2.414-2.305-.879-.766-1.863-1.426-2.851-2.082-1.098-.66-2.195-1.317-3.293-1.863-.766-.332-1.426-.66-2.082-.88-.77-.218-1.535-.437-2.305-.546-1.754-.332-3.508-.55-5.265-.77-.329 0-.766-.11-1.094-.11-1.207-.108-2.524-.218-3.621-.66-1.426-.546-2.524-1.644-3.621-3.398-.875-1.425-1.317-3.18-1.645-4.828l-.11-.547c-.218-.77-.327-1.316-.546-1.863a3.3 3.3 0 0 0-.442-.879c-.218-.328-.328-.656-.546-.988-.11-.11-.22-.328-.438-.547a53 53 0 0 1-.66-.66c-.328-.219-.547-.438-.988-.766-.766-.437-1.536-.879-2.192-1.207-1.644-.77-3.402-1.426-5.375-2.086a26 26 0 0 0-3.95-.984 55 55 0 0 0-2.522-.332h-.989c-.11 0-.328 0-.437.113h-.11c-.328.11-.66.219-.988.328-1.535.547-2.851 1.207-4.168 1.864-.328.218-.656.328-.988.66l-.219.218a.6.6 0 0 0-.328.547c-.11.22-.11.442-.11.66-.218 1.317-.328 2.633-.437 3.95v.328c0 .437-.11.875-.11 1.316-.113.875-.222 1.864-.222 2.852v2.742c0 .879 0 1.645-.11 2.633v5.156c-.109 1.203-.218 2.191-.656 3.18-.328.656-.988 1.207-1.644 1.754l-.66.55c-.438.329-.766.766-1.207.985-.547.441-1.207.77-1.754 1.207-.328.219-.656.441-.88.55-1.425.985-3.07 1.864-4.823 2.41-.551.11-1.098.223-1.754.333l-.66.11c-.77.109-1.536.218-2.305.218h-3.949c-.875.11-1.754.11-2.63.328l-.988.328c-.66.219-1.316.55-1.976.77l-.219.11c-1.207.437-2.3.987-3.398 1.534-.66.328-1.207.547-1.867.88-.766.327-1.645.655-2.41.983-1.426.551-2.852 1.098-4.169 1.868-.222.11-.441.218-.66.437-.218.219-.547.438-.879.66-.656.657-1.316 1.317-1.972 2.082-.989 1.207-2.086 2.524-2.961 3.73-.66.88-1.317 1.755-1.977 2.524-.765.985-1.535 1.973-2.3 3.07l-2.305 2.962c-1.426 1.753-2.852 3.292-4.496 4.605-.66.55-1.426 1.098-2.086 1.648a45 45 0 0 0-2.852 2.301 48 48 0 0 0-4.715 4.828c-.77.989-1.425 1.864-2.086 2.743-.437.656-.765 1.316-1.207 2.082a87 87 0 0 1-1.316 3.183l-.11.438c-.656 1.535-1.316 3.07-1.972 4.386-1.207 2.633-2.852 5.266-5.047 7.899-1.644 2.195-3.621 4.168-6.031 6.472a40 40 0 0 1-3.184 2.852c-1.097.879-2.3 1.645-3.07 2.305-1.645 1.093-2.961 1.863-4.277 2.52-1.098.55-2.305.769-3.622 1.097l-1.207.328c-2.52.66-5.152 1.316-7.675 2.195-1.536.551-2.852 1.317-4.059 1.864-2.086 1.097-4.168 2.414-6.8 4.28l-.11.11-.442.328c-1.203.88-2.41 1.645-3.507 2.524l-2.524 1.754c-.988.66-1.863 1.316-2.742 1.972-2.633 1.868-5.266 3.84-8.008 5.489-1.316.765-2.742 1.644-4.058 2.41-.766.441-1.645.879-2.414 1.426-2.082 1.207-4.278 2.304-6.032 3.293l-.547.328q-.66.327-1.316.656c-.441.223-.77.441-1.098.66l-.77.438c-1.206.66-2.413 1.207-3.616 1.757-1.54.657-3.184 1.094-4.61 1.426-2.742.656-5.703.875-8.554.656-1.973-.218-3.84-.878-5.813-1.535l-.441-.11c-1.535-.55-2.852-1.206-4.278-1.976-.547-.328-1.097-.547-1.644-.875q-1.81-.824-4.278-1.644c-1.535-.442-2.96-.88-4.496-1.098-1.207-.219-2.523-.441-3.73-.66-2.414-.437-4.938-.766-7.461-1.316-3.07-.657-6.25-1.973-9.32-4.059a37 37 0 0 0-3.95-2.3c-.66-.333-1.316-.77-1.976-1.098-1.863-1.098-3.617-2.305-5.375-3.622a17.6 17.6 0 0 1-2.633-2.414c-1.094-1.093-1.863-2.41-2.41-3.836-.988-2.523-1.649-5.046-2.086-7.132l-.11-.328c-.109-.547-.328-1.317-.546-2.082-.11-.223-.223-.442-.332-.77-.22-.438-.547-.988-.875-1.535-.442-.547-.77-1.098-1.317-1.645l-1.535-1.535c-1.098-.879-2.086-1.535-3.074-2.305-.438-.218-.766-.437-1.203-.66l-.223-.11c-.437-.218-.984-.108-1.316.333l-1.317-.77c-.11.11-.11.22-.218.329-.11.332-.22.77-.329 1.207-.109.988-.328 2.085-.328 3.402v1.536c0 .108 0 .327.11.546.218.988.656 1.977.988 2.852.328.988.766 1.976 1.094 2.851.55 1.426 1.097 2.965 1.539 4.719.437 1.535.656 2.96.875 4.605l.11.66q.328 2.468.66 4.934c.437 3.512.109 7.242-.989 10.86-1.098 3.402-2.633 6.8-3.95 9.652-1.206 2.523-2.19 5.265-3.288 8.226-.219.77-.442 1.535-.66 2.524-.11.66-.22 1.207-.22 1.976v.766c.11.55.11 1.098.22 1.644.218.88.55 1.868.77 2.852.546 1.54 1.316 2.965 1.972 4.39.441.985.988 2.083 1.426 3.18.441.989.878 2.086 1.097 3.07.328 1.317.438 2.743.551 4.387 0 1.54 0 3.293-.223 4.828-.218 1.754-.984 3.512-1.754 5.157a52 52 0 0 1-1.753 3.508c-.66 1.097-1.317 2.195-2.086 3.183l-.329.438c-1.863 2.851-3.289 5.375-4.496 7.789a34 34 0 0 0-.988 2.633c-.219.875-.547 1.644-.77 2.632-.109.438-.218.985-.218 1.426-.11.438.11.875.55 1.094.438.223.876.223 1.208-.11.437-.328.875-.765 1.425-1.207.547-.546 1.094-1.093 1.645-1.753.437-.438.875-.88 1.316-1.317l.11-.11a5.8 5.8 0 0 1 1.535-1.316c.879-.547 2.086-.879 3.07-1.207 1.426-.437 3.07-.547 5.156-.218.989.109 1.754.328 2.415.77 1.097.546 1.863 1.644 2.414 3.179.218.656.328 1.426.437 2.304 0 .329.219.657.547.875q.497.33.988 0c.656-.328 1.207-.546 1.754-.875.66-.332 1.207-.55 1.867-.878 1.317-.547 2.633-.88 3.508-1.098 2.086-.438 4.277-.988 6.473-.656 1.207.218 2.082.547 2.96.984 1.098.66 1.977 1.649 2.852 3.074 1.426 2.301 2.524 5.153 3.07 8.117.333 1.426.551 3.07.66 4.825 0 .55.11 1.207.11 1.754 0 .66 0 1.207.11 1.867 0 .437.109.765.218 1.207.219 1.097.551 2.191.88 3.289l.109.219c.109.109.109.218.218.332.11.109.328.328.551.437.984.875 1.973 1.645 2.852 2.633 1.207 1.426 2.3 3.07 3.617 5.594 1.758 3.62 3.074 6.91 3.949 10.199.438 1.758.988 3.512 1.535 5.266l.11.328a71 71 0 0 1 1.425 5.375c.442 1.757.442 3.62.551 5.593.11 1.758 0 3.403-.11 5.157-.109 1.535-.218 2.96-.44 4.168-.11.441-.11.988-.22 1.425-.218 1.317-.437 2.743-.437 4.278v1.539c0 .219 0 .328.11.547 0 0 0 .218.109.218 0 .11.11.22.11.329 0 0 0 .109.109.109.55.77 1.207 1.539 1.867 2.414.11.11.328.328.547.55.218.11.328.22.547.438.55.328.988.547 1.425.88.223.109.332.109.551.218.328.11.766.219 1.098.328.656.219 1.316.328 2.082.547 1.426.441 2.742 1.207 4.058 1.977 2.852 1.644 5.047 3.73 6.473 6.359.438.77.656 1.648 1.098 2.523l.328.77c.328.765.547 1.426.77 2.082.218 1.098.327 2.195.218 3.402-.11 1.535-.219 3.29-.55 4.938-.329 1.754-1.098 3.398-1.755 5.043-.437.988-.879 1.976-1.207 3.07-.547 1.758-.879 3.621-1.207 5.156l-.109.442c-.219.984-.328 1.972-.438 3.18 0 .988 0 1.972.11 3.18.11.769.219 1.534.219 2.304.109.765.218 1.644.218 2.414 0 .547.11.984.11 1.535.11 1.426.218 2.852.441 4.387.328 2.304.656 4.168.984 5.812.333 1.758.77 3.621.989 5.485.328 2.523.219 4.937 0 7.242-.11.875-.219 1.754-.219 2.742-.11.984-.219 1.973-.437 3.07-.114.875-.442 1.754-.77 2.742l-.11.329c-.66 1.753-1.206 3.402-2.085 4.828q-1.15 1.973-3.29 3.617c-1.644 1.316-3.398 2.523-5.265 3.183-1.098.438-2.082.657-3.29.985-.987.219-1.976.55-2.96.879-.223.11-.55.219-.879.437l-.328.219c-.11.11-.332.223-.55.441-.329.22-.548.547-.876.875-.11.11-.222.332-.441.551-.11.11-.11.328-.219.547-.219.66-.547 1.207-.766 1.867-.109.219-.109.438-.222.547-.11.328 0 .766.222.988l.22.329c.546.546.984 1.097 1.425 1.644.766.988 1.316 2.086 1.535 3.18.219 1.207.219 2.414 0 3.402-.219.656-.437 1.317-.77 1.973-.109.332-.218.55-.328.879-.328.77-.656 1.644-.988 2.523-.547 1.973-.984 3.617-1.316 5.156-.328 2.082-.547 3.727-.656 5.375v2.301c.109.55.109 1.098.328 1.758.109.328.109.547.218.875v.11c.11.109.11.327.223.55.438.766.875 1.535 1.426 2.3l.11.11c.218.332.327.551.546.88.328.546.66.987.988 1.534l.22.328a61 61 0 0 0 2.96 2.743l.77.66.109.11.437.218c.547.328 1.098.219 1.426-.328s.77-.988 1.207-1.535l.11-.11q.163-.164.328-.332c3.73-4.168 7.789-6.578 12.066-7.238 2.852-.438 5.485-.328 7.68.437 1.644.551 3.617 1.317 5.484 2.414 1.973 1.208 3.508 2.743 4.715 4.5 1.207 1.645 2.086 3.508 2.633 5.704 1.207 4.058.879 8.554.437 12.832-.437 4.277-1.093 8.226-2.082 11.847-.437 1.754-1.207 3.399-2.414 5.043-.437.66-.875 1.207-1.316 1.758l-.438.547c-.546.77-1.097 1.426-1.644 2.414-.77 1.207-1.426 2.305-1.867 3.29a5.4 5.4 0 0 0-.438 1.206l-.11.442c-.109.328 0 .656.11.875.438.66.77 1.207 1.207 1.867.328.547.766 1.093 1.098 1.644.875 1.317 1.535 2.852 2.082 4.824.55 1.758.66 3.184.66 4.61 0 .547-.11 1.207-.219 1.754-.222.77-.55 1.535-.879 2.195-.546 1.094-1.425 2.191-2.304 2.961-1.645 1.316-4.059 2.082-6.801 2.191-2.524.11-5.043-1.207-6.91-3.398-1.535-1.754-2.633-3.84-3.18-5.922-.219-.988-.437-2.086-.66-3.183-.11-.547-.219-1.208-.328-1.754-.219-.88-.438-1.536-.656-2.305a3.3 3.3 0 0 0-.442-.875c-.437-.77-.875-1.54-1.426-2.305-.218-.328-.437-.55-.656-.879-.219-.218-.441-.328-.66-.656-.219-.11-.438-.328-.656-.441-.11-.11-.22-.11-.438-.22l-.222-.108h-.985c-.11 0-.332 0-.441.109h-.219c-.219.11-.437.219-.547.441l-.219.22c-.109.218-.222.437-.441.765-.11.332-.328.66-.438 1.097-.218.66-.328 1.317-.546 2.196-.114.437-.114.984-.114 1.535v1.754c.114.437.114.879.223 1.425.328 1.208.656 2.305.984 3.403.223.547.332 1.094.551 1.644.438 1.317.656 2.524.875 3.95.11.656.223 1.316.442 2.082.328 1.207.656 2.414 1.097 3.73.438 1.426.766 2.961 1.094 4.828.332 2.082.441 4.278.66 6.469.11.77.11 1.535.219 2.305.219 1.863.437 3.73.77 5.593.327 2.086.656 4.387.765 6.473.219 2.414.11 4.824-.11 6.91-.218 2.414-.327 4.496-.988 6.473-1.207 4.277-3.398 8.117-5.375 11.406-.547.879-1.093 1.754-1.535 2.742-.547.88-.984 1.754-1.535 2.633-.988 1.645-2.082 3.29-3.18 4.934l-.218.222c-.332.547-.77 1.094-1.098 1.536-.441.546-.879 1.207-1.316 1.863-.438.77-.88 1.535-1.317 2.304-.11.11-.11.329-.219.547-.109.442-.218.989-.332 1.536-.109.44-.109.77-.218 1.316v.769c.109.22.109.547.218.766l.332.879.985-.328-.985.547.657 1.758c.218.656.441 1.203.77 1.863.218.547.437 1.207.655 1.754.77 2.086.989 4.277.989 6.035v2.742c-.11 1.094-.11 2.192-.438 3.07-.222.766-.55 1.536-.77 2.305l-.656 1.973c-.109.437-.222.77-.332 1.207a10 10 0 0 0-.218 1.972v1.317c0 .332.109.55.109.988 0 .219.11.328.219.547.332.77.66 1.54 1.097 2.305a93 93 0 0 1 2.852 5.812c1.098 2.742 1.758 5.485 1.977 8.336.109 1.317 0 2.633 0 4.168-.11 1.54-.22 2.965-.66 4.059a15.3 15.3 0 0 1-1.864 4.28c-.77 1.317-1.863 2.52-2.851 3.727-.88 1.098-1.645 2.196-2.524 3.512-.77 1.207-1.316 2.305-1.973 3.508-.441.879-.77 1.758-1.097 2.633-.219.77-.442 1.539-.551 2.414 0 .437-.11.879-.11 1.316v1.755q.164.497.333.987c.218.551.437.989.656 1.536.547.879.988 1.757 1.535 2.632l.66 1.098a97 97 0 0 0 1.754 2.742c.328.438.766.989 1.098 1.426.328.328.765.77 1.094 1.098l.878.765c.88.77 1.864 1.54 2.743 2.305.988.988 2.086 1.977 3.18 3.293.988 1.094 1.757 2.082 2.632 3.29.442.546.77 1.206 1.207 1.753.442.55.77 1.207 1.207 1.754 1.977 2.742 3.95 5.266 6.035 7.68 2.41 2.632 4.825 5.375 7.676 7.789 1.098.875 2.195 1.754 3.621 2.632.656.438 1.426.875 2.082 1.317 2.633 1.535 5.266 3.07 7.024 5.484 1.203 1.535 1.754 3.29 1.972 5.266.11.875 0 1.644 0 2.629v2.523c.11.551.11 1.098.22 1.649v.109c.218.766.327 1.426.66 2.191.327.88.765 1.754 1.202 2.633l.223.328c.219.442.328.88.438 1.317 0 .332.328.66.656.879q.332.164.66.328c.11.11.219.11.437.219 1.645.332 3.622 1.425 5.047 2.632 2.633 2.633 2.414 6.91 2.305 10.641v2.523c-.11 2.305-.223 5.266 2.082 6.801.11.11.219.11.328.11 4.719 1.425 7.461-1.536 9.985-4.168.984-1.098 2.082-2.086 3.18-2.961 5.265-4.059 13.273-3.95 18.206.328 1.207.988 2.196 2.086 3.293 3.18 1.645 1.648 3.29 3.402 5.375 4.828l.11.109c4.277 1.863 8.992 2.742 13.601 2.742 4.387 0 8.664-.77 12.504-2.414.11 0 .11-.11.219-.11 7.347-5.046 12.832-12.394 17.988-19.413q1.975-2.633 3.95-5.266l.546-.656c3.403-4.39 7.242-9.324 7.899-15.028v-.44q-.655-2.304-1.317-4.606c-2.742-9.325-5.265-18.098.77-26.547 4.933-6.36 2.633-12.942.328-19.305-2.414-6.91-4.715-13.379 1.316-19.96 2.524-2.415 4.719-3.513 6.801-3.403 3.621.328 6.691 4.828 9.98 9.543 3.84 5.593 8.227 11.957 14.7 12.726.437 0 .879-.222 1.097-.66 4.278-9.324 9.543-12.832 17.442-11.297 1.094.11 2.191.328 3.398.438 11.078 1.316 23.582 2.851 30.934 11.52 6.582 11.296 13.492 12.94 24.898 15.464l.66.11c1.313.437 2.41 1.316 3.618 2.195 1.644 1.316 3.402 2.629 5.812 2.851 5.266.875 9.215.11 11.738-2.414 2.852-2.851 3.73-7.57 2.633-14.261v-.11c-3.73-12.504.989-17.66 7.13-24.347 2.85-3.184 6.144-6.801 8.663-11.52.113-.219.113-.547.113-.766-.55-2.304-1.539-4.28-2.523-6.254-1.316-2.632-2.523-5.046-2.742-7.789.11-1.097.11-2.3.219-3.398.218-4.277.546-8.668 2.191-12.504 1.098-2.195 2.523-5.047 2.965-8.336.547-3.73 0-7.351-.55-10.75-.767-5.047-1.536-9.762.878-14.59v-.11c3.18-8.335 6.25-17.222 8.227-26.433.988-4.5.765-9.105.656-13.492-.11-3.402-.328-6.91.11-10.312.55-4.278 1.866-8.446 3.183-12.504 1.754-5.485 3.617-11.188 3.398-17.223.219-7.348-.328-14.695-.875-21.937-.55-6.579-1.097-13.38-.988-19.961 1.207-4.391 2.082-6.582 2.851-8.227 1.536-3.402 1.645-4.058-.328-14.59.328-4.937 1.973-9.652 3.618-14.148 3.511-9.985 6.914-19.418-3.618-29.399-8.554-9.214-12.175-21.609-15.687-33.675-.875-3.07-1.754-6.141-2.852-9.211-2.851-7.68 1.317-19.196 6.692-26.985 3.18-4.277 7.789-6.691 12.722-9.215a97 97 0 0 0 6.582-3.617c5.594-3.949 7.79-10.203 9.871-16.125.989-2.851 1.977-5.703 3.293-8.226a81 81 0 0 1 3.18-5.157c2.524-3.73 5.047-7.57 5.703-12.175 1.758-6.91.223-11.735-4.277-14.477m0 0"/></g><path fill="#939598" d="M232.621 689.832c-3.289-4.168-5.156-4.059-8.336-3.289-.988.219-2.195.437-3.62.547q-.33 0-.657.328-.497.327-.988.66c-.438.11-.66.547-.66.985-.22 6.69 3.183 12.617 6.472 18.32.55.875 1.098 1.863 1.535 2.742.77 1.207 1.317 2.633 1.977 3.95 1.207 2.741 2.414 5.593 5.043 7.675.222.11.441.219.66.219h.328c.328-.11.66-.328.77-.657 2.742-7.019 3.73-14.917 2.742-21.937-.219-5.266-.989-6.582-5.266-9.543M191.488 78.207l.438.219c2.195 1.097 4.61 2.304 7.129 2.633h.11c.55 0 .987-.438 1.097-.985.218-1.758.328-3.402.328-5.156 0-2.961.113-5.813 1.43-8.445.109-.223.109-.551.109-.77-.332-1.426-.223-2.523.437-3.398 1.864-2.414 7.348-2.524 10.09-2.524h.551c.438 0 .766-.218.984-.55 3.075-5.262 3.403-9.211.88-11.297-.11-.11-.22-.11-.329-.22-3.402-.987-6.363 0-8.664 2.962-1.758 1.976-2.746 4.277-3.84 6.582-.879 1.972-1.758 3.73-2.851 5.375-3.512 4.058-7.242 8.883-8.45 14.476-.109.332.114.88.551 1.098M474.375 7.02c.547 2.195 1.426 5.375 4.715 5.375h.11c.331 0 .55-.11.769-.329 2.304-2.523 3.511-6.254 3.511-10.421 0-.22-.113-.438-.222-.657-.219-.332-.656-.66-1.094-.879-.332-.109-.66-.109-.879-.109-2.305.547-4.168 2.305-5.812 3.73-.332.329-.77.657-1.098.985-.328.332-.437.77-.328 1.098.11.44.219.769.328 1.207M205.637 656.926c-8.992.11-15.574 3.508-18.098 9.543-.11.328-.11.765.11 1.097q.494.656.988 1.317c2.523 3.18 5.156 6.578 5.593 10.637 0 .55.438.878.989.988.437 0 .765.11 1.203.11h.332c.219 0 .328-.11.547-.11 5.703-3.508 7.238-10.09 8.445-16.016.219-.765.332-1.535.55-2.3v-.11c.329-1.535.438-2.852.329-4.059 0-.77-.437-1.097-.988-1.097m0 0"/></svg>