<svg xmlns="http://www.w3.org/2000/svg" xmlns:xlink="http://www.w3.org/1999/xlink" width="1000" zoomAndPan="magnify" viewBox="0 0 750 749.999995" height="1000" preserveAspectRatio="xMidYMid meet" version="1.0"><defs><clipPath id="3358f1b47c"><path d="M 226.875 7 L 523 7 L 523 723 L 226.875 723 Z M 226.875 7 " clip-rule="nonzero"/></clipPath></defs><g clip-path="url(#3358f1b47c)"><path fill="#c9a96e" d="M 226.417969 303.910156 C 226.417969 429.140625 330.304688 502.589844 332.433594 555.511719 C 332.46875 556.152344 332.480469 556.804688 332.480469 557.457031 C 332.480469 603.992188 266.910156 666.316406 266.910156 702.105469 C 266.910156 706.917969 268.09375 711.257812 270.78125 715.007812 C 291.785156 744.304688 365.011719 680.414062 387.878906 679.484375 C 410.707031 678.570312 464.332031 731.105469 489.566406 701.910156 C 492.664062 698.335938 494.011719 694.289062 494.011719 689.839844 C 494.011719 658.894531 428.5625 608.25 426.535156 557.777344 C 426.535156 557.636719 426.527344 557.492188 426.527344 557.355469 C 426.535156 530.527344 522.445312 423.566406 522.445312 303.917969 C 522.445312 139.046875 431.175781 5.429688 387.878906 7.171875 C 326.507812 9.632812 226.417969 141.144531 226.417969 303.910156 Z M 443.300781 121.296875 C 444 122.738281 444.640625 124.222656 445.328125 125.683594 C 423.582031 149.683594 376.523438 154.425781 348.96875 141.667969 C 339.503906 137.285156 328.25 141.402344 323.867188 150.878906 C 319.492188 160.332031 323.628906 171.570312 333.085938 175.953125 C 369.578125 192.855469 424.628906 189.820312 460.433594 162.753906 C 476.175781 207.667969 484.648438 256.453125 484.648438 303.910156 C 484.648438 374.851562 444.089844 444.027344 417.265625 489.804688 C 399.480469 520.144531 388.738281 538.460938 388.730469 557.355469 C 388.730469 558.015625 388.75 558.65625 388.777344 559.28125 C 390.261719 596.398438 412.640625 628.984375 432.167969 655.695312 C 417.015625 647.734375 402.3125 641.074219 386.335938 641.714844 C 369.140625 642.40625 352.289062 651.988281 330.949219 664.113281 C 328.460938 665.515625 325.417969 667.25 322.070312 669.113281 C 324.261719 665.589844 326.417969 662.207031 328.359375 659.152344 C 348.007812 628.261719 370.277344 593.234375 370.277344 557.445312 C 370.277344 556.28125 370.25 555.144531 370.203125 553.996094 C 368.9375 522.710938 349.714844 494.492188 327.433594 461.800781 C 297.808594 418.347656 264.214844 369.066406 264.214844 303.910156 C 264.214844 213.996094 296.894531 147.035156 316.382812 115.117188 C 346.0625 66.515625 375.121094 47.859375 387.050781 45.246094 C 396.304688 50.070312 420.152344 73.320312 443.300781 121.296875 Z M 443.300781 121.296875 " fill-opacity="1" fill-rule="nonzero"/></g></svg>