<svg xmlns="http://www.w3.org/2000/svg" xmlns:xlink="http://www.w3.org/1999/xlink" width="1000" zoomAndPan="magnify" viewBox="0 0 750 749.999995" height="1000" preserveAspectRatio="xMidYMid meet" version="1.0"><defs><clipPath id="afcf2277d9"><path d="M 219.257812 65.0625 L 530.507812 65.0625 L 530.507812 685 L 219.257812 685 Z M 219.257812 65.0625 " clip-rule="nonzero"/></clipPath></defs><g clip-path="url(#afcf2277d9)"><path fill="#c9a96e" d="M 530.621094 274.617188 L 530.621094 104.675781 C 530.621094 82.824219 512.851562 65.058594 491 65.058594 L 259.03125 65.058594 C 237.175781 65.058594 219.40625 82.824219 219.40625 104.675781 L 219.40625 274.617188 C 219.40625 353.363281 278.273438 418.480469 354.28125 428.675781 L 354.28125 619.644531 C 288.769531 622.050781 238.535156 635.628906 238.535156 652.058594 C 238.535156 670.183594 299.636719 684.886719 375.019531 684.886719 C 450.402344 684.886719 511.507812 670.183594 511.507812 652.058594 C 511.507812 635.628906 461.273438 622.050781 395.757812 619.644531 L 395.757812 428.675781 C 471.769531 418.480469 530.621094 353.363281 530.621094 274.617188 Z M 260.882812 274.617188 L 260.882812 106.539062 L 489.144531 106.539062 L 489.144531 274.617188 C 489.144531 337.546875 437.945312 388.746094 375.019531 388.746094 C 312.082031 388.746094 260.882812 337.546875 260.882812 274.617188 Z M 260.882812 274.617188 " fill-opacity="1" fill-rule="nonzero"/></g><path fill="#c9a96e" d="M 463.203125 274.601562 L 463.203125 238.652344 C 463.203125 235.003906 460.253906 232.070312 456.621094 232.070312 L 293.441406 232.070312 C 289.804688 232.070312 286.859375 235.003906 286.859375 238.652344 L 286.859375 274.601562 C 286.859375 323.285156 326.332031 362.761719 375.03125 362.761719 C 423.726562 362.761719 463.203125 323.285156 463.203125 274.601562 Z M 463.203125 274.601562 " fill-opacity="1" fill-rule="nonzero"/></svg>