<svg xmlns="http://www.w3.org/2000/svg" width="1000" height="1000" viewBox="0 0 750 750"><path fill="#c9a96e" d="M581.797 235.91c-.914-3.379-2.254-6.758-3.969-9.812-2.414-4.399-6.168-8.047-7.832-12.871-2.09-6.758-.855-14.106-3.59-20.754-1.718-4.399-4.347-8.368-6.492-12.551-2.305-4.774-3.539-10.027-4.02-15.285-.539-9.762 1.286-20.324-4.183-29.067-2.629-4.289-6.277-7.882-9.707-11.476-3.274-3.434-7.348-6.114-10.082-10.028-.805-2.414.426-5.043.91-7.402 2.895-7.777-.375-16.68-6.918-21.559-2.305-1.878-5.254-2.628-7.828-4.023-1.984-1.77-1.664-4.988-.86-7.348 3.754-8.793 6.22-15.175 1.07-24.187-2.839-4.395-6.163-9.223-11.421-10.832-2.629-.91-5.578-.32-8.152-.965-6.004-4.719-12.121-9.977-20.004-10.781-2.79-.64-9.383-.051-10.727-2.68-1.66-3.539-2.305-7.562-4.77-10.727-4.937-6.433-12.605-10.78-20.433-12.496-4.129-1.02-8.262.536-11.64 2.844-5.04 3.055-9.169 7.613-11.047 13.246-1.07 2.735-1.286 5.844-2.895 8.313-1.34 1.074-3.059 1.449-4.668 2.09-13.566 3.808-25.098 12.39-35.234 21.937-5.094 5.309-9.758 11.102-14.692 16.57-10.675 10.672-17.86 26.118-32.875 31.426-8.101 2.684-15.875 6.488-22.203 12.281-7.777 6.973-15.18 15.606-25.797 17.86-9.652 1.394-19.523 1.074-29.226 1.289-7.188-.11-14.375.21-21.563 0-3.644-.379-7.183-1.234-10.672-2.363-6.757-2.036-7.613-5.739-10.832-11.422-1.715-2.95-3.863-5.684-6.168-8.203-1.714-1.825-3.539-3.864-5.793-5.098-4.933-2.68-11.316-4.02-13.406 2.629-3.594 11.316.484 23.383-2.254 34.805-1.34 6.222-3.699 13.57-4.824 20.164-1.395 6.972-.375 14-.43 21.023-1.234 12.926-11.101 31.535 3.22 40.383 7.827 4.344 14.48 2.308 21.128-2.84 1.715-.965 3.379-2.36 5.469-2.04v.161c6.543 3.324 9.281 12.336 11.746 18.824 4.129 12.016 6.008 24.832 5.578 37.489-.484 7.882-1.93 16.25 4.613 22.203 4.074 3.86 9.438 6.543 11.906 11.851 2.196 4.719 2.09 10.028 2.575 15.125.32 5.79.105 11.582.105 17.375-.055 8.528 2.574 16.785 1.985 25.367-1.45 16.465-19.63 7.079-21.614 36.95-1.234 12.656-5.469 29.605 6.864 38.132 6.437 4.45 13.625 3.38 20.058-.539 1.074-.375 2.254-1.5 3.379-.75 2.95 1.555 4.668 4.614 6.168 7.457 1.45 2.95 2.305 6.114 3.004 9.329 1.07 7.132 2.68 14.48 1.34 21.722-2.895-2.523-6.543-3.969-10.242-4.719-10.512-2.574-14.965 8.098-15.23 16.731-.485 6.437 1.019 12.71 1.554 19.094.265 9.332.965 18.984-2.309 27.941-2.734 7.293-9.383 12.492-11.582 20.164-2.094 6.274-1.394 13.031-1.824 19.574-.375 4.504-1.125 9.063-.91 13.621.32 6.223 3.164 12.012 3.324 18.235.695 7.883-4.238 14.75-6.543 22.043-1.77 4.879-2.95 10.082-2.734 15.285 0 12.707 12.87 19.25 21.183 26.867 1.824 1.664 3.594 3.38 5.04 5.418 2.148 3.38 3.808 7.024 6.542 10.028 3.004 3.484 6.653 6.433 9.871 9.761 1.875 2.36 4.02 4.664 5.094 7.508 1.5 5.04 2.09 10.297 3.055 15.445.805 4.559 1.77 9.118 3.004 13.567.804 2.949 1.61 6.168 3.808 8.422 4.828 4.933 12.766 4.289 18.715 1.875 2.79-1.18 5.258-2.895 7.777-4.61 2.31-1.394 4.344-3.379 7.243-3.058 3.59 2.09 7.023 5.683 10.617 8.257 3.433 2.31 7.453 3.864 11.586 4.344 10.832 1.504 19.25-4.558 27.617-10.457 5.203-4.074 9.547-9.117 13.781-14.21 2.79-3.165 6.063-5.9 8.582-9.333 3.914-5.308 5.418-11.797 5.953-18.234.75-5.844-.964-11.582-1.394-17.375-.16-2.95-.215-5.848-.215-8.797 2.52-5.793 5.258-11.637 5.633-18.074 2.68-2.52-.43-6.114-.215-9.114 4.719 3.59 8.367 8.848 13.996 11.098 6.652 2.414 12.442-.64 17.375-4.77 6.758-4.347 21.399-.484 28.211 2.626 5.203 2.199 8.207 7.082 11.691 11.21 2.305 2.52 4.45 5.31 7.188 7.399 3.914 3.113 8.848 4.398 13.781 4.934 10.512 1.933 21.719-2.196 28.637-10.297 4.133-4.825 5.527-11.102 7.242-17.106 1.125-3.004 2.465-5.847 3.27-8.957 1.664-6.972 1.984-14.21 2.843-21.289.59-6.332 1.985-11.96 3.22-18.289 1.714-10.726 6.542-20.754 9.972-31.05 4.078-13.196 6.328-26.977 7.082-40.762.43-13.782 1.23-26.223 2.144-40.383 1.02-16.41-.699-32.98 2.04-49.285 2.035-8.473 4.558-16.84 7.023-25.204 3.164-8.796 6.058-18.074 3.969-27.46-.91-5.739-3.27-11.207-7.508-15.23-2.844-3.11-4.29-7.134-5.739-11.048-3.484-10.566-6.812-21.558-6.167-32.82 1.02-9.227 4.933-18.235 12.175-24.188 3.215-2.574 6.703-4.882 9.492-7.992 6.81-7.722 11.368-17.16 15.446-26.547 4.234-9.812 6.273-21.023 3.539-31.535m-15.82 27.461c-3.754 7.988-7.508 16.14-13.086 23.059-4.13 4.078-9.012 7.293-12.657 11.851-9.976 11.477-13.086 27.781-10.082 42.477 2.36 10.566 5.414 21.238 10.778 30.62 1.93 3.54 5.308 5.9 7.617 9.118 2.52 6.113 2.414 13.195.105 19.414-4.023 10.887-7.613 21.934-10.562 33.2-4.024 19.09-1.344 38.773-2.684 58.132-.375 7.293-.965 14.535-1.125 21.828-.11 13.137-.59 26.223-3.433 39.094-2.254 12.606-8.313 24.027-12.227 36.094-2.2 8.957-4.129 18.074-5.418 27.191-.695 5.844-1.61 11.637-2.52 17.43-.535 3.11-1.878 5.898-3.273 8.742-3.754 8.578-3.914 15.445-14.05 19.04-1.61.534-3.27.855-4.934.694-3.11-.375-6.328-.43-9.168-1.77-.645-.534-1.344-.91-1.934-1.554l-.965-1.125c-1.714-1.984-3.379-3.968-4.879-6.117-2.789-4.129-6.113-7.988-10.296-10.777-7.079-4.668-15.391-7.078-23.758-8.258-9.442-1.664-19.574-.7-27.461 5.254-7.024-5.899-15.711-15.07-25.742-10.617-3.86 1.714-7.344 5.414-7.453 9.812-.86 1.664-1.45 2.79-1.825 5.203-.48 5.739.645 11.532 1.13 17.215-.7 2.254-2.15 4.238-3.005 6.383-.965 2.574-1.074 5.363-.699 8.098.75 6.543 3.113 12.71 4.828 19.039.535 3.914.055 7.988-.965 11.742-1.554 4.933-5.523 8.262-9.062 11.746-5.793 6.437-11.426 13.355-19.363 17.27-3.805 2.464-7.989 4.503-12.602 4.773-11.102.91-16.355-12.656-27.191-12.55-3.594.054-6.973 1.448-10.028 3.218-4.129 2.305-8.258 5.793-13.246 5.094-2.469-8.098-3.863-16.516-5.363-24.829-.75-4.238-1.555-8.796-3.863-12.55-4.075-7.028-10.672-11.746-16.25-17.485-2.036-2.36-3.215-5.308-4.934-7.828-3.324-5.043-7.988-8.902-12.656-12.55-3.969-3.325-8.528-6.329-11.422-10.727-2.52-7.883 2.254-15.926 4.934-23.223 3.648-8.363 4.453-15.176 2.574-24.133-.645-3.754-2.2-7.293-2.63-11.047-.214-4.878.645-9.761.86-14.64.32-5.094-.375-10.297 1.125-15.23 2.735-7.403 9.492-12.657 11.586-20.434 3.594-10.352 2.79-21.559 2.09-32.34-.535-7.828-4.344-16.785.055-24.023 6.113.804 8.418 8.097 14.535 8.793 6.648.753 9.867-6.274 10.562-11.852 1.555-7.133.7-14.426-.215-21.559-.964-7.347-2.68-14.8-6.648-21.238-4.504-7.668-13.57-14.371-22.578-9.707-2.2.965-4.184 2.36-6.488 3.059-6.758-.16-5.903-9.063-5.688-13.891.27-3.594.7-7.133 1.18-10.727.914-4.988.43-10.777 3.648-14.96 3.7-3.594 8.742-5.579 12.172-9.493 11.746-12.496 3.809-30.14 4.508-45.105-.16-11.957.965-27.617-6.113-37.754-3.328-5.309-8.903-8.313-13.461-12.387-.645-.699-.914-1.558-.969-2.469-.16-3.539.215-7.078.43-10.566.59-17.75-2.735-35.664-10.243-51.805-4.128-9.222-13.566-19.734-24.667-15.765-4.348 1.34-7.458 4.824-11.532 6.543-1.504.265-3.164-.325-4.398-1.184-1.18-1.07-1.125-2.894-1.29-4.394.11-7.133 2.845-14.215 3.919-21.239 1.18-6.863-.54-13.78.105-20.648.914-9.332 4.238-18.18 5.473-27.457 1.18-8.098-.59-16.25.32-24.293 4.719 4.394 7.293 10.297 10.672 15.71 4.879 7.509 14.106 9.817 22.418 11.532 3.484.695 7.023.695 10.566.695 7.399.055 14.801.215 22.254.164 7.618-.164 15.285.051 22.899-.804 6.812-.914 13.3-3.703 18.824-7.723 8.527-6.008 14.855-14.855 24.297-19.469 4.02-2.09 8.418-3.379 12.547-5.257 4.343-2.036 8.207-4.77 11.746-7.989 6.488-5.898 11.37-13.246 17.055-19.789 6.812-7.402 13.62-15.66 20.914-22.687 7.832-6.594 15.984-13.246 25.851-16.516 7.348-2.414 14.156-4.773 16.25-13.195 1.18-3.805 1.395-8.258 4.719-10.992 1.715-1.395 3.539-2.79 5.633-3.489 1.125 0 2.195.43 3.215.754 4.613 1.93 9.867 4.719 11.69 9.653 1.61 5.898 4.669 12.12 10.942 13.996 6.008 2.254 13.192.644 18.555 4.718 4.668 2.953 8.637 7.993 14.59 8.047 1.875.266 4.394-.43 5.738 1.285 2.25 2.684 4.88 5.954 4.504 9.657-.644 2.949-2.094 5.629-3.059 8.523-2.789 7.133-1.77 16.25 4.344 21.399 2.953 2.628 7.403 3.058 9.547 6.543 2.524 3.378.055 7.402-.375 11.101-.75 4.238-.48 8.852 1.93 12.496 2.148 3.434 5.363 6.008 8.367 8.688 4.613 4.507 10.027 8.851 12.602 14.855 2.199 6.813.644 14.05 1.343 21.024.375 5.043 1.34 10.03 3.004 14.855 2.09 6.223 6.059 11.477 8.473 17.54 1.77 5.683.965 11.796 2.734 17.48.805 2.683 1.93 5.257 3.38 7.617 9.921 13.73 12.28 25.097 4.398 40.652m0 0"/><path fill="#c9a96e" d="M241.086 686.723c-3.484-4.88-10.188-8.582-16.195-6.223-6.703 2.414-10.832 9.707-10.567 16.734.27 5.203 3.164 9.653 5.043 14.426 1.93 5.953 4.824 12.656 11.367 14.586 4.723 1.61 7.938-1.82 10.407-5.414 3.379-4.828 4.238-10.887 4.449-16.68.11-2.734.164-5.523-.32-8.207-.696-3.324-2.36-6.379-4.184-9.222m-3.594 28.476a7.5 7.5 0 0 0-1.445-.48c-1.074-.164-2.094.105-2.95.64-2.363-3-2.738-7.078-4.507-10.457-1.125-2.629-2.68-5.039-3.38-7.828-.374-2.683.59-5.633 2.47-7.562 4.664-3.809 9.867 4.074 10.726 8.152.64 5.844.48 11.852-.914 17.535M199.578 651.113c-7.133-1.234-13.086 2.09-13.73 9.653-.59 5.468.59 10.941 3.539 15.605 2.52 4.344 4.238 10.352 9.707 11.586 3.594 1.125 7.508-2.734 5.793-6.277 2.468-3.11 4.558-6.703 6.383-10.457 1.285-2.465 2.52-5.04 2.52-7.883-.321-7.293-7.618-11.477-14.212-12.227m5.363 14.586c-.964 4.29-2.629 8.367-4.398 12.39-1.45-3.433-3.594-6.866-5.309-10.405-.644-2.414-1.18-5.149-.375-7.563.805-1.125 2.68-.48 3.914-.375 2.895.59 7.508 2.094 6.168 5.953M198.29 89.234c5.792.536 10.51-2.304 10.565-8.527-.054-1.77-1.125-3.434-.75-5.254.48-1.61.48-3.433 1.77-4.613 1.445-1.93 3.809-1.664 6.004-1.985 1.074 0 2.254 0 3.004-.859 4.453-.75 5.203-8.098 5.898-11.797 1.395-6.113-3.699-9.011-8.793-10.457-4.668-1.449-9.062 2.196-11.316 6.113-1.02 1.66-1.234 3.645-1.77 5.47-1.394 1.929-3.863 2.683-5.523 4.288-3.914 4.989-9.492 12.82-8.902 19.364.964 4.394 5.414 7.882 9.812 8.257m2.358-20.379c1.934-3.539 6.383-4.503 8.153-8.257.86-1.774.75-3.809 1.34-5.688.644-1.66 1.718-3.324 3.379-4.129 1.343-.215 2.738.32 4.023.7 1.34.535 3.004.964 3.809 2.25.535 3.324-.16 6.812-1.29 9.921-1.07-.695-2.574-.48-3.539.27-4.398-.27-8.472.48-11.207 4.289-1.824 2.094-2.144 5.148-2.629 7.777-.32 2.305 1.61 4.559.215 6.703-.535.86-1.879.75-2.734.91-2.414.27-4.559-1.23-5.633-3.324.645-4.289 3.754-7.828 6.113-11.422M493.629 25.148c2.414.641 4.613-.699 6.168-2.468 2.52-3.164 2.039-9.012.695-12.657-.695-2.574-3.539-4.078-6.058-3.109-1.61.59-1.664 2.574-2.684 3.7-3.645 5.093-6.004 12.226 1.879 14.534m1.61-13.945c.16-.055.32-.16.48-.27l.054-.05c.43-.055.536.375.645.695.32 1.074.695 2.2.805 3.324-.055 2.094.43 5.633-2.309 6.063-5.254-1.074-.75-6.918.324-9.762m0 0"/></svg>