<svg xmlns="http://www.w3.org/2000/svg" xmlns:xlink="http://www.w3.org/1999/xlink" width="1000" zoomAndPan="magnify" viewBox="0 0 750 749.999995" height="1000" preserveAspectRatio="xMidYMid meet" version="1.0"><path fill="#c9a96e" d="M 581.796875 235.910156 C 580.882812 232.53125 579.542969 229.152344 577.828125 226.097656 C 575.414062 221.699219 571.660156 218.050781 569.996094 213.226562 C 567.90625 206.46875 569.140625 199.121094 566.40625 192.472656 C 564.6875 188.074219 562.058594 184.105469 559.914062 179.921875 C 557.609375 175.148438 556.375 169.894531 555.894531 164.636719 C 555.355469 154.875 557.179688 144.3125 551.710938 135.570312 C 549.082031 131.28125 545.433594 127.6875 542.003906 124.09375 C 538.730469 120.660156 534.65625 117.980469 531.921875 114.066406 C 531.117188 111.652344 532.347656 109.023438 532.832031 106.664062 C 535.726562 98.886719 532.457031 89.984375 525.914062 85.105469 C 523.609375 83.226562 520.660156 82.476562 518.085938 81.082031 C 516.101562 79.3125 516.421875 76.09375 517.226562 73.734375 C 520.980469 64.941406 523.445312 58.558594 518.296875 49.546875 C 515.457031 45.152344 512.132812 40.324219 506.875 38.714844 C 504.246094 37.804688 501.296875 38.394531 498.722656 37.75 C 492.71875 33.03125 486.601562 27.773438 478.71875 26.96875 C 475.929688 26.328125 469.335938 26.917969 467.992188 24.289062 C 466.332031 20.75 465.6875 16.726562 463.222656 13.5625 C 458.285156 7.128906 450.617188 2.78125 442.789062 1.066406 C 438.660156 0.046875 434.527344 1.601562 431.148438 3.910156 C 426.109375 6.964844 421.980469 11.523438 420.101562 17.15625 C 419.03125 19.890625 418.816406 23 417.207031 25.46875 C 415.867188 26.542969 414.148438 26.917969 412.539062 27.558594 C 398.972656 31.367188 387.441406 39.949219 377.304688 49.496094 C 372.210938 54.804688 367.546875 60.597656 362.613281 66.066406 C 351.9375 76.738281 344.753906 92.183594 329.738281 97.492188 C 321.636719 100.175781 313.863281 103.980469 307.535156 109.773438 C 299.757812 116.746094 292.355469 125.378906 281.738281 127.632812 C 272.085938 129.027344 262.214844 128.707031 252.511719 128.921875 C 245.324219 128.8125 238.136719 129.132812 230.949219 128.921875 C 227.304688 128.542969 223.765625 127.6875 220.277344 126.558594 C 213.519531 124.523438 212.664062 120.820312 209.445312 115.136719 C 207.730469 112.1875 205.582031 109.453125 203.277344 106.933594 C 201.5625 105.109375 199.738281 103.070312 197.484375 101.835938 C 192.550781 99.15625 186.167969 97.816406 184.078125 104.464844 C 180.484375 115.78125 184.5625 127.847656 181.824219 139.269531 C 180.484375 145.492188 178.125 152.839844 177 159.433594 C 175.605469 166.40625 176.625 173.433594 176.570312 180.457031 C 175.335938 193.382812 165.46875 211.992188 179.789062 220.839844 C 187.617188 225.183594 194.269531 223.148438 200.917969 218 C 202.632812 217.035156 204.296875 215.640625 206.386719 215.960938 C 206.386719 215.960938 206.386719 216.121094 206.386719 216.121094 C 212.929688 219.445312 215.667969 228.457031 218.132812 234.945312 C 222.261719 246.960938 224.140625 259.777344 223.710938 272.433594 C 223.226562 280.316406 221.78125 288.683594 228.324219 294.636719 C 232.398438 298.496094 237.761719 301.179688 240.230469 306.488281 C 242.425781 311.207031 242.320312 316.515625 242.804688 321.613281 C 243.125 327.402344 242.910156 333.195312 242.910156 338.988281 C 242.855469 347.515625 245.484375 355.773438 244.894531 364.355469 C 243.445312 380.820312 225.265625 371.433594 223.28125 401.304688 C 222.046875 413.960938 217.8125 430.910156 230.144531 439.4375 C 236.582031 443.886719 243.769531 442.816406 250.203125 438.898438 C 251.277344 438.523438 252.457031 437.398438 253.582031 438.148438 C 256.53125 439.703125 258.25 442.761719 259.75 445.605469 C 261.199219 448.554688 262.054688 451.71875 262.753906 454.933594 C 263.824219 462.066406 265.433594 469.414062 264.09375 476.65625 C 261.199219 474.132812 257.550781 472.6875 253.851562 471.9375 C 243.339844 469.363281 238.886719 480.035156 238.621094 488.667969 C 238.136719 495.105469 239.640625 501.378906 240.175781 507.761719 C 240.441406 517.09375 241.140625 526.746094 237.867188 535.703125 C 235.132812 542.996094 228.484375 548.195312 226.285156 555.867188 C 224.191406 562.140625 224.890625 568.898438 224.460938 575.441406 C 224.085938 579.945312 223.335938 584.503906 223.550781 589.0625 C 223.871094 595.285156 226.714844 601.074219 226.875 607.296875 C 227.570312 615.179688 222.636719 622.046875 220.332031 629.339844 C 218.5625 634.21875 217.382812 639.421875 217.597656 644.625 C 217.597656 657.332031 230.46875 663.875 238.78125 671.492188 C 240.605469 673.15625 242.375 674.871094 243.820312 676.910156 C 245.96875 680.289062 247.628906 683.933594 250.363281 686.9375 C 253.367188 690.421875 257.015625 693.371094 260.234375 696.699219 C 262.109375 699.058594 264.253906 701.363281 265.328125 704.207031 C 266.828125 709.246094 267.417969 714.503906 268.382812 719.652344 C 269.1875 724.210938 270.152344 728.769531 271.386719 733.21875 C 272.191406 736.167969 272.996094 739.386719 275.195312 741.640625 C 280.023438 746.574219 287.960938 745.929688 293.910156 743.515625 C 296.699219 742.335938 299.167969 740.621094 301.6875 738.90625 C 303.996094 737.511719 306.03125 735.527344 308.929688 735.847656 C 312.519531 737.9375 315.953125 741.53125 319.546875 744.105469 C 322.980469 746.414062 327 747.96875 331.132812 748.449219 C 341.964844 749.953125 350.382812 743.890625 358.75 737.992188 C 363.953125 733.917969 368.296875 728.875 372.53125 723.78125 C 375.320312 720.617188 378.59375 717.882812 381.113281 714.449219 C 385.027344 709.140625 386.53125 702.652344 387.066406 696.214844 C 387.816406 690.371094 386.101562 684.632812 385.671875 678.839844 C 385.511719 675.890625 385.457031 672.992188 385.457031 670.042969 C 387.976562 664.25 390.714844 658.40625 391.089844 651.96875 C 393.769531 649.449219 390.660156 645.855469 390.875 642.855469 C 395.59375 646.445312 399.242188 651.703125 404.871094 653.953125 C 411.523438 656.367188 417.3125 653.3125 422.246094 649.183594 C 429.003906 644.835938 443.644531 648.699219 450.457031 651.808594 C 455.660156 654.007812 458.664062 658.890625 462.148438 663.019531 C 464.453125 665.539062 466.597656 668.328125 469.335938 670.417969 C 473.25 673.53125 478.183594 674.816406 483.117188 675.351562 C 493.628906 677.285156 504.835938 673.15625 511.753906 665.054688 C 515.886719 660.230469 517.28125 653.953125 518.996094 647.949219 C 520.121094 644.945312 521.460938 642.101562 522.265625 638.992188 C 523.929688 632.019531 524.25 624.78125 525.109375 617.703125 C 525.699219 611.371094 527.09375 605.742188 528.328125 599.414062 C 530.042969 588.6875 534.871094 578.660156 538.300781 568.363281 C 542.378906 555.167969 544.628906 541.386719 545.382812 527.601562 C 545.8125 513.820312 546.613281 501.378906 547.527344 487.21875 C 548.546875 470.808594 546.828125 454.238281 549.566406 437.933594 C 551.601562 429.460938 554.125 421.09375 556.589844 412.730469 C 559.753906 403.933594 562.648438 394.65625 560.558594 385.269531 C 559.648438 379.53125 557.289062 374.0625 553.050781 370.039062 C 550.207031 366.929688 548.761719 362.90625 547.3125 358.992188 C 543.828125 348.425781 540.5 337.433594 541.144531 326.171875 C 542.164062 316.945312 546.078125 307.9375 553.320312 301.984375 C 556.535156 299.410156 560.023438 297.101562 562.8125 293.992188 C 569.621094 286.269531 574.179688 276.832031 578.257812 267.445312 C 582.492188 257.632812 584.53125 246.421875 581.796875 235.910156 Z M 565.976562 263.371094 C 562.222656 271.359375 558.46875 279.511719 552.890625 286.429688 C 548.761719 290.507812 543.878906 293.722656 540.234375 298.28125 C 530.257812 309.757812 527.148438 326.0625 530.152344 340.757812 C 532.511719 351.324219 535.566406 361.996094 540.929688 371.378906 C 542.859375 374.917969 546.238281 377.277344 548.546875 380.496094 C 551.066406 386.609375 550.960938 393.691406 548.652344 399.910156 C 544.628906 410.796875 541.039062 421.84375 538.089844 433.109375 C 534.066406 452.199219 536.746094 471.882812 535.40625 491.242188 C 535.03125 498.535156 534.441406 505.777344 534.28125 513.070312 C 534.171875 526.207031 533.691406 539.292969 530.847656 552.164062 C 528.59375 564.769531 522.535156 576.191406 518.621094 588.257812 C 516.421875 597.214844 514.492188 606.332031 513.203125 615.449219 C 512.507812 621.292969 511.59375 627.085938 510.683594 632.878906 C 510.148438 635.988281 508.804688 638.777344 507.410156 641.621094 C 503.65625 650.199219 503.496094 657.066406 493.359375 660.660156 C 491.75 661.195312 490.089844 661.515625 488.425781 661.355469 C 485.316406 660.980469 482.097656 660.925781 479.257812 659.585938 C 478.613281 659.050781 477.914062 658.675781 477.324219 658.03125 C 477.324219 658.03125 476.359375 656.90625 476.359375 656.90625 C 474.644531 654.921875 472.980469 652.9375 471.480469 650.789062 C 468.691406 646.660156 465.367188 642.800781 461.183594 640.011719 C 454.105469 635.34375 445.792969 632.933594 437.425781 631.753906 C 427.984375 630.089844 417.851562 631.054688 409.964844 637.007812 C 402.941406 631.109375 394.253906 621.9375 384.222656 626.390625 C 380.363281 628.105469 376.878906 631.804688 376.769531 636.203125 C 375.910156 637.867188 375.320312 638.992188 374.945312 641.40625 C 374.464844 647.144531 375.589844 652.9375 376.074219 658.621094 C 375.375 660.875 373.925781 662.859375 373.070312 665.003906 C 372.105469 667.578125 371.996094 670.367188 372.371094 673.101562 C 373.121094 679.644531 375.484375 685.8125 377.199219 692.140625 C 377.734375 696.054688 377.253906 700.128906 376.234375 703.882812 C 374.679688 708.816406 370.710938 712.144531 367.171875 715.628906 C 361.378906 722.066406 355.746094 728.984375 347.808594 732.898438 C 344.003906 735.363281 339.820312 737.402344 335.207031 737.671875 C 324.105469 738.582031 318.851562 725.015625 308.015625 725.121094 C 304.421875 725.175781 301.042969 726.570312 297.988281 728.339844 C 293.859375 730.644531 289.730469 734.132812 284.742188 733.433594 C 282.273438 725.335938 280.878906 716.917969 279.378906 708.605469 C 278.628906 704.367188 277.824219 699.808594 275.515625 696.054688 C 271.441406 689.027344 264.84375 684.308594 259.265625 678.570312 C 257.230469 676.210938 256.050781 673.261719 254.332031 670.742188 C 251.007812 665.699219 246.34375 661.839844 241.675781 658.191406 C 237.707031 654.867188 233.148438 651.863281 230.253906 647.464844 C 227.734375 639.582031 232.507812 631.539062 235.1875 624.242188 C 238.835938 615.878906 239.640625 609.066406 237.761719 600.109375 C 237.117188 596.355469 235.5625 592.816406 235.132812 589.0625 C 234.917969 584.183594 235.777344 579.300781 235.992188 574.421875 C 236.3125 569.328125 235.617188 564.125 237.117188 559.191406 C 239.851562 551.789062 246.609375 546.535156 248.703125 538.757812 C 252.296875 528.40625 251.492188 517.199219 250.792969 506.417969 C 250.257812 498.589844 246.449219 489.632812 250.847656 482.394531 C 256.960938 483.199219 259.265625 490.492188 265.382812 491.1875 C 272.03125 491.941406 275.25 484.914062 275.945312 479.335938 C 277.5 472.203125 276.644531 464.910156 275.730469 457.777344 C 274.765625 450.429688 273.050781 442.976562 269.082031 436.539062 C 264.578125 428.871094 255.511719 422.167969 246.503906 426.832031 C 244.304688 427.796875 242.320312 429.191406 240.015625 429.890625 C 233.257812 429.730469 234.113281 420.828125 234.328125 416 C 234.597656 412.40625 235.027344 408.867188 235.507812 405.273438 C 236.421875 400.285156 235.9375 394.496094 239.15625 390.3125 C 242.855469 386.71875 247.898438 384.734375 251.328125 380.820312 C 263.074219 368.324219 255.136719 350.679688 255.835938 335.714844 C 255.675781 323.757812 256.800781 308.097656 249.722656 297.960938 C 246.394531 292.652344 240.820312 289.648438 236.261719 285.574219 C 235.617188 284.875 235.347656 284.015625 235.292969 283.105469 C 235.132812 279.566406 235.507812 276.027344 235.722656 272.539062 C 236.3125 254.789062 232.988281 236.875 225.480469 220.734375 C 221.351562 211.511719 211.914062 201 200.8125 204.96875 C 196.464844 206.308594 193.355469 209.792969 189.28125 211.511719 C 187.777344 211.777344 186.117188 211.1875 184.882812 210.328125 C 183.703125 209.257812 183.757812 207.433594 183.59375 205.933594 C 183.703125 198.800781 186.4375 191.71875 187.511719 184.695312 C 188.691406 177.832031 186.972656 170.914062 187.617188 164.046875 C 188.53125 154.714844 191.855469 145.867188 193.089844 136.589844 C 194.269531 128.492188 192.5 120.339844 193.410156 112.296875 C 198.128906 116.691406 200.703125 122.59375 204.082031 128.007812 C 208.960938 135.515625 218.1875 137.824219 226.5 139.539062 C 229.984375 140.234375 233.523438 140.234375 237.066406 140.234375 C 244.464844 140.289062 251.867188 140.449219 259.320312 140.398438 C 266.9375 140.234375 274.605469 140.449219 282.21875 139.59375 C 289.03125 138.679688 295.519531 135.890625 301.042969 131.871094 C 309.570312 125.863281 315.898438 117.015625 325.339844 112.402344 C 329.359375 110.3125 333.757812 109.023438 337.886719 107.144531 C 342.230469 105.109375 346.09375 102.375 349.632812 99.15625 C 356.121094 93.257812 361.003906 85.910156 366.6875 79.367188 C 373.5 71.964844 380.308594 63.707031 387.601562 56.679688 C 395.433594 50.085938 403.585938 43.433594 413.453125 40.164062 C 420.800781 37.75 427.609375 35.390625 429.703125 26.96875 C 430.882812 23.164062 431.097656 18.710938 434.421875 15.976562 C 436.136719 14.582031 437.960938 13.1875 440.054688 12.488281 C 441.179688 12.488281 442.25 12.917969 443.269531 13.242188 C 447.882812 15.171875 453.136719 17.960938 454.960938 22.894531 C 456.570312 28.792969 459.628906 35.015625 465.902344 36.890625 C 471.910156 39.144531 479.09375 37.535156 484.457031 41.609375 C 489.125 44.5625 493.09375 49.601562 499.046875 49.65625 C 500.921875 49.921875 503.441406 49.226562 504.785156 50.941406 C 507.035156 53.625 509.664062 56.894531 509.289062 60.597656 C 508.644531 63.546875 507.195312 66.226562 506.230469 69.121094 C 503.441406 76.253906 504.460938 85.371094 510.574219 90.519531 C 513.527344 93.148438 517.976562 93.578125 520.121094 97.0625 C 522.644531 100.441406 520.175781 104.464844 519.746094 108.164062 C 518.996094 112.402344 519.265625 117.015625 521.675781 120.660156 C 523.824219 124.09375 527.039062 126.667969 530.042969 129.347656 C 534.65625 133.855469 540.070312 138.199219 542.644531 144.203125 C 544.84375 151.015625 543.289062 158.253906 543.988281 165.226562 C 544.363281 170.269531 545.328125 175.257812 546.992188 180.082031 C 549.082031 186.304688 553.050781 191.558594 555.464844 197.621094 C 557.234375 203.304688 556.429688 209.417969 558.199219 215.101562 C 559.003906 217.785156 560.128906 220.359375 561.578125 222.71875 C 571.5 236.449219 573.859375 247.816406 565.976562 263.371094 Z M 565.976562 263.371094 " fill-opacity="1" fill-rule="nonzero"/><path fill="#c9a96e" d="M 241.085938 686.722656 C 237.601562 681.84375 230.898438 678.140625 224.890625 680.5 C 218.1875 682.914062 214.058594 690.207031 214.324219 697.234375 C 214.59375 702.4375 217.488281 706.886719 219.367188 711.660156 C 221.296875 717.613281 224.191406 724.316406 230.734375 726.246094 C 235.457031 727.855469 238.671875 724.425781 241.140625 720.832031 C 244.519531 716.003906 245.378906 709.945312 245.589844 704.152344 C 245.699219 701.417969 245.753906 698.628906 245.269531 695.945312 C 244.574219 692.621094 242.910156 689.566406 241.085938 686.722656 Z M 237.492188 715.199219 C 237.011719 714.984375 236.527344 714.824219 236.046875 714.71875 C 234.972656 714.554688 233.953125 714.824219 233.097656 715.359375 C 230.734375 712.359375 230.359375 708.28125 228.589844 704.902344 C 227.464844 702.273438 225.910156 699.863281 225.210938 697.074219 C 224.835938 694.390625 225.800781 691.441406 227.679688 689.511719 C 232.34375 685.703125 237.546875 693.585938 238.40625 697.664062 C 239.046875 703.507812 238.886719 709.515625 237.492188 715.199219 Z M 237.492188 715.199219 " fill-opacity="1" fill-rule="nonzero"/><path fill="#c9a96e" d="M 199.578125 651.113281 C 192.445312 649.878906 186.492188 653.203125 185.847656 660.765625 C 185.257812 666.234375 186.4375 671.707031 189.386719 676.371094 C 191.90625 680.714844 193.625 686.722656 199.09375 687.957031 C 202.6875 689.082031 206.601562 685.222656 204.886719 681.679688 C 207.355469 678.570312 209.445312 674.976562 211.269531 671.222656 C 212.554688 668.757812 213.789062 666.183594 213.789062 663.339844 C 213.46875 656.046875 206.171875 651.863281 199.578125 651.113281 Z M 204.941406 665.699219 C 203.976562 669.988281 202.3125 674.066406 200.542969 678.089844 C 199.09375 674.65625 196.949219 671.222656 195.234375 667.683594 C 194.589844 665.269531 194.054688 662.535156 194.859375 660.121094 C 195.664062 658.996094 197.539062 659.640625 198.773438 659.746094 C 201.667969 660.335938 206.28125 661.839844 204.941406 665.699219 Z M 204.941406 665.699219 " fill-opacity="1" fill-rule="nonzero"/><path fill="#c9a96e" d="M 198.289062 89.234375 C 204.082031 89.769531 208.800781 86.929688 208.855469 80.707031 C 208.800781 78.9375 207.730469 77.273438 208.105469 75.453125 C 208.585938 73.84375 208.585938 72.019531 209.875 70.839844 C 211.320312 68.910156 213.683594 69.175781 215.878906 68.855469 C 216.953125 68.855469 218.132812 68.855469 218.882812 67.996094 C 223.335938 67.246094 224.085938 59.898438 224.78125 56.199219 C 226.175781 50.085938 221.082031 47.1875 215.988281 45.742188 C 211.320312 44.292969 206.925781 47.9375 204.671875 51.855469 C 203.652344 53.515625 203.4375 55.5 202.902344 57.324219 C 201.507812 59.253906 199.039062 60.007812 197.378906 61.613281 C 193.464844 66.601562 187.886719 74.433594 188.476562 80.976562 C 189.441406 85.371094 193.890625 88.859375 198.289062 89.234375 Z M 200.648438 68.855469 C 202.582031 65.316406 207.03125 64.351562 208.800781 60.597656 C 209.660156 58.824219 209.550781 56.789062 210.140625 54.910156 C 210.785156 53.25 211.859375 51.585938 213.519531 50.78125 C 214.863281 50.566406 216.257812 51.101562 217.542969 51.480469 C 218.882812 52.015625 220.546875 52.445312 221.351562 53.730469 C 221.886719 57.054688 221.191406 60.542969 220.0625 63.652344 C 218.992188 62.957031 217.488281 63.171875 216.523438 63.921875 C 212.125 63.652344 208.050781 64.402344 205.316406 68.210938 C 203.492188 70.304688 203.171875 73.359375 202.6875 75.988281 C 202.367188 78.292969 204.296875 80.546875 202.902344 82.691406 C 202.367188 83.550781 201.023438 83.441406 200.167969 83.601562 C 197.753906 83.871094 195.609375 82.371094 194.535156 80.277344 C 195.179688 75.988281 198.289062 72.449219 200.648438 68.855469 Z M 200.648438 68.855469 " fill-opacity="1" fill-rule="nonzero"/><path fill="#c9a96e" d="M 493.628906 25.148438 C 496.042969 25.789062 498.242188 24.449219 499.796875 22.679688 C 502.316406 19.515625 501.835938 13.667969 500.492188 10.023438 C 499.796875 7.449219 496.953125 5.945312 494.433594 6.914062 C 492.824219 7.503906 492.769531 9.488281 491.75 10.613281 C 488.105469 15.707031 485.746094 22.839844 493.628906 25.148438 Z M 495.238281 11.203125 C 495.398438 11.148438 495.558594 11.042969 495.71875 10.933594 C 495.71875 10.933594 495.71875 10.933594 495.773438 10.882812 C 496.203125 10.828125 496.308594 11.257812 496.417969 11.578125 C 496.738281 12.652344 497.113281 13.777344 497.222656 14.902344 C 497.167969 16.996094 497.652344 20.535156 494.914062 20.964844 C 489.660156 19.890625 494.164062 14.046875 495.238281 11.203125 Z M 495.238281 11.203125 " fill-opacity="1" fill-rule="nonzero"/></svg>