<svg xmlns="http://www.w3.org/2000/svg" xmlns:xlink="http://www.w3.org/1999/xlink" width="1000" zoomAndPan="magnify" viewBox="0 0 750 749.999995" height="1000" preserveAspectRatio="xMidYMid meet" version="1.0"><defs><clipPath id="d304554dd4"><path d="M 294 27.316406 L 456 27.316406 L 456 313 L 294 313 Z M 294 27.316406 " clip-rule="nonzero"/></clipPath><clipPath id="14e55144d8"><path d="M 363 189 L 575.148438 189 L 575.148438 405 L 363 405 Z M 363 189 " clip-rule="nonzero"/></clipPath><clipPath id="b3478503a3"><path d="M 174.648438 189 L 387 189 L 387 405 L 174.648438 405 Z M 174.648438 189 " clip-rule="nonzero"/></clipPath><clipPath id="3c9d807765"><path d="M 363 348 L 575.148438 348 L 575.148438 564 L 363 564 Z M 363 348 " clip-rule="nonzero"/></clipPath><clipPath id="6fbcde2e4e"><path d="M 174.648438 348 L 387 348 L 387 564 L 174.648438 564 Z M 174.648438 348 " clip-rule="nonzero"/></clipPath><clipPath id="340e00e8b7"><path d="M 363 507 L 575.148438 507 L 575.148438 722.566406 L 363 722.566406 Z M 363 507 " clip-rule="nonzero"/></clipPath><clipPath id="758df1e846"><path d="M 174.648438 507 L 387 507 L 387 722.566406 L 174.648438 722.566406 Z M 174.648438 507 " clip-rule="nonzero"/></clipPath></defs><g clip-path="url(#d304554dd4)"><path fill="#c9a96e" d="M 374.992188 312.046875 C 371.949219 312.046875 368.921875 311.117188 366.332031 309.265625 C 321.597656 277.320312 294.835938 225.148438 294.71875 169.714844 C 294.835938 114.207031 321.597656 62.035156 366.332031 30.089844 C 371.515625 26.390625 378.472656 26.390625 383.65625 30.089844 C 428.390625 62.035156 455.152344 114.207031 455.269531 169.65625 C 455.136719 225.164062 428.375 277.335938 383.65625 309.265625 C 381.066406 311.117188 378.039062 312.046875 374.992188 312.046875 Z M 374.992188 61.074219 C 343.292969 87.722656 324.628906 127.5625 324.539062 169.714844 C 324.628906 211.796875 343.292969 251.632812 374.992188 278.28125 C 406.679688 251.632812 425.34375 211.796875 425.449219 169.65625 C 425.359375 127.5625 406.691406 87.722656 374.992188 61.074219 Z M 374.992188 61.074219 " fill-opacity="1" fill-rule="nonzero"/></g><g clip-path="url(#14e55144d8)"><path fill="#c9a96e" d="M 406.5625 404.347656 C 396.964844 404.347656 387.3125 403.519531 377.703125 401.816406 C 371.5 400.722656 366.664062 395.859375 365.601562 389.65625 C 356.253906 335.039062 373.710938 278.980469 412.269531 239.679688 C 451.132812 200.410156 506.550781 182.601562 560.558594 192.195312 C 566.746094 193.289062 571.59375 198.152344 572.660156 204.355469 C 582.019531 258.972656 564.5625 315.03125 525.992188 354.347656 C 494.03125 386.628906 450.898438 404.347656 406.5625 404.347656 Z M 393.574219 373.902344 C 434.621094 377.863281 475.363281 363.082031 504.746094 333.410156 C 534.085938 303.53125 548.632812 261.828125 544.6875 220.109375 C 503.902344 216.132812 462.898438 230.929688 433.515625 260.605469 C 404.1875 290.484375 389.640625 332.183594 393.574219 373.902344 Z M 393.574219 373.902344 " fill-opacity="1" fill-rule="nonzero"/></g><g clip-path="url(#b3478503a3)"><path fill="#c9a96e" d="M 343.410156 404.347656 C 299.074219 404.347656 255.957031 386.628906 224.039062 354.390625 C 185.425781 315.03125 167.96875 258.972656 177.328125 204.355469 C 178.390625 198.152344 183.242188 193.289062 189.429688 192.195312 C 243.421875 182.601562 298.855469 200.394531 337.675781 239.636719 C 376.273438 278.980469 393.734375 335.039062 384.386719 389.65625 C 383.324219 395.859375 378.488281 400.722656 372.285156 401.816406 C 362.675781 403.519531 353.007812 404.347656 343.410156 404.347656 Z M 205.300781 220.109375 C 201.355469 261.828125 215.914062 303.53125 245.285156 333.464844 C 274.609375 363.082031 315.46875 377.832031 356.414062 373.902344 C 360.347656 332.183594 345.800781 290.484375 316.429688 260.558594 C 287.089844 230.929688 246.144531 216.121094 205.300781 220.109375 Z M 205.300781 220.109375 " fill-opacity="1" fill-rule="nonzero"/></g><g clip-path="url(#3c9d807765)"><path fill="#c9a96e" d="M 406.5625 563.515625 C 396.964844 563.515625 387.3125 562.683594 377.703125 560.980469 C 371.5 559.890625 366.664062 555.023438 365.601562 548.824219 C 356.253906 494.203125 373.710938 438.144531 412.269531 398.84375 C 451.132812 359.574219 506.550781 341.78125 560.558594 351.363281 C 566.746094 352.453125 571.59375 357.316406 572.660156 363.519531 C 582.019531 418.136719 564.5625 474.199219 525.992188 513.511719 C 494.03125 545.792969 450.898438 563.515625 406.5625 563.515625 Z M 393.574219 533.066406 C 434.621094 537.027344 475.363281 522.25 504.746094 492.574219 C 534.085938 462.695312 548.632812 420.992188 544.6875 379.273438 C 503.902344 375.242188 462.898438 390.09375 433.515625 419.769531 C 404.1875 449.648438 389.640625 491.351562 393.574219 533.066406 Z M 393.574219 533.066406 " fill-opacity="1" fill-rule="nonzero"/></g><g clip-path="url(#6fbcde2e4e)"><path fill="#c9a96e" d="M 343.410156 563.515625 C 299.074219 563.515625 255.957031 545.792969 224.039062 513.554688 C 185.425781 474.199219 167.96875 418.136719 177.328125 363.519531 C 178.390625 357.316406 183.242188 352.453125 189.429688 351.363281 C 243.421875 341.78125 298.855469 359.574219 337.675781 398.800781 C 376.273438 438.144531 393.734375 494.203125 384.386719 548.824219 C 383.324219 555.027344 378.488281 559.890625 372.285156 560.980469 C 362.675781 562.683594 353.007812 563.515625 343.410156 563.515625 Z M 205.300781 379.273438 C 201.355469 420.992188 215.914062 462.695312 245.285156 492.632812 C 274.609375 522.25 315.46875 537 356.414062 533.066406 C 360.347656 491.351562 345.800781 449.648438 316.429688 419.726562 C 287.089844 390.09375 246.144531 375.226562 205.300781 379.273438 Z M 205.300781 379.273438 " fill-opacity="1" fill-rule="nonzero"/></g><g clip-path="url(#340e00e8b7)"><path fill="#c9a96e" d="M 406.5625 722.679688 C 396.964844 722.679688 387.3125 721.851562 377.703125 720.144531 C 371.5 719.054688 366.664062 714.191406 365.601562 707.988281 C 356.253906 653.371094 373.710938 597.308594 412.269531 558.011719 C 451.117188 518.738281 506.523438 500.945312 560.558594 510.527344 C 566.746094 511.621094 571.59375 516.484375 572.660156 522.6875 C 582.019531 577.289062 564.5625 633.347656 525.992188 672.675781 C 494.03125 704.960938 450.898438 722.679688 406.5625 722.679688 Z M 393.574219 692.234375 C 434.621094 696.207031 475.363281 681.414062 504.746094 651.738281 C 534.070312 621.84375 548.617188 580.144531 544.6875 538.441406 C 503.769531 534.40625 462.882812 549.246094 433.515625 578.933594 C 404.1875 608.8125 389.640625 650.515625 393.574219 692.234375 Z M 393.574219 692.234375 " fill-opacity="1" fill-rule="nonzero"/></g><g clip-path="url(#758df1e846)"><path fill="#c9a96e" d="M 343.410156 722.679688 C 299.074219 722.679688 255.957031 704.957031 224.039062 672.722656 C 185.425781 633.347656 167.96875 577.289062 177.328125 522.6875 C 178.390625 516.484375 183.242188 511.621094 189.429688 510.527344 C 243.421875 500.917969 298.871094 518.726562 337.675781 557.964844 C 376.273438 597.308594 393.734375 653.371094 384.386719 707.988281 C 383.324219 714.191406 378.488281 719.054688 372.285156 720.144531 C 362.675781 721.851562 353.007812 722.679688 343.410156 722.679688 Z M 205.300781 538.441406 C 201.371094 580.144531 215.914062 621.859375 245.285156 651.796875 C 274.609375 681.429688 315.46875 696.164062 356.414062 692.234375 C 360.347656 650.515625 345.800781 608.8125 316.429688 578.890625 C 287.105469 549.257812 246.144531 534.394531 205.300781 538.441406 Z M 205.300781 538.441406 " fill-opacity="1" fill-rule="nonzero"/></g></svg>