<svg xmlns="http://www.w3.org/2000/svg" width="1000" viewBox="0 0 750 750" height="1000" preserveAspectRatio="xMidYMid meet"><defs><clipPath id="sardegna-clip"><path d="M 171.09375 0 L 579 0 L 579 746 L 171.09375 746 Z M 171.09375 0" clip-rule="nonzero"/></clipPath></defs><g clip-path="url(#sardegna-clip)"><path fill="#C9A96E" d="M 561.523438 257.429688 C 560.132812 261.664062 562.183594 267.296875 559.3125 270.878906 C 557.535156 273.105469 554.15625 274.441406 551.820312 276.066406 C 548.738281 278.214844 545.703125 280.519531 542.90625 283.023438 C 540.398438 285.269531 538.152344 287.59375 535.972656 290.011719 C 533.140625 288.191406 528.324219 286.960938 526.550781 286.195312 C 534.824219 284.125 542.453125 278.972656 544.621094 270.238281 C 546.878906 261.136719 541.800781 252.671875 533.410156 248.820312 C 526.171875 245.5 515.050781 246.6875 510.730469 254.191406 C 506.5 261.558594 513.046875 271.582031 521.65625 269.253906 C 524.109375 268.582031 528.519531 265.839844 526.542969 262.722656 C 524.773438 259.929688 523.007812 262.6875 521.433594 263.398438 C 518.992188 264.503906 516.785156 264.117188 515.449219 261.527344 C 513.347656 257.460938 517.589844 254.179688 521.140625 253.148438 C 527.847656 251.210938 535.71875 254.832031 538.746094 261.160156 C 546.03125 276.414062 520.917969 285.835938 511.664062 278.488281 C 502.996094 271.597656 501.566406 258.726562 506.867188 249.480469 C 511.953125 240.605469 522.652344 234.953125 531.390625 233.855469 C 535.960938 233.238281 541.195312 233.453125 545.398438 233.980469 C 547.738281 234.222656 551.042969 235.128906 552.300781 235.46875 C 555.753906 236.460938 562 239.121094 565.949219 241.910156 C 567.320312 242.875 568.804688 244.578125 570.308594 245.832031 C 568.152344 249.988281 563.070312 252.703125 561.523438 257.429688 Z M 523.671875 310.21875 C 522.769531 317.488281 526.046875 322.449219 527.503906 329.203125 C 528.953125 335.898438 527.746094 340.722656 532.265625 346.765625 C 536.078125 351.855469 540.746094 353.734375 542.664062 360.226562 C 544.621094 366.871094 544.765625 371.777344 541.953125 377.421875 C 541.019531 377.195312 540.046875 377.066406 539.28125 376.867188 C 536.203125 376.078125 533.160156 375.023438 530.152344 373.992188 C 528.097656 373.285156 523.710938 372.589844 522.144531 371.09375 C 520.527344 369.539062 521.355469 368.660156 521.765625 365.996094 C 522.164062 363.367188 522.367188 360.742188 522.433594 358.074219 C 522.652344 347.761719 521.660156 335.324219 518.054688 326.140625 C 518.007812 326.03125 517.96875 325.925781 517.921875 325.816406 C 515.519531 319.035156 508.066406 313.1875 500.484375 314.128906 C 493.019531 315.054688 485.214844 323.199219 487.289062 331.089844 C 488.308594 334.972656 491.589844 337.425781 495.589844 337.652344 C 498.714844 337.835938 505.601562 336.246094 506.789062 333.074219 C 508.628906 328.144531 503.0625 329.746094 500.832031 330.710938 C 499.113281 331.460938 496.195312 332.902344 494.238281 331.722656 C 491.621094 330.148438 492.554688 326.734375 493.925781 324.523438 C 497.671875 318.492188 505.777344 318.128906 510.15625 323.609375 C 520.390625 336.421875 496.375 354.398438 487.238281 359.371094 C 487.132812 359.429688 487.027344 359.488281 486.929688 359.554688 C 483.039062 361.925781 477.945312 364.652344 473.425781 366.820312 C 474.144531 365.433594 476.03125 361.402344 476.136719 361.148438 C 489.117188 330.878906 485.199219 300.050781 483.195312 268.289062 C 483.554688 268.667969 483.699219 268.769531 483.621094 268.613281 C 495.824219 277.769531 508.402344 284.335938 522.433594 290.507812 C 524.050781 291.226562 528.222656 293.601562 531.867188 294.71875 C 528.050781 299.242188 524.421875 304.167969 523.671875 310.21875 Z M 539.359375 432.039062 C 538.761719 437.867188 535.375 442.574219 534.425781 448.199219 C 529.761719 445.4375 518.765625 444.472656 516.070312 444.472656 C 515.644531 444.472656 515.65625 444.414062 515.199219 444.347656 C 510.835938 443.789062 505.867188 443.136719 501.222656 442.800781 C 498.316406 442.601562 488.164062 441.015625 486.425781 442.351562 C 493.703125 436.804688 503.550781 430.839844 512.210938 427.503906 C 512.316406 427.464844 512.425781 427.421875 512.539062 427.367188 C 512.0625 427.589844 513.921875 426.773438 514.289062 426.609375 C 516.617188 425.507812 520.792969 423.949219 523.769531 422.824219 C 526.640625 421.734375 531.125 419.105469 534.210938 419.074219 C 534.960938 419.058594 535.832031 419.367188 536.699219 419.660156 C 537.769531 423.804688 539.796875 427.796875 539.359375 432.039062 Z M 531.777344 482.996094 C 529.121094 489.984375 531.449219 496.726562 531.71875 503.847656 C 532.011719 511.640625 528.3125 515.847656 525.269531 522.648438 C 522.316406 529.265625 522.640625 534.519531 524.507812 540.515625 C 523.324219 539.40625 522.144531 538.324219 521.074219 537.246094 C 517.503906 533.660156 512.589844 528.964844 509.652344 526.027344 C 508.480469 524.859375 508.046875 524.464844 507.199219 523.660156 C 487.941406 505.582031 464.648438 488.300781 440.796875 479.042969 C 428.410156 474.152344 413.023438 469.742188 398.976562 468.332031 C 418.183594 458.902344 439.289062 452.746094 460.363281 450.007812 C 476.953125 447.652344 496.863281 447.546875 514.710938 449.894531 C 513.535156 449.707031 515.75 450.039062 515.527344 450.007812 C 515.683594 450.027344 520.074219 450.75 521.519531 451.003906 C 512.863281 453.542969 504.640625 457.765625 497.984375 463.894531 C 497.953125 463.921875 497.652344 464.199219 497.039062 464.761719 C 489.34375 471.171875 486.035156 483.558594 490.6875 492.773438 C 495.601562 502.488281 506.859375 504.925781 515.757812 499.019531 C 524.519531 493.203125 528.515625 480.074219 518.574219 473.121094 C 511.0625 467.867188 496.785156 473.257812 498.527344 483.679688 C 499.277344 488.164062 503.351562 490.898438 507.832031 489.449219 C 509.269531 488.980469 510.894531 488.222656 511.226562 486.632812 C 511.953125 483.226562 509.113281 483.695312 507.140625 483.65625 C 505.105469 483.609375 503.8125 485.148438 504.042969 481.640625 C 504.335938 477.15625 511.34375 475.496094 514.710938 477.234375 C 521.800781 480.886719 518.726562 489.566406 513.890625 493.488281 C 504.890625 500.792969 493.933594 494.273438 494.097656 483.054688 C 494.214844 475.019531 499.792969 469.0625 505.503906 464.828125 C 505.554688 464.800781 506.167969 464.371094 507.371094 463.523438 C 506.574219 464.148438 512.78125 460.46875 510.90625 461.394531 C 515.292969 459.078125 519.898438 457.105469 524.730469 455.898438 C 527.6875 455.15625 531.835938 455.59375 534.445312 453.996094 C 534.859375 456.636719 535.667969 459.1875 536.5625 461.714844 C 537.351562 463.925781 539.328125 467.085938 539.210938 469.453125 C 538.960938 474.460938 533.539062 478.375 531.777344 482.996094 Z M 518.933594 565.425781 C 517.9375 563.71875 516.824219 562.203125 516.46875 561.679688 C 507.097656 548.289062 495.839844 537.105469 483.871094 526.851562 C 472.9375 517.5 460.960938 507.730469 448.042969 501.269531 C 441.371094 497.609375 434.519531 494.421875 427.425781 491.664062 C 426.105469 491.074219 418.570312 487.421875 416.003906 489.503906 C 412.285156 492.519531 418.210938 500.003906 419.660156 502.953125 C 425.636719 515.117188 430.675781 527.570312 432.386719 541.105469 C 434.074219 554.496094 433.277344 568.058594 432.351562 581.476562 C 431.453125 594.441406 430.101562 608.792969 433.554688 621.109375 C 433.90625 622.398438 434.492188 625.132812 435.484375 627.464844 C 432.605469 627.886719 429.714844 628.371094 426.832031 628.859375 C 426.492188 625.726562 424.558594 622.015625 423.964844 618.851562 C 423.652344 617.171875 423.332031 615.046875 423.125 613.5 C 420.625 594.714844 426.183594 575.414062 423.933594 556.277344 C 422.433594 543.609375 419.4375 529.761719 414.320312 517.519531 C 414.097656 516.996094 414.058594 516.894531 414.214844 517.269531 C 413.609375 515.84375 413.003906 514.414062 412.394531 512.984375 C 407.121094 500.328125 398.558594 485.40625 392.230469 473.742188 C 393.828125 472.933594 397.429688 473.722656 399.195312 473.925781 C 404.101562 474.472656 408.984375 475.53125 413.785156 476.644531 C 422.320312 478.609375 430.78125 481.085938 438.9375 484.289062 C 439.082031 484.347656 439.277344 484.425781 439.53125 484.515625 C 443.910156 486.214844 452.960938 490.359375 457.027344 492.71875 C 457.476562 492.96875 457.753906 493.117188 457.921875 493.210938 C 463.796875 496.464844 469.421875 500.050781 474.910156 503.917969 C 475.371094 504.265625 475.984375 504.722656 476.769531 505.277344 C 485.769531 511.449219 495.230469 519.984375 503.570312 527.890625 C 503.527344 527.84375 503.472656 527.796875 503.429688 527.746094 C 503.628906 527.949219 505.117188 529.378906 504.558594 528.84375 C 506.566406 530.785156 506.992188 531.199219 509.375 533.527344 C 512.507812 536.601562 515.632812 539.6875 518.71875 542.808594 C 520.710938 544.816406 524.003906 549.90625 526.921875 551.636719 C 526.492188 553.320312 525.480469 555.019531 523.953125 557.472656 C 522.339844 560.054688 520.566406 562.699219 518.933594 565.425781 Z M 524.179688 605.425781 C 523.941406 607.1875 520.472656 609.8125 519.371094 611.234375 C 517.421875 613.773438 515.796875 616.296875 514.808594 619.371094 C 514.214844 621.21875 513.8125 623.128906 513.492188 625.070312 C 508.898438 630.890625 502.539062 635.640625 496.875 640.332031 C 493.800781 623.804688 489 607.039062 483.863281 590.90625 C 482.433594 586.421875 479.828125 581.644531 478.855469 577.070312 C 478.132812 573.6875 478.238281 574.9375 480.605469 572.476562 C 482.34375 570.675781 483.753906 568.605469 485.039062 566.472656 C 489.460938 559.144531 491.921875 550.476562 491.921875 541.902344 C 496.707031 546.597656 502.757812 552.765625 506.078125 557.113281 C 507.886719 559.449219 509.679688 561.785156 511.402344 564.1875 C 512.445312 565.644531 514.171875 569.21875 516.054688 570.929688 C 515.222656 572.820312 514.535156 574.753906 514.136719 576.761719 C 512.6875 584.078125 515.558594 590.664062 519.4375 596.660156 C 520.945312 598.996094 524.59375 602.351562 524.179688 605.425781 Z M 504.5625 652.121094 C 502.671875 652.863281 500.535156 652.980469 498.429688 653.039062 C 498.246094 650.742188 497.304688 647.988281 497.855469 646.75 C 498.46875 645.34375 502.078125 643.25 503.410156 642.117188 C 506.371094 639.589844 509.394531 637.097656 512.246094 634.445312 C 511.964844 636.488281 511.632812 638.527344 511.128906 640.511719 C 509.910156 645.285156 509.535156 650.160156 504.5625 652.121094 Z M 467.484375 648.339844 C 463.0625 642.703125 459.429688 636.050781 453.757812 631.515625 C 450.15625 628.632812 446.128906 627.371094 441.855469 627.144531 C 441.253906 624.9375 439.738281 622.453125 439.316406 621.09375 C 439.296875 621.015625 439.191406 620.617188 438.96875 619.835938 C 437.777344 614.757812 437.128906 609.378906 437 604.074219 C 446.527344 611.34375 458.625 615.90625 470.203125 618.5625 C 473.191406 619.246094 476.207031 619.839844 479.269531 620.179688 C 481.617188 620.4375 485.566406 619.941406 486.734375 621.421875 C 488.3125 623.425781 488.660156 629.003906 489.273438 631.574219 C 490.011719 634.667969 490.832031 638.015625 491.34375 640.984375 C 492.058594 644.824219 492.574219 648.695312 492.808594 652.589844 C 492.808594 652.601562 492.828125 652.929688 492.894531 653.378906 C 489.574219 653.730469 486.257812 654.207031 482.921875 654.46875 C 475.90625 655.011719 471.828125 653.875 467.484375 648.339844 Z M 439.328125 621.140625 C 439.53125 621.839844 439.308594 621.070312 439.363281 621.265625 C 439.328125 621.148438 439.296875 621.03125 439.261719 620.910156 C 439.304688 621.0625 439.324219 621.128906 439.328125 621.140625 Z M 461.054688 553.257812 C 470.574219 569.871094 477.449219 587.863281 482.9375 607.21875 C 483.660156 609.765625 484.351562 612.324219 485.03125 614.882812 C 473.96875 615.164062 462.046875 611.15625 452.171875 606.46875 C 447.957031 604.464844 441.164062 601.710938 438.257812 597.757812 C 435.386719 593.839844 437.75 584.214844 438.09375 579.320312 C 438.996094 566.503906 439.484375 553.570312 437.945312 540.785156 C 436.386719 527.929688 432.03125 516.058594 426.542969 504.402344 C 438.949219 520.460938 450.996094 535.707031 461.054688 553.257812 Z M 467.117188 520.679688 C 471.300781 523.847656 475.484375 527.019531 479.492188 530.421875 C 481.335938 531.992188 484.28125 533.820312 485.59375 535.859375 C 486.917969 537.898438 486.441406 541.652344 486.277344 544.230469 C 485.5 553.386719 482.34375 563.019531 475.59375 569.546875 C 475.164062 568.585938 473.453125 564.878906 473.578125 565.109375 C 473.074219 564.078125 472.976562 563.878906 473.289062 564.53125 C 462.085938 541.476562 444.941406 519.527344 428.816406 498.226562 C 441.992188 503.65625 453.90625 510.96875 465.367188 519.378906 C 464.492188 518.777344 466.242188 520.050781 467.117188 520.679688 Z M 404.550781 633.140625 C 409.453125 628.398438 413.96875 623.195312 418.152344 617.714844 C 418.6875 621.035156 419.109375 626.480469 420.859375 629.886719 C 418.328125 630.324219 415.800781 630.761719 413.277344 631.171875 C 410.449219 631.632812 407.496094 632.285156 404.550781 633.140625 Z M 382.128906 700.09375 C 379.84375 702.605469 375.59375 703.78125 372.789062 705.648438 C 372.640625 705.746094 372.5 705.867188 372.351562 705.972656 C 372.003906 705.449219 371.535156 704.949219 370.871094 704.511719 C 361.800781 698.585938 352.109375 696.949219 341.59375 699.65625 C 336.015625 701.089844 330.519531 703.472656 326.089844 707.195312 C 324.070312 708.882812 319.3125 713.136719 317.628906 716.765625 C 312.636719 716.265625 307.285156 716.96875 303.839844 720.46875 C 298.992188 725.375 300.511719 732.839844 296.851562 737.996094 C 290.476562 733.628906 292.777344 723.542969 292.996094 717.296875 C 293.015625 716.734375 293.027344 716.179688 293.035156 715.625 C 294.632812 713.914062 295.148438 709.96875 295.9375 708.144531 C 299.238281 700.550781 304.675781 694.351562 310.992188 689.070312 C 322.898438 679.132812 339.246094 673.6875 354.679688 676.417969 C 361.890625 677.6875 369.167969 680.554688 374.929688 685.128906 C 376.894531 686.683594 379.992188 691.519531 382.375 692.28125 C 383.296875 695.082031 384.269531 697.738281 382.128906 700.09375 Z M 363.660156 714.308594 C 359.175781 719.710938 354.964844 725.589844 347.234375 725.84375 C 338.957031 726.113281 331.503906 720.292969 323.816406 717.992188 C 324.144531 717.558594 324.425781 717.171875 324.621094 716.898438 C 327.871094 712.480469 331.9375 709.28125 336.980469 707.140625 C 346.972656 702.90625 359.351562 702.234375 368.199219 709.378906 C 366.589844 710.917969 365.09375 712.578125 363.660156 714.308594 Z M 301.472656 671.28125 C 307.816406 664.113281 315.542969 658.542969 324.378906 654.894531 C 324.613281 654.78125 327.707031 653.613281 328.40625 653.367188 C 329.449219 659.636719 330.160156 666.027344 331.738281 672.1875 C 329.683594 672.753906 327.628906 673.402344 325.636719 674.183594 C 322.582031 675.371094 319.621094 676.753906 316.769531 678.375 C 315.554688 679.066406 311.855469 682.199219 310.738281 682.027344 C 309.851562 681.890625 307.457031 678.042969 306.835938 677.308594 C 305.300781 675.503906 303.554688 672.5 301.472656 671.28125 Z M 291.171875 704.648438 C 291.09375 704.453125 291.03125 704.261719 290.9375 704.074219 C 290.097656 702.246094 289.058594 700.035156 287.230469 698.976562 C 288.171875 690.363281 292.910156 682.21875 297.953125 675.464844 C 300.128906 677.988281 303.515625 680.898438 305.042969 683.824219 C 306.078125 685.8125 306.074219 684.710938 305.734375 686.269531 C 305.480469 687.453125 302.28125 689.519531 301.367188 690.449219 C 297.472656 694.402344 293.707031 699.335938 291.171875 704.648438 Z M 268.875 678.460938 C 268.777344 678.375 268.683594 678.289062 268.585938 678.203125 C 269.335938 675.484375 269.574219 672.101562 270.054688 670.632812 C 271.355469 666.75 273.097656 663.023438 275.066406 659.441406 C 280.136719 650.238281 286.773438 641.867188 295.175781 635.496094 C 310.433594 623.921875 330.332031 620.949219 348.957031 623.945312 C 359.378906 625.625 368.777344 629.890625 377.292969 636.058594 C 379.132812 637.390625 380.984375 638.746094 382.570312 640.390625 C 383.628906 641.488281 383.851562 643.199219 384.417969 643.921875 C 384.53125 644.074219 384.640625 644.195312 384.75 644.320312 C 382.238281 647.042969 380.261719 650.234375 379.105469 653.992188 C 379.035156 654.234375 378.980469 654.46875 378.917969 654.703125 C 375.117188 652.132812 369.9375 650.351562 366.238281 649.058594 C 356.859375 645.777344 345.589844 644.386719 336.621094 645.546875 C 336.378906 645.582031 332.589844 646.273438 331.179688 646.671875 C 316.167969 650.957031 303.03125 659.675781 293.359375 672.324219 C 288.65625 678.484375 284.640625 685.554688 282.742188 693.117188 C 282.492188 694.113281 281.972656 695.773438 281.652344 697.484375 C 279.589844 695.21875 278.277344 690.785156 277.082031 688.574219 C 274.898438 684.542969 272.347656 681.453125 268.875 678.460938 Z M 247.535156 657.726562 C 239.605469 651.308594 232.367188 644.230469 227.035156 635.074219 C 226.964844 634.949219 226.839844 634.734375 226.644531 634.386719 C 223.738281 629.375 229.691406 626.679688 233.875 623.769531 C 240.792969 618.941406 245.796875 611.46875 242.875 602.777344 C 242.847656 602.683594 242.808594 602.59375 242.777344 602.5 C 244.976562 602.917969 247.21875 603.117188 248.304688 603.453125 C 257.113281 606.207031 265.492188 611.886719 272.222656 617.125 C 276.117188 620.238281 280.472656 623.546875 283.785156 626.96875 C 283.871094 627.058594 283.949219 627.144531 284.035156 627.230469 C 285.1875 628.332031 287.472656 632.234375 289.527344 632.855469 C 281.246094 639.675781 274.546875 648.425781 269.539062 657.894531 C 268.769531 659.363281 265.128906 667.042969 263.496094 673.375 C 258.277344 668.070312 253.484375 662.390625 247.535156 657.726562 Z M 322.640625 618.296875 C 321.9375 618.394531 321.238281 618.492188 320.546875 618.589844 C 310.5625 620.332031 301.328125 624.167969 293.085938 630.105469 C 292.890625 626.871094 287.402344 622.640625 285.269531 620.703125 C 281.945312 617.6875 278.394531 614.921875 274.882812 612.132812 C 272.429688 610.191406 267.339844 606.496094 263.589844 604.316406 C 261.511719 603.109375 253.035156 600.023438 253.035156 598.480469 C 253.171875 582.414062 264.089844 566.980469 281.027344 565.988281 C 296.277344 565.101562 308.472656 576.378906 314.210938 589.761719 C 315.984375 594.070312 317.507812 598.527344 318.910156 602.972656 C 320.429688 607.761719 320.488281 613.824219 322.640625 618.296875 Z M 325 603.828125 C 323.582031 598.742188 321.773438 593.660156 319.796875 588.765625 C 318.003906 584.328125 315.5625 580.28125 312.636719 576.488281 C 311.882812 575.511719 306.824219 570.953125 306.863281 570.0625 C 306.90625 569.207031 309.167969 567.125 309.648438 566.660156 C 320.390625 556.707031 337.089844 552.742188 351.632812 556.226562 C 371.804688 561.066406 370.261719 586.226562 366.105469 601.367188 C 365.082031 604.996094 363.878906 608.519531 362.398438 611.984375 C 361.679688 613.621094 360.3125 618.816406 358.894531 619.796875 C 357.675781 620.636719 355.644531 619.601562 353.8125 619.1875 C 348.324219 617.957031 342.59375 617.433594 336.972656 617.433594 C 335.636719 617.433594 330.46875 617.453125 327.855469 617.6875 C 328.652344 613.980469 325.992188 607.390625 325 603.828125 Z M 365.191406 660.917969 C 364.15625 663.527344 363.117188 666.136719 362.105469 668.761719 C 360.507812 672.90625 360.074219 671.738281 355.730469 670.933594 C 349.53125 669.785156 343.296875 669.890625 337.097656 670.972656 C 336.910156 669.113281 335.960938 665.296875 335.804688 664.265625 C 335.785156 664.140625 335.761719 664.023438 335.734375 663.898438 C 335.226562 661.675781 333.324219 655.195312 333.933594 652.792969 C 334.488281 650.574219 340.796875 650.625 343.363281 650.613281 C 351.546875 650.578125 359.859375 652.425781 367.417969 655.480469 C 366.601562 657.261719 365.917969 659.101562 365.191406 660.917969 Z M 372.480469 657.816406 C 373.925781 658.574219 377.527344 660.929688 377.847656 661.203125 C 378.113281 661.417969 378.382812 661.589844 378.648438 661.746094 C 378.863281 662.710938 379.183594 663.675781 379.628906 664.664062 C 380.894531 667.4375 383.96875 670.171875 384.476562 673.238281 C 385.085938 676.855469 383.066406 680.332031 382.023438 683.980469 C 380.28125 682.304688 378.425781 680.730469 376.457031 679.332031 C 374.609375 678.027344 368.167969 675.90625 367.019531 674.261719 C 365.324219 671.828125 370.949219 661.21875 372.480469 657.816406 Z M 415.984375 611.242188 C 413.980469 615.078125 410.4375 618.6875 407.65625 621.957031 C 403.773438 626.523438 399.511719 630.695312 394.820312 634.425781 C 393.664062 635.347656 390.695312 638.585938 389.273438 638.707031 C 388.222656 638.792969 387.09375 637.058594 386.769531 636.730469 C 386.683594 636.644531 386.597656 636.554688 386.511719 636.46875 C 380.390625 630.347656 372.003906 625.402344 363.902344 622.238281 C 367.765625 613.105469 372.050781 603.332031 373.675781 592.980469 C 374.355469 588.632812 373.382812 583.464844 376.105469 580.058594 C 378.839844 576.632812 384.582031 574.523438 388.652344 573.460938 C 389.738281 573.1875 391.664062 572.847656 392.660156 572.703125 C 394.613281 572.359375 399.675781 572.71875 401.746094 572.71875 C 405.542969 572.722656 410.46875 574.308594 413.746094 576.46875 C 416.597656 578.347656 418.296875 579.980469 418.375 583.261719 C 418.484375 587.6875 417.367188 592.394531 417.082031 596.832031 C 416.78125 601.496094 418.105469 607.175781 415.984375 611.242188 Z M 231.265625 584.46875 C 231.441406 582.269531 233.902344 580.359375 234.972656 578.484375 C 237.058594 574.84375 237.613281 571.171875 236.796875 567.046875 C 236.53125 565.703125 235.9375 564.304688 235.230469 562.882812 C 236.433594 560.023438 237.183594 556.167969 238.207031 554.921875 C 241.570312 550.859375 247.402344 549.609375 251.75 549.609375 C 256.109375 549.609375 262.183594 550.4375 266.796875 546.519531 C 272.144531 541.992188 273.953125 534.703125 279.96875 530.800781 C 292.308594 522.804688 307.480469 536.234375 319.496094 525.316406 C 319.925781 524.945312 319.746094 525.117188 320.125 524.847656 C 326.277344 520.632812 332.253906 517.328125 339.464844 518.460938 C 339.589844 518.480469 339.714844 518.492188 339.839844 518.511719 C 342.28125 518.824219 344.835938 519.886719 346.757812 521.433594 C 347.0625 521.683594 348.722656 523.007812 347.753906 522.238281 C 352.9375 526.347656 359.441406 531.714844 366.328125 532.253906 C 374.484375 532.886719 381.855469 527.453125 390.304688 528.585938 C 396.523438 529.429688 399.167969 534.96875 403.394531 539.015625 C 405.949219 541.457031 408.519531 543.289062 411.796875 544.609375 C 412.867188 545.039062 415.710938 545.328125 416.410156 545.960938 C 417.453125 546.898438 417.542969 550.417969 417.78125 552.113281 C 418.476562 557.675781 419.308594 566.652344 419.097656 573.511719 C 407.140625 563.261719 385.546875 565.191406 373.839844 574.679688 C 370.578125 558.953125 360.296875 550.507812 344.382812 549.640625 C 330.226562 548.863281 315.46875 553.25 305.636719 562.804688 C 305.355469 563.066406 303.15625 566.152344 302.019531 566.09375 C 299.390625 565.960938 295.304688 562.289062 292.40625 561.480469 C 285.148438 559.4375 276.671875 559.976562 269.773438 562.953125 C 255.515625 569.109375 248.394531 582.445312 247.515625 597.4375 C 245.871094 597.027344 241.726562 595.609375 239.167969 596.230469 C 238.457031 595.289062 237.699219 594.371094 236.933594 593.449219 C 235.246094 591.386719 231.050781 587.21875 231.265625 584.46875 Z M 252.09375 474.152344 C 255.875 479.695312 262.042969 484.097656 268.828125 480.457031 C 276.574219 476.300781 270.996094 468.050781 269.675781 461.800781 C 268.605469 456.710938 266.921875 449.027344 270.6875 444.511719 C 273.039062 441.6875 277.058594 440.570312 280.203125 438.28125 C 280.71875 439.886719 281.246094 441.308594 281.441406 442.136719 C 282.539062 446.703125 283.917969 453.269531 284.457031 456.695312 C 284.980469 459.894531 285.585938 464.460938 285.703125 468.226562 C 285.703125 469.273438 285.652344 474.054688 285.515625 475.695312 C 285.246094 478.230469 283.675781 481.9375 283.308594 483.230469 C 280.027344 495.03125 278.96875 508.09375 270.421875 517.546875 C 264.207031 524.402344 254.609375 529.867188 246.804688 534.957031 C 247.167969 534.3125 247.546875 533.664062 247.867188 532.980469 C 256.121094 515.1875 253.042969 493.074219 252.09375 474.152344 Z M 273.351562 410.796875 C 273.195312 410.757812 273.03125 410.714844 272.875 410.667969 C 273.15625 410.140625 273.382812 409.683594 273.535156 409.394531 C 282.429688 392.324219 305.09375 380.574219 321.714844 374.199219 C 321.828125 374.152344 321.9375 374.109375 322.046875 374.0625 C 326.566406 372.113281 332.796875 370.246094 338.003906 368.664062 C 336.503906 386.769531 333.246094 405.890625 324.78125 421.992188 C 321.851562 427.5625 319.511719 433.964844 317.042969 439.449219 C 313.539062 447.246094 308.566406 453.261719 302.476562 459.175781 C 299.082031 462.570312 294.800781 465.984375 291.273438 469.636719 C 291.257812 468.476562 291.253906 467.972656 291.253906 467.804688 C 291.234375 464.121094 290.574219 459.710938 290.011719 456.21875 C 289.699219 454.253906 287.871094 439.589844 284.757812 432.601562 C 288.8125 423.84375 283.046875 413.460938 273.351562 410.796875 Z M 388.511719 380.242188 C 383.316406 388.835938 377.703125 394.78125 368.78125 399.339844 C 358.464844 404.605469 346.019531 403.816406 336.085938 409.285156 C 338.632812 401.101562 340.367188 392.648438 341.730469 384.199219 C 342.4375 379.839844 342.992188 375.445312 343.390625 371.046875 C 343.703125 367.589844 342.933594 367.734375 345.933594 366.246094 C 347.847656 365.296875 350.535156 364.820312 352.570312 364.15625 C 370.398438 358.308594 387.570312 350.535156 404.589844 342.679688 C 400.765625 356.070312 395.675781 368.292969 388.511719 380.242188 Z M 452.753906 309.976562 C 450.242188 331.082031 446.617188 356.664062 433.140625 373.925781 C 430.851562 376.777344 430.402344 376.652344 426.597656 376.183594 C 422.511719 375.679688 418.417969 375.023438 414.292969 374.925781 C 407.257812 374.75 400.726562 377.164062 394.730469 380.691406 C 399.667969 372.261719 403.871094 363.574219 406.921875 354.277344 C 408.152344 350.515625 408.78125 343.101562 411.148438 339.925781 C 413.074219 337.328125 419.109375 335.714844 422.066406 334.125 C 432.796875 328.367188 444.085938 320.175781 452.753906 309.976562 Z M 316.632812 520.515625 C 316.625 520.515625 316.605469 520.535156 316.597656 520.535156 C 316.59375 520.539062 316.578125 520.546875 316.578125 520.546875 C 316.574219 520.554688 316.574219 520.554688 316.566406 520.554688 C 316.59375 520.539062 316.585938 520.546875 316.597656 520.539062 C 316.109375 520.894531 313.472656 522.699219 313.65625 522.316406 C 316.246094 516.808594 318.832031 511.292969 321.507812 505.824219 C 321.632812 508.460938 323.308594 512.390625 322.910156 514.777344 C 322.53125 517.082031 318.804688 518.824219 316.585938 520.546875 C 316.585938 520.539062 316.59375 520.539062 316.632812 520.515625 Z M 439.464844 423.125 C 438.769531 422.9375 434.636719 422.003906 432.699219 421.742188 C 433.554688 421.496094 434.414062 421.238281 435.277344 421.003906 C 454.417969 416.503906 473.980469 412.554688 494.023438 412.554688 C 497.332031 412.554688 505.136719 413.023438 508.765625 413.585938 C 514.039062 414.347656 519.261719 415.457031 524.460938 416.632812 C 509.671875 422.0625 494.8125 429.417969 482.820312 438.109375 C 476.222656 443.199219 477.5 442.292969 470.386719 437.214844 C 460.96875 430.492188 450.644531 425.996094 439.464844 423.125 Z M 387.871094 466.636719 C 387.839844 466.714844 387.820312 466.757812 387.824219 466.746094 C 387.738281 466.949219 387.65625 467.152344 387.570312 467.351562 C 387.085938 468.894531 385.679688 468.660156 384.046875 468.894531 C 380.011719 469.480469 371.746094 471.027344 367.921875 472.097656 C 356.121094 475.261719 344.6875 480.828125 333.875 486.878906 C 336.492188 483.695312 339.199219 480.589844 341.960938 477.527344 C 360.195312 457.289062 381.859375 442.222656 407 431.179688 C 406.457031 431.824219 405.242188 433.328125 405 433.640625 C 397.449219 443.460938 392.550781 455.253906 387.871094 466.636719 Z M 342.855469 509.382812 C 343.558594 508.253906 342.179688 510.707031 342 510.921875 C 340.121094 513.054688 342.28125 512.332031 338.828125 512.808594 C 335.328125 513.296875 331.9375 512.683594 328.390625 513.714844 C 327.445312 509.996094 326.804688 506.164062 327.179688 502.328125 C 328.449219 493.378906 337.507812 490.984375 344.707031 487.277344 C 352.285156 483.375 361.191406 479.796875 368.761719 477.636719 C 368.976562 477.578125 369.121094 477.546875 369.636719 477.390625 C 370.035156 477.265625 373.773438 476.40625 375.113281 476.125 C 366.375 482.492188 356.015625 491.53125 349.746094 499.480469 C 348.957031 500.464844 348.792969 500.667969 349.261719 500.09375 C 349.007812 500.40625 348.753906 500.726562 348.503906 501.046875 C 347.015625 502.894531 344.648438 506.390625 343.527344 508.277344 C 343.46875 508.363281 343.335938 508.589844 343.09375 508.996094 C 343.414062 508.449219 343.335938 508.578125 342.855469 509.382812 Z M 348.015625 515.417969 C 346.070312 512.917969 346.742188 515.128906 347.742188 512.0625 C 347.820312 511.800781 348.871094 510.171875 348.472656 510.835938 C 349.757812 508.832031 351.3125 506.40625 352.636719 504.78125 C 353.066406 504.230469 352.5 504.96875 353.164062 504.113281 C 352.820312 504.578125 353.753906 503.359375 354.214844 502.796875 C 356.460938 500.09375 359.566406 496.539062 362.097656 494.195312 C 365.765625 490.644531 370.132812 485.625 374.734375 483.328125 C 378.695312 481.34375 382.625 477.613281 386.730469 475.066406 C 388.027344 478.667969 390.789062 482.1875 392.523438 485.15625 C 396.71875 492.375 400.484375 499.789062 403.898438 507.402344 C 406.105469 512.324219 407.535156 516.011719 409.085938 519.429688 C 412.132812 526.027344 414.183594 533.011719 415.691406 540.105469 C 413.550781 539.40625 410.933594 538.179688 409.578125 537.050781 C 409.484375 536.972656 409.386719 536.902344 409.296875 536.828125 C 405.648438 534.0625 402.789062 529.121094 398.875 526.128906 C 394.476562 522.757812 388.828125 522.503906 383.480469 523.078125 C 378.636719 523.601562 374.230469 525.585938 369.480469 526.402344 C 365.527344 527.078125 362.53125 525.515625 359.128906 523.535156 C 356.804688 522.277344 351.996094 518.492188 349.746094 516.710938 C 350.808594 517.527344 346.273438 513.179688 348.015625 515.417969 Z M 461.714844 444.226562 C 454.671875 445.144531 442.148438 447.265625 433.285156 449.628906 C 419.902344 453.199219 407.324219 457.839844 395.050781 464.058594 C 399.101562 454.953125 402.898438 445.621094 408.964844 437.621094 C 409.261719 437.230469 409.5625 436.835938 409.855469 436.453125 C 411.3125 434.457031 415.722656 428.503906 419.214844 427.035156 C 422.960938 425.460938 429.664062 426.839844 433.5 427.511719 C 446.566406 429.796875 458.808594 435.453125 469.367188 443.410156 C 466.816406 443.644531 464.273438 443.898438 461.726562 444.226562 C 462.195312 444.171875 461.929688 444.207031 461.714844 444.226562 Z M 487.066406 365.90625 C 487.464844 365.675781 487.863281 365.449219 488.269531 365.214844 C 497.679688 359.351562 509.871094 350.921875 515.507812 339.527344 C 517.015625 349.125 517.601562 359.125 515.617188 368.691406 C 506.710938 365.703125 496.378906 364.71875 487.066406 365.90625 Z M 504.660156 371.84375 C 514.507812 373.246094 523.632812 377.816406 533.0625 380.796875 C 534.125 381.136719 536.566406 382.148438 538.976562 382.714844 C 536.246094 388.144531 536.332031 392.25 538.191406 398.707031 C 539.726562 404.011719 536.777344 408.410156 536.183594 413.644531 C 522.667969 409.800781 507.847656 406.988281 493.632812 406.988281 C 461.335938 406.988281 426.160156 415.269531 396.191406 430.035156 C 365.96875 444.929688 336.511719 468.421875 319.71875 497.203125 C 315.097656 504.996094 311.425781 513.589844 307.738281 521.859375 C 306.398438 524.855469 306.726562 524.527344 303.683594 524.582031 C 301.960938 524.613281 300.171875 524.058594 298.496094 523.730469 C 293.371094 522.734375 288.386719 521.664062 283.210938 523.125 C 278.351562 524.503906 274.015625 527.765625 270.921875 531.675781 C 268.089844 535.238281 266.277344 540.8125 262.191406 543.140625 C 256.414062 546.4375 247.976562 543.109375 241.476562 545.855469 C 252.042969 536.492188 266.402344 531.066406 275.53125 520.15625 C 283.871094 510.191406 285.226562 497.144531 288.496094 485.320312 C 288.511719 485.285156 288.570312 485.085938 288.6875 484.652344 C 288.714844 484.5625 290.699219 479.320312 290.761719 479.21875 C 294.339844 473.304688 300.539062 468.691406 305.640625 463.84375 C 312.613281 457.210938 318.480469 450.28125 322.269531 441.367188 C 321.976562 442.085938 322.617188 440.582031 322.734375 440.308594 C 324.699219 435.734375 326.492188 431.082031 328.691406 426.609375 C 332.320312 419.222656 336.214844 414.269531 344.054688 412.261719 C 354.425781 409.445312 365.921875 407.882812 375.707031 401.832031 C 381.730469 398.113281 386.96875 392.707031 392.570312 388.792969 C 397.113281 385.398438 402.359375 382.359375 407.925781 381.058594 C 415.125 379.375 423.019531 381.429688 430.21875 382.238281 C 444.125 383.792969 458.308594 381.777344 470.15625 377.117188 C 470.671875 376.902344 470.785156 376.863281 470.492188 376.988281 C 480.789062 372.746094 493.203125 369.964844 504.660156 371.84375 Z M 253.980469 407.300781 C 251.527344 407.816406 249.238281 408.992188 247.214844 410.550781 C 247.300781 410.183594 247.378906 409.871094 247.457031 409.65625 C 251.207031 398.5625 257.675781 388.714844 265.441406 380.015625 C 280.234375 363.445312 302.113281 350.484375 321.3125 342.882812 C 348.558594 331.820312 377.457031 325.40625 404.246094 313.140625 C 429.414062 301.617188 452.386719 284.746094 469.386719 263.152344 C 471.90625 260.039062 474.667969 256.265625 477.140625 252.820312 C 477.074219 278.3125 482.695312 303.535156 479.027344 329.007812 C 477.453125 339.957031 474.773438 350.921875 470.113281 360.996094 C 468.121094 365.292969 465.878906 368.925781 462.640625 372.351562 C 460.753906 374.355469 460.089844 374.90625 457.347656 375.578125 C 455.613281 376.007812 451.800781 376.710938 451.246094 376.777344 C 447.585938 377.246094 443.988281 377.382812 440.300781 377.382812 C 441.332031 377.382812 437.574219 377.246094 437.605469 377.246094 C 447.9375 364.167969 452.382812 345.960938 455.382812 329.894531 C 456.980469 321.363281 458.117188 312.757812 459.023438 304.128906 C 459.296875 301.539062 459.519531 297.230469 455.507812 298.398438 C 453.886719 298.871094 452.40625 301.636719 451.667969 302.542969 C 449.425781 305.390625 445.875 309.695312 442.730469 312.78125 C 442.671875 312.835938 442.46875 313.03125 442.097656 313.394531 C 437.984375 317.488281 430.257812 323.355469 424.59375 326.363281 C 423.582031 326.917969 423.097656 327.199219 421.984375 327.839844 C 405 337.679688 383.296875 346.730469 363.835938 354.21875 C 341.925781 362.648438 319.054688 367.257812 298.644531 379.355469 C 289.632812 384.695312 280.789062 390.964844 274.003906 399.03125 C 272.328125 401.027344 268.71875 405.148438 267.09375 408.898438 C 262.695312 407.566406 258.035156 406.425781 253.980469 407.300781 Z M 240.519531 403.875 C 240.980469 399.398438 242.722656 395.351562 242.398438 390.808594 C 242.050781 385.980469 238.371094 381.105469 242.464844 377.449219 C 245.398438 374.828125 249.558594 375.34375 252.546875 373.070312 C 255.710938 370.675781 255.710938 366.257812 255.789062 362.640625 C 255.816406 361.332031 255.820312 360.019531 255.820312 358.707031 C 263.054688 356.480469 273.878906 350.085938 275.972656 349.027344 C 296.714844 338.59375 316.058594 325.777344 326.625 303.710938 C 331.085938 294.390625 335.949219 283.121094 336.257812 272.757812 C 336.589844 261.441406 329.300781 251.796875 319.667969 246.523438 C 310.378906 241.441406 298.417969 239.917969 289.542969 246.621094 C 281.058594 253.023438 277.167969 264.613281 280.492188 274.78125 C 284.300781 286.457031 298.078125 293.578125 309.863281 290.152344 C 321.441406 286.789062 326.734375 275.035156 321.507812 264.605469 C 318.09375 257.511719 307.117188 251.496094 298.585938 256.757812 C 294.128906 259.503906 292.699219 264.390625 293.882812 269.359375 C 294.625 272.476562 297.992188 279.832031 302.359375 278.539062 C 307.574219 277.007812 302.074219 273.457031 300.804688 271.761719 C 299.214844 269.625 298.203125 265.636719 299.714844 263.191406 C 303.878906 256.460938 314.027344 262.09375 316.554688 267.140625 C 324.542969 283.546875 301.042969 289.972656 290.554688 280.320312 C 278.546875 269.265625 287.238281 247.527344 303.476562 247.640625 C 322.199219 247.761719 335.65625 265.566406 328.261719 282.945312 C 321.390625 299.097656 304.675781 302.582031 289.039062 299.351562 C 287.230469 298.863281 285.03125 298.386719 283.460938 297.726562 C 274.765625 294.589844 266.726562 290.183594 259.058594 284.988281 C 254.425781 281.921875 247.457031 276.035156 243.414062 270.597656 C 252.527344 270.199219 260.558594 266.800781 266.871094 260.214844 C 272.289062 254.570312 274.113281 246.457031 279.832031 241.132812 C 284.054688 236.386719 291.246094 236.34375 295.304688 230.757812 C 300.238281 223.957031 300.472656 216.445312 303.148438 208.835938 C 305.53125 202.074219 311.507812 199.011719 314.695312 192.917969 C 318.386719 185.84375 315.726562 176.140625 315.222656 169.882812 C 314.433594 161.5 318.210938 155.941406 322.074219 148.875 C 327.636719 168.199219 332.746094 189.785156 335.753906 208.464844 C 337.050781 215.753906 338.371094 227.988281 338.652344 235.382812 C 339.820312 260.664062 338.042969 285.902344 330.265625 310.140625 C 328.5625 315.453125 326.558594 320.699219 324.3125 325.800781 C 322.742188 329.367188 320.9375 335.617188 318.027344 338.253906 C 316.273438 339.832031 312.5 340.695312 310.359375 341.707031 C 307.566406 343.03125 304.78125 344.375 302.039062 345.8125 C 297.375 348.246094 292.8125 350.863281 288.378906 353.707031 C 269.714844 365.691406 252.433594 382.175781 243.949219 403.078125 C 243.226562 404.859375 241.105469 409.285156 240.257812 413.070312 C 240.152344 410.277344 240.238281 406.589844 240.519531 403.875 Z M 265.761719 315.417969 C 265.910156 314.804688 266.027344 314.207031 266.121094 313.597656 C 268.402344 314.707031 271.027344 315.484375 272.664062 316.007812 C 277.800781 317.597656 283.859375 318.964844 289.730469 319.09375 C 282.207031 323.761719 273.976562 328.132812 266.003906 330.886719 C 264.789062 331.296875 261.492188 331.8125 258.796875 332.804688 C 260.957031 326.957031 264.292969 321.476562 265.761719 315.417969 Z M 288.960938 299.339844 C 288.816406 299.304688 288.21875 299.1875 289.019531 299.34375 C 289 299.34375 288.980469 299.339844 288.960938 299.339844 Z M 256.878906 290.875 C 255.664062 289.640625 254.300781 288.53125 252.90625 287.457031 C 254.847656 288.851562 256.789062 290.175781 258.628906 291.429688 C 263.757812 295.039062 272.183594 299.757812 278.917969 301.996094 C 281.429688 302.910156 284.367188 304.070312 287.53125 304.714844 C 288.386719 304.90625 289.242188 305.089844 290.089844 305.277344 C 300.960938 307.835938 313.5 306.238281 322.570312 299.105469 C 316.976562 311.804688 308.578125 322.65625 297.144531 330.179688 C 297.039062 330.253906 296.9375 330.324219 296.832031 330.398438 C 297.300781 330.070312 295.566406 331.246094 296.015625 330.945312 C 295.910156 331.015625 295.808594 331.089844 295.703125 331.160156 C 288.042969 336.425781 279.046875 341.269531 270.570312 345.511719 C 268.964844 346.3125 261.5 348.988281 255.855469 351.957031 C 255.925781 347.585938 256.195312 343.246094 257.070312 338.953125 C 258.679688 339.1875 260.769531 338.351562 262.152344 337.949219 C 272.050781 335.054688 281.292969 330.675781 290.117188 325.371094 C 292.902344 323.695312 299.097656 321.195312 300.832031 318.152344 C 303.167969 314.050781 299.167969 313.34375 295.789062 313.382812 C 288.339844 313.476562 281.3125 313.070312 274.433594 310.734375 C 271.855469 309.910156 269 308.066406 266.324219 306.855469 C 266.21875 306.804688 266.113281 306.746094 266.007812 306.695312 C 264.914062 300.742188 261.335938 295.402344 256.878906 290.875 Z M 234.160156 249.34375 C 234.234375 249.0625 234.273438 248.808594 234.332031 248.539062 C 234.710938 248.675781 235.09375 248.773438 235.488281 248.8125 C 243.449219 249.625 250.648438 241.757812 254.105469 235.625 C 255.9375 232.367188 257.347656 228.21875 260.34375 225.804688 C 263.242188 223.460938 267.210938 222.953125 270.066406 220.503906 C 276.058594 215.382812 274.792969 206.980469 277.515625 200.371094 C 280.53125 193.046875 288.660156 192.03125 290.039062 183.351562 C 291.292969 175.421875 286.59375 167.191406 288.929688 159.582031 C 291.441406 151.386719 298.425781 146.609375 296.949219 137.171875 C 296.238281 132.628906 294.117188 127.519531 291.292969 123.859375 C 290.324219 122.605469 289.132812 121.902344 288.085938 121.738281 C 290.996094 114.257812 294.261719 106.492188 301.101562 104.671875 C 303.644531 103.992188 306.351562 104.390625 309.09375 105.023438 C 309.210938 105.480469 309.382812 105.964844 309.636719 106.480469 C 314.53125 116.359375 320.109375 125.804688 319.332031 137.265625 C 318.542969 148.898438 308.128906 157.359375 309.5625 169.175781 C 309.683594 170.277344 309.714844 170.597656 309.664062 170.136719 C 310.113281 174.640625 311.195312 181.308594 311.066406 184.585938 C 310.835938 190.84375 306.863281 193.484375 303.023438 197.832031 C 299.019531 202.382812 297.496094 207.949219 296.246094 213.722656 C 295.058594 219.226562 293.253906 226.109375 288.714844 229.933594 C 285.125 232.949219 279.40625 233.855469 276.234375 236.882812 C 276.144531 236.96875 276.058594 237.046875 275.972656 237.125 C 276.679688 236.511719 272.574219 240.886719 273.390625 239.867188 C 270.324219 243.503906 268.421875 248.957031 266.085938 252.351562 C 266.023438 252.449219 265.957031 252.546875 265.890625 252.652344 C 266.144531 252.234375 264.078125 255.015625 264.597656 254.492188 C 259.503906 260.367188 253.082031 264.230469 245.183594 264.90625 C 244.898438 264.945312 241.253906 264.503906 239.121094 264.921875 C 236.316406 259.492188 232.960938 253.773438 234.160156 249.34375 Z M 225.535156 225.726562 C 225.136719 224.476562 224.882812 223.257812 224.671875 222.050781 C 229.925781 220.796875 239.714844 211.503906 240.863281 210.285156 C 247 203.777344 251.535156 195.777344 255.371094 187.757812 C 257.800781 182.613281 260.296875 173.835938 261.46875 167.480469 C 263.449219 157.292969 262.972656 145.863281 259.863281 135.03125 C 267.222656 140.214844 275.824219 142.550781 282.519531 133.597656 C 283.902344 131.734375 285.058594 129.289062 286.167969 126.605469 C 287.644531 130.503906 290.65625 133.511719 291.382812 137.96875 C 291.984375 141.683594 291.09375 144.714844 289.171875 147.601562 C 289.105469 147.699219 289.039062 147.804688 288.972656 147.90625 C 286.554688 151.863281 283.277344 156.46875 282.75 161.683594 C 282.273438 166.371094 284.355469 173.113281 284.628906 176.480469 C 284.953125 179.984375 284.992188 184.257812 282.769531 187.15625 C 281.183594 189.21875 278.292969 190.378906 276.410156 192.226562 C 274.0625 194.542969 272.546875 197.285156 271.640625 200.4375 C 270.304688 205.070312 270.578125 211.238281 267.472656 215.230469 C 264.90625 218.527344 259.90625 218.917969 256.75 221.527344 C 250.347656 226.878906 249.550781 236.238281 242.253906 240.832031 C 240.101562 242.191406 236.765625 242.183594 234.476562 243.039062 C 233.292969 236.695312 227.660156 232.445312 225.535156 225.726562 Z M 216.359375 206.007812 C 219.53125 204.15625 222.566406 201.644531 224.191406 200.214844 C 225.457031 199.105469 226.648438 197.929688 227.773438 196.675781 C 229.933594 194.261719 229.128906 193.597656 231.996094 194.796875 C 235.25 196.160156 238.3125 199.136719 241.191406 201.140625 C 238.363281 205.136719 234.917969 208.75 231.128906 211.832031 C 229.941406 212.796875 226.195312 214.609375 223.707031 216.523438 C 223.269531 214.667969 222.605469 212.828125 221.351562 210.988281 C 219.96875 208.960938 218.304688 207.28125 216.359375 206.007812 Z M 201.441406 202.636719 C 198.632812 200.507812 199.304688 195.796875 195.207031 194.074219 C 185.824219 190.132812 182.476562 205.050781 180.328125 210.976562 C 179.0625 206.84375 178.984375 202.308594 180.792969 198.316406 C 182.597656 194.335938 186.339844 191.777344 188.921875 188.351562 C 188.976562 188.351562 189.019531 188.355469 189.078125 188.355469 C 193.425781 188.234375 199.019531 182.574219 201.746094 179.664062 C 208.28125 172.714844 212.332031 163.082031 212.914062 153.554688 C 213.570312 142.835938 210.132812 132.152344 202.941406 124.042969 C 201.820312 122.78125 199.3125 120.144531 196.976562 119.453125 C 196.355469 115.667969 195.167969 111.949219 194.746094 108.117188 C 194.273438 103.824219 192.851562 95.972656 195.058594 91.980469 C 199.359375 93.929688 201.199219 100.933594 203.214844 104.691406 C 206.40625 110.609375 210.160156 116.179688 216.953125 118.175781 C 220.195312 119.121094 223.621094 119.371094 227.054688 119.371094 C 227.460938 119.867188 227.859375 120.277344 228.074219 120.519531 C 244.542969 139.15625 240.558594 172.308594 224.867188 191.46875 C 220.109375 197.277344 215.035156 199.289062 208.695312 202.667969 C 208.398438 202.832031 207.972656 203.164062 207.5625 203.59375 C 205.171875 203.582031 202.726562 203.613281 201.441406 202.636719 Z M 188.265625 156.671875 C 190.203125 151.667969 193.144531 148.066406 193.980469 142.53125 C 194.390625 139.769531 194.203125 136.90625 194.824219 134.175781 C 195.46875 131.378906 196.800781 128.957031 197.210938 126.089844 C 197.222656 126.105469 197.242188 126.117188 197.257812 126.128906 C 211.152344 138.269531 210.121094 162.402344 198.242188 175.273438 C 198.183594 175.332031 198.152344 175.363281 198.113281 175.410156 C 196.230469 177.359375 194.089844 179.410156 191.703125 180.976562 C 192.152344 172.6875 184.941406 165.265625 188.265625 156.671875 Z M 250.035156 126.058594 C 250.066406 126.097656 250.105469 126.136719 250.144531 126.175781 C 250.933594 127.558594 251.761719 128.910156 252.246094 130.050781 C 253.695312 133.484375 254.902344 136.929688 255.820312 140.539062 C 252.558594 140.753906 249.316406 140.9375 246.046875 141.023438 C 241.476562 141.132812 242.449219 138.457031 241.164062 134.457031 C 239.453125 129.132812 236.835938 123.605469 233.925781 119.140625 C 234.417969 119.113281 234.914062 119.09375 235.394531 119.070312 C 242.699219 118.753906 245.039062 120.492188 250.035156 126.058594 Z M 254.085938 174.78125 C 253.347656 177.515625 252.292969 183.566406 250.214844 185.636719 C 248.628906 188.90625 246.410156 192.976562 244.226562 196.480469 C 242.992188 195.515625 241.71875 194.59375 240.414062 193.726562 C 239.355469 193.015625 233.652344 190.191406 233.429688 189.066406 C 233.242188 188.121094 236.160156 184.546875 236.597656 183.734375 C 238.757812 179.691406 240.503906 175.46875 241.871094 171.089844 C 243.273438 171.550781 244.746094 172.0625 246.027344 172.453125 C 247.019531 172.648438 252.152344 174.285156 254.085938 174.78125 Z M 247.734375 167.160156 C 247.636719 167.132812 247.546875 167.101562 247.449219 167.070312 C 243.488281 165.796875 243.148438 166.625 243.808594 162.375 C 244.636719 157.121094 244.542969 151.835938 243.886719 146.570312 C 246.496094 146.640625 249.101562 146.550781 251.703125 146.398438 C 252.703125 146.335938 254.882812 145.761719 255.796875 146.125 C 257.453125 146.792969 257.070312 148.058594 257.167969 150.296875 C 257.394531 155.425781 256.789062 162.539062 256.019531 166.351562 C 255.855469 167.363281 255.652344 168.359375 255.402344 169.359375 C 252.917969 168.726562 249.96875 167.746094 247.734375 167.160156 Z M 354.855469 313.1875 C 356.375 311.941406 361.628906 312.398438 363.789062 311.972656 C 368.140625 311.125 372.441406 309.722656 376.621094 308.234375 C 386.246094 304.796875 396.300781 300.195312 405.792969 293.453125 C 414.667969 287.15625 427.589844 277.214844 429.859375 265.816406 C 432.230469 253.925781 422.863281 237.433594 409.0625 240.1875 C 397.503906 242.496094 392.09375 257.90625 398.5 267.5 C 401.589844 272.117188 407.1875 273.484375 412.214844 271.269531 C 414.019531 270.472656 417.695312 268.535156 417.148438 265.984375 C 416.363281 262.289062 413.082031 264.410156 411.144531 265.421875 C 403.140625 269.574219 400.066406 260.523438 402.105469 253.578125 C 405.261719 242.796875 417.414062 243.976562 422.277344 252.71875 C 429.613281 265.875 418.378906 277.261719 405.125 277.90625 C 391.296875 278.585938 384.300781 266.230469 383.046875 254.511719 C 382.628906 250.933594 382.394531 247.261719 382.394531 243.761719 C 382.6875 232.558594 384.757812 221.203125 383.765625 210.003906 C 408.128906 231.710938 435.375 246.433594 464.90625 259.84375 C 460.347656 265.535156 455.34375 270.851562 450.15625 275.96875 C 421.527344 302.359375 387.042969 314.949219 350.507812 326.515625 C 351.714844 323.027344 352.546875 315.074219 354.855469 313.1875 Z M 350.789062 303.765625 C 349.417969 310.570312 347.246094 321.078125 343.726562 328.492188 C 343.140625 329.605469 337.808594 330.695312 336.804688 331.050781 C 333.226562 332.289062 329.671875 333.59375 326.140625 334.957031 C 355.644531 276.203125 344.976562 209.160156 327.929688 149.042969 C 332.253906 154.746094 336.933594 160.507812 341.582031 166.109375 C 346.039062 171.488281 351.59375 176.027344 352.824219 182.738281 C 355.160156 195.4375 356.871094 210.910156 357.375 222.90625 C 358.601562 250.085938 356.226562 277.109375 350.789062 303.765625 Z M 363.050781 225.332031 C 362.433594 212.066406 361.105469 198.902344 358.964844 185.792969 C 361.609375 188.578125 364.34375 191.417969 367.007812 194.078125 C 367.574219 194.648438 369.527344 196.597656 369.289062 196.378906 C 373.550781 200.683594 377.234375 203.09375 378.082031 209.304688 C 379.058594 216.476562 378.035156 223.832031 377.449219 230.996094 C 376.75 239.546875 376.464844 246.632812 377.539062 255.347656 C 378.996094 271.851562 391.9375 286.925781 410.25 282.828125 C 401.171875 290.785156 390.460938 296.78125 379.574219 301.167969 C 379.320312 301.265625 378.882812 301.433594 378.742188 301.492188 C 371.847656 304.488281 363.515625 306.519531 355.636719 307.503906 C 355.886719 306.386719 356.726562 302.570312 356.695312 302.738281 C 362.113281 277.523438 364.277344 251.09375 363.050781 225.332031 Z M 319.554688 106.824219 C 322.421875 106.65625 325.273438 106.054688 328.019531 105.128906 C 327.941406 109.167969 329.46875 114.945312 329.738281 116.140625 C 331.21875 122.761719 333.703125 129.640625 336.511719 135.480469 C 341.273438 145.90625 347.761719 155.699219 355.300781 164.328125 C 357.679688 167.054688 362.375 173.59375 366.53125 173.195312 C 371.632812 172.707031 371.429688 160.589844 372.566406 156.757812 C 401.074219 190.804688 436.25 225.390625 478.191406 241.960938 C 474.21875 244.683594 471.203125 251.582031 468.277344 255.457031 C 465.28125 252.515625 458.109375 250.792969 454.3125 249.035156 C 450.0625 247.078125 445.84375 245.054688 441.671875 242.921875 C 433.714844 238.847656 425.96875 234.417969 418.433594 229.621094 C 403.0625 219.851562 387.996094 207.582031 375.652344 194.851562 C 374.160156 193.34375 372.640625 191.855469 371.136719 190.347656 C 358.765625 177.96875 343.96875 160.972656 333.371094 147 C 330.867188 143.757812 327.355469 139.984375 325.683594 136.285156 C 323.707031 131.914062 324.046875 125.359375 322.34375 120.347656 C 320.835938 115.917969 318.890625 110.917969 316.382812 106.65625 C 317.453125 106.804688 318.519531 106.886719 319.554688 106.824219 Z M 339.140625 99.136719 C 340.582031 98.003906 341.953125 96.671875 343.246094 95.242188 C 343.785156 98.074219 344.621094 100.789062 344.988281 102.171875 C 347.089844 110.207031 351.421875 117.941406 354.738281 125.15625 C 355.351562 126.449219 357.261719 133.53125 359.738281 134.914062 C 364.792969 137.753906 366.300781 128.609375 367.378906 125.730469 C 379.910156 91.648438 425.3125 75.03125 429.753906 36.875 C 430.480469 29.550781 429.761719 22.3125 427.425781 15.332031 C 426.902344 13.789062 426.355469 11.160156 425.113281 9.683594 C 430.472656 5.125 435.210938 9.757812 439.792969 14.03125 C 439.796875 14.292969 439.816406 14.558594 439.859375 14.839844 C 440.621094 20.21875 442.238281 25.261719 442.46875 30.765625 C 443.34375 51.628906 431.171875 70.800781 417.96875 85.113281 C 417.996094 85.085938 418 85.082031 418.039062 85.042969 C 417.996094 85.09375 417.941406 85.148438 417.898438 85.199219 C 417.890625 85.207031 417.890625 85.207031 417.890625 85.207031 C 417.878906 85.226562 417.859375 85.238281 417.839844 85.265625 C 406.710938 97.714844 392.746094 109.203125 383.785156 122.105469 C 374.597656 135.011719 366.8125 150.226562 364.839844 166.15625 C 362.515625 164.175781 360.117188 161.597656 358.425781 159.433594 C 358.347656 159.347656 358.269531 159.257812 358.195312 159.164062 C 358.222656 159.199219 358.214844 159.191406 358.242188 159.21875 C 351.886719 151.5625 346.148438 142.335938 341.699219 133.433594 C 339.820312 129.445312 337.992188 124.96875 336.652344 120.636719 C 335.589844 117.175781 334.828125 113.632812 334.207031 110.070312 C 333.914062 108.40625 334.089844 105.039062 333.117188 102.96875 C 335.25 101.878906 337.28125 100.601562 339.140625 99.136719 Z M 352.898438 79.410156 C 354.769531 77.523438 357.921875 76.773438 360.101562 75.246094 C 365.664062 71.363281 368.34375 64.882812 370.894531 58.847656 C 372.761719 54.421875 374.523438 46.054688 378.871094 43.414062 C 379.628906 42.957031 380.464844 42.714844 381.339844 42.621094 C 381.179688 42.882812 381.03125 43.15625 380.886719 43.453125 C 376.175781 52.984375 373.082031 63.199219 370.066406 73.4375 C 369.648438 74.863281 369.289062 78.824219 368.1875 79.933594 C 367.097656 81.035156 363.136719 82.113281 361.578125 83.011719 C 356.90625 85.707031 352.316406 88.8125 348.820312 92.992188 C 348.679688 91.902344 348.761719 89.84375 348.464844 88.160156 C 349.113281 87.097656 349.726562 86.035156 350.265625 84.976562 C 351.136719 83.285156 351.578125 80.726562 352.898438 79.410156 Z M 359.652344 122.539062 C 357.753906 118.449219 355.613281 114.46875 353.796875 110.34375 C 353 108.535156 349.4375 101.859375 350.621094 99.890625 C 354.234375 93.9375 360.273438 90.054688 366.25 86.804688 C 363.007812 98.40625 359.914062 110.421875 359.652344 122.539062 Z M 368.4375 100.507812 C 368.808594 98.917969 368.917969 98.421875 368.777344 99.035156 C 368.800781 98.917969 368.828125 98.800781 368.855469 98.679688 C 370.378906 91.90625 372.601562 84.636719 374.597656 77.753906 C 376.664062 70.621094 380.503906 62.957031 381.710938 55.71875 C 382.09375 53.429688 384.570312 48.679688 385.957031 45.859375 C 386.507812 46.578125 387.6875 48.195312 388.035156 48.78125 C 388.097656 48.882812 388.164062 48.980469 388.230469 49.082031 C 389.148438 50.421875 390.671875 53.234375 391.402344 55.0625 C 391.445312 55.171875 391.5 55.28125 391.558594 55.386719 C 393.542969 59.363281 395.78125 65.628906 397.628906 70.496094 C 398.566406 72.96875 400.285156 75.847656 399.296875 78 C 398.15625 80.507812 393.828125 83.402344 391.84375 85.265625 C 382.140625 94.363281 371.757812 102.917969 365.820312 115.09375 C 366.453125 110.195312 367.371094 105.332031 368.4375 100.507812 Z M 415.195312 43.398438 C 420.59375 39.484375 421.664062 33.089844 422.464844 26.84375 C 422.746094 24.65625 422.492188 21.472656 422.539062 18.378906 C 424.226562 23.953125 424.945312 29.898438 424.3125 35.390625 C 424.234375 36.160156 424.285156 35.71875 424.324219 35.332031 C 424.292969 35.621094 424.246094 36.082031 424.167969 36.832031 C 423.882812 40.460938 421.820312 48.246094 419.769531 52.019531 C 419.40625 52.707031 419.03125 53.390625 418.675781 54.070312 C 415.527344 60.203125 409.609375 67.1875 404.425781 72.707031 C 401.105469 63.765625 398.039062 54.132812 392.835938 45.996094 C 393.292969 46.179688 393.738281 46.355469 394.140625 46.5 C 401.375 48.964844 408.890625 47.988281 415.195312 43.398438 Z M 460.347656 24.890625 C 465.425781 28.101562 472.390625 28.90625 476.417969 33.464844 C 480.1875 37.726562 481.15625 44 485.722656 47.59375 C 488.136719 49.496094 491.046875 50.109375 494.089844 49.984375 C 498.128906 49.8125 500.648438 47.316406 504.355469 46.53125 C 505.730469 46.238281 509.589844 45.976562 510.046875 48.117188 C 510.246094 49.078125 506.875 52.816406 506.285156 53.625 C 504.101562 56.660156 501.542969 59.960938 500.472656 63.625 C 498.90625 68.960938 501.339844 74.933594 506.625 77.015625 C 510.484375 78.535156 523.953125 77.824219 525.589844 82.523438 C 526.445312 84.964844 518.339844 91.855469 515.644531 93.644531 C 511.605469 96.324219 502.121094 97.703125 501.546875 103.492188 C 500.824219 110.820312 511.644531 109.429688 516.035156 110.265625 C 522.59375 111.519531 527.933594 117.359375 533.527344 120.777344 C 537.476562 123.195312 548.871094 127.460938 550.109375 132.238281 C 551.070312 135.957031 545.351562 136.355469 543.003906 137.84375 C 536.207031 142.125 539.164062 147.6875 542.472656 153.117188 C 543.804688 155.296875 545.332031 157.875 546.136719 160.484375 C 544.730469 158.90625 543.335938 157.488281 542.433594 156.496094 C 537.800781 151.320312 529.507812 145.035156 521.714844 142.445312 C 514.6875 140.117188 502.527344 138.476562 497.128906 145.074219 C 491.453125 152.019531 495.5625 163.929688 501.699219 169.1875 C 509.472656 175.851562 517.511719 172.339844 522.417969 164.453125 C 522.289062 174.554688 510.984375 181.550781 502.933594 180.878906 C 501.671875 180.792969 500.375 181.25 498.8125 180.464844 C 493.070312 179.414062 486.34375 176.738281 482.085938 172.773438 C 473.382812 165.300781 468.285156 152.855469 471.515625 141.511719 C 474.539062 130.945312 485.578125 124.820312 495.851562 123.828125 C 498.304688 123.570312 502.207031 125.066406 503.675781 122.226562 C 505.171875 119.332031 500.628906 114.957031 498.992188 113.1875 C 493.855469 107.621094 487.308594 102.785156 479.980469 100.652344 C 473.101562 98.648438 464.625 99.210938 459.382812 104.660156 C 454.378906 109.875 454.808594 118.082031 457 124.480469 C 439.101562 113.613281 443.054688 87.019531 452.878906 72.445312 C 455.730469 68.230469 459.167969 64.101562 462.964844 60.707031 C 465.367188 58.550781 472.773438 55.707031 473.113281 52.417969 C 474.210938 41.820312 449.429688 49.382812 445.390625 51.21875 C 448.210938 42.085938 449.628906 29.394531 447.179688 19.136719 C 449.195312 19.617188 451.5 19.273438 453.414062 19.96875 C 455.800781 20.832031 458.207031 23.539062 460.347656 24.890625 Z M 482.675781 243.660156 C 483.355469 243.90625 486.898438 245.082031 487.035156 245.128906 C 488.347656 245.523438 491.511719 245.839844 492.457031 246.574219 C 493.957031 247.75 493.476562 248.507812 493.632812 251 C 493.859375 254.746094 494.460938 258.453125 495.386719 262.089844 C 495.328125 261.859375 496.992188 267.164062 496.933594 267.042969 C 497.699219 268.902344 498.527344 270.710938 499.546875 272.453125 C 495.335938 269.898438 491.199219 267.230469 487.210938 264.351562 C 485.519531 263.09375 483.378906 261.710938 482.78125 259.105469 C 481.652344 254.160156 483.914062 248.59375 482.675781 243.660156 Z M 494.800781 233.085938 C 494.3125 235.75 493.953125 238.429688 493.738281 241.132812 C 489.382812 240.226562 485.1875 238.6875 481.050781 237.085938 C 485.734375 236.074219 490.296875 234.71875 494.800781 233.085938 Z M 459.304688 207.53125 C 459.023438 206.839844 458.757812 206.148438 458.503906 205.449219 C 470.152344 211.707031 483.972656 218.039062 498.117188 220.046875 C 497.445312 222.097656 496.875 224.179688 496.316406 226.261719 C 496.035156 227.246094 490.664062 228.675781 488.351562 229.398438 C 484.371094 230.652344 480.3125 231.703125 476.175781 232.285156 C 470.71875 232.800781 470.085938 229.914062 467.515625 225.191406 C 464.46875 219.578125 461.511719 213.121094 459.304688 207.53125 Z M 445.71875 201.667969 C 449.886719 201.140625 450.46875 200.203125 452.144531 204.371094 C 452.425781 205.058594 453.949219 209.121094 453.929688 209.078125 C 456.609375 215.71875 459.59375 222.304688 463.050781 228.582031 C 462.191406 228.125 461.339844 227.648438 460.492188 227.167969 C 447.765625 219.78125 435.894531 211.121094 424.710938 201.570312 C 431.394531 202.464844 439.5625 202.570312 445.71875 201.667969 Z M 443.0625 196.324219 C 435.320312 196.886719 425.851562 197.507812 418.464844 194.628906 C 415.058594 193.179688 413.65625 187.332031 412.558594 184.21875 C 410.667969 178.859375 409.679688 173.171875 408.753906 167.578125 C 419.148438 178.59375 430.289062 188.179688 443.0625 196.324219 Z M 539.753906 161.828125 C 539.765625 161.839844 539.777344 161.855469 539.785156 161.867188 C 539.792969 161.875 539.796875 161.878906 539.804688 161.886719 C 539.792969 161.867188 539.773438 161.855469 539.753906 161.828125 Z M 421.792969 89.1875 C 422.289062 88.644531 422.464844 88.441406 422.914062 87.960938 C 425.390625 85.34375 429.617188 80.070312 432.398438 76.167969 C 435.949219 71.167969 438.277344 65.328125 441.757812 60.378906 C 445.902344 54.488281 457.347656 52.496094 464.332031 52.613281 C 450.730469 61.59375 440.628906 78.125 439.054688 94.308594 C 437.816406 107.023438 444.054688 128.21875 458.75 131.378906 C 461.308594 131.933594 465.023438 131.671875 465.113281 128.230469 C 465.160156 126.359375 463.691406 125.765625 462.921875 124.25 C 460.804688 120.085938 459.75 113.070312 462.847656 109.109375 C 471.691406 97.808594 489.714844 110.703125 496.015625 118.246094 C 479.386719 119.25 464.03125 132.238281 464.957031 149.8125 C 466.015625 169.855469 482.722656 185.199219 502.410156 186.417969 C 510.371094 187.050781 520.296875 182.527344 525.011719 174.488281 C 527.410156 170.382812 528.984375 164.902344 527.371094 160.234375 C 525.988281 156.230469 521.265625 153.414062 519.757812 157.722656 C 518.90625 160.175781 516.152344 164.105469 515.140625 165.007812 C 506.253906 172.980469 494.886719 154.433594 501.972656 148.042969 C 506.421875 144.039062 516.492188 146.359375 521.316406 148.253906 C 528.539062 151.078125 534.578125 156.148438 539.738281 161.816406 C 541.574219 164.015625 543.320312 166.179688 544.75 168.667969 C 536.59375 171.507812 529.191406 176.382812 522.59375 181.863281 C 519.1875 184.695312 516.128906 187.867188 513.320312 191.292969 C 511.625 193.375 509.589844 197.207031 507.886719 197.070312 C 502.285156 196.664062 496.832031 195.222656 491.480469 193.605469 C 491.511719 193.609375 491.550781 193.625 491.589844 193.644531 C 491.511719 193.617188 491.441406 193.589844 491.367188 193.570312 C 473.820312 188.179688 456.464844 177.796875 442.246094 165.417969 C 433.050781 157.410156 425.011719 148.421875 417.78125 138.609375 C 414.355469 133.957031 411.097656 129.179688 407.984375 124.308594 C 407.410156 123.414062 399.585938 111.34375 399.730469 111.1875 C 399.730469 111.207031 399.722656 111.21875 399.710938 111.210938 C 400.125 110.753906 400.542969 110.296875 400.960938 109.839844 C 406.359375 103.765625 416.574219 95.386719 421.792969 89.1875 Z M 405 155.066406 C 401.035156 150.394531 397.289062 145.53125 393.640625 140.613281 C 391.8125 138.15625 388.367188 130.769531 385.34375 129.714844 C 385.613281 129.308594 387.132812 126.984375 387.160156 126.953125 C 390.019531 122.976562 392.972656 119.148438 396.132812 115.421875 C 412.609375 146.621094 438.753906 175.957031 470.574219 191.027344 C 475.746094 193.539062 481.421875 196.4375 486.917969 197.949219 C 493.078125 199.984375 499.289062 201.761719 505.769531 202.414062 C 504.300781 205.011719 501.992188 213.449219 499.8125 214.625 C 497.484375 215.882812 488.476562 212.195312 486.566406 211.542969 C 486.453125 211.503906 486.34375 211.472656 486.226562 211.433594 C 480.769531 210.394531 474.140625 206.960938 469.550781 204.769531 C 469.335938 204.664062 469.433594 204.710938 469.226562 204.613281 C 455.089844 199.175781 439.582031 187.992188 428.894531 179 C 420.292969 171.636719 412.335938 163.695312 405 155.066406 Z M 374.996094 149.636719 C 376.503906 145.714844 378.308594 141.9375 380.222656 138.195312 C 380.5625 137.519531 381.914062 135.253906 382.453125 134.332031 C 386.988281 141.425781 392.183594 148.128906 397.476562 154.664062 C 392.375 153.789062 386.363281 153.441406 381.714844 151.890625 C 381.566406 151.851562 381.417969 151.808594 381.265625 151.769531 C 379.40625 151.328125 377 150.414062 374.996094 149.636719 Z M 393.71875 159.675781 C 395.53125 159.972656 398.128906 160 399.859375 160.765625 C 402.769531 162.050781 401.058594 160.671875 402.320312 163.246094 C 403.597656 165.835938 403.539062 170.363281 404.074219 173.214844 C 404.863281 177.375 405.738281 181.574219 407.128906 185.578125 C 405.183594 183.664062 403.234375 181.765625 401.289062 179.859375 C 397.074219 175.734375 394.597656 173.105469 390.65625 168.902344 C 388.71875 166.828125 386.820312 164.710938 384.941406 162.589844 C 384.015625 161.546875 381.359375 157.527344 380.457031 157.3125 C 380.390625 157.320312 380.339844 157.304688 380.300781 157.257812 C 384.699219 158.421875 389.242188 158.9375 393.71875 159.675781 Z M 554.121094 183.691406 C 553.269531 183.964844 552.433594 184.347656 551.761719 184.597656 C 546.628906 186.464844 541.808594 188.964844 537.117188 191.742188 C 529.148438 196.5 522.164062 202.726562 517.289062 210.667969 C 515.675781 213.292969 512.570312 217.839844 512.753906 221.15625 C 512.96875 225.019531 516.304688 225.601562 518.863281 223.128906 C 519.039062 222.953125 519.703125 222.296875 519.898438 222.101562 C 525.832031 216.171875 535.542969 211.695312 542.917969 210.734375 C 547.375 210.148438 553.679688 210.703125 556.816406 211.636719 C 558 211.953125 560.699219 213.332031 563 213.820312 C 563.070312 213.953125 563.15625 214.074219 563.21875 214.214844 C 564.917969 217.503906 564.558594 221.3125 565.375 224.84375 C 566.367188 229.164062 568.96875 233.433594 570.292969 237.851562 C 565.347656 234.085938 559.109375 230.945312 553.925781 230.148438 C 553.371094 230.007812 552.65625 229.796875 551.976562 229.613281 C 549.566406 228.917969 546.304688 228.484375 544.429688 228.242188 C 540.527344 227.726562 534.285156 227.878906 531.09375 228.289062 C 518.097656 229.785156 503.792969 238.925781 499.328125 252.664062 C 498.429688 244.605469 499.539062 235.296875 501.585938 228.066406 C 505.511719 213.554688 513.171875 197.132812 525.824219 186.445312 C 532.324219 180.949219 539.199219 177.328125 546.898438 173.828125 C 547.035156 173.765625 547.171875 173.707031 547.308594 173.640625 C 549.234375 177.359375 552.851562 179.925781 554.121094 183.691406 Z M 556.015625 204.621094 C 556.28125 205.03125 556.5625 205.441406 556.855469 205.839844 C 555.539062 205.59375 554.410156 205.429688 553.726562 205.324219 C 542.792969 203.648438 531.582031 206.6875 522.511719 212.855469 C 524.351562 209.953125 527.351562 206.40625 529.304688 204.546875 C 529.394531 204.46875 529.480469 204.382812 529.566406 204.292969 C 530.433594 203.378906 533.023438 201.234375 533.5 200.898438 C 533.597656 200.828125 533.695312 200.757812 533.792969 200.683594 C 536.886719 198.375 540.84375 195.921875 544.542969 193.957031 C 546.832031 192.734375 550.996094 191.738281 554.089844 190.367188 C 553.210938 195.632812 552.476562 199.039062 556.015625 204.621094 Z M 577.6875 237.082031 C 576.652344 233.125 574.589844 229.5625 573.367188 225.660156 C 572.113281 221.644531 572.304688 217.402344 570.90625 213.441406 C 568.722656 207.269531 560.726562 202.464844 560.226562 195.867188 C 560.027344 193.304688 561.628906 190.71875 561.933594 188.152344 C 562.445312 183.933594 561.359375 180.132812 559.011719 176.597656 C 557.457031 174.261719 554.441406 172.203125 553.59375 169.515625 C 552.992188 167.578125 554.160156 164.960938 554.078125 162.96875 C 553.902344 158.746094 551.898438 154.644531 549.847656 151.039062 C 549.363281 150.183594 545.605469 145.839844 546.054688 144.820312 C 546.753906 143.234375 551.296875 142.316406 552.753906 141.40625 C 556.015625 139.371094 558.011719 136.304688 557.691406 132.355469 C 557 123.753906 545.46875 119.277344 539.171875 115.519531 C 530.996094 110.636719 524.421875 103.476562 514.542969 102.664062 C 518.574219 100.828125 522.113281 98.523438 525.074219 95.234375 C 527.847656 92.15625 533.433594 88.277344 533.957031 83.945312 C 534.542969 79.101562 528.816406 74.835938 524.871094 73.445312 C 522.523438 72.617188 519.917969 72.207031 517.492188 71.691406 C 515.324219 71.226562 510.757812 71.257812 508.957031 69.980469 C 503.8125 66.339844 512.6875 57.699219 514.738281 54.667969 C 520.945312 45.480469 512.871094 36.652344 502.460938 39.386719 C 495.503906 41.214844 491.855469 45.511719 487.628906 37.734375 C 485.4375 33.703125 483.503906 29.5625 479.953125 26.496094 C 475.726562 22.84375 469.957031 21.980469 465.203125 19.175781 C 461.503906 16.988281 458.605469 13.632812 454.339844 12.601562 C 448.960938 11.296875 447.03125 11.78125 442.996094 7.464844 C 439.796875 4.046875 436.289062 0.574219 431.230469 0.601562 C 426.890625 0.621094 420.839844 2.585938 418.152344 6.136719 C 411.992188 14.246094 419.085938 28.195312 412.292969 36.160156 C 405.355469 44.3125 395.78125 38.484375 387.957031 36.265625 C 375.339844 32.683594 370.347656 40.933594 366.007812 51.242188 C 363.941406 56.15625 362.191406 61.660156 358.972656 65.972656 C 355.777344 70.253906 350.078125 70.957031 346.859375 75.0625 C 343.996094 78.726562 342.742188 83.585938 339.882812 87.40625 C 336.777344 91.554688 333.214844 94.738281 328.488281 96.972656 C 325.101562 98.570312 320.976562 99.648438 317.199219 99.433594 C 311.378906 99.085938 305.777344 96.117188 299.828125 97.34375 C 289.292969 99.523438 284.875 111.804688 281.117188 120.316406 C 277.847656 127.714844 274.519531 135.605469 265.472656 130.40625 C 255.488281 124.675781 251.867188 111.851562 238.925781 111.542969 C 227.335938 111.265625 217.453125 114.382812 210.777344 103.007812 C 207.457031 97.351562 200.753906 78.789062 190.847656 85.722656 C 183.492188 90.863281 186.738281 108.261719 188.484375 115.257812 C 189.550781 119.304688 190.445312 123.511719 189.171875 127.839844 C 187.304688 134.164062 187.734375 141.503906 184.910156 147.425781 C 181.847656 153.847656 179.1875 158.167969 180.28125 165.699219 C 181.03125 170.859375 185.554688 176.007812 184.257812 181.300781 C 183.011719 186.371094 177.011719 189.511719 174.609375 194.125 C 171.570312 199.953125 171.066406 207.28125 173.339844 213.480469 C 175.230469 218.636719 180.328125 222.273438 185.007812 217.515625 C 189.253906 213.207031 188.558594 205.703125 192.480469 201.101562 C 193.816406 202.335938 194.085938 204.761719 194.992188 206.285156 C 196.929688 209.546875 199.195312 210.511719 202.835938 210.695312 C 208.546875 210.984375 212.75 210.707031 215.828125 216.183594 C 218.941406 221.71875 217.742188 228.046875 221.421875 233.648438 C 223.230469 236.394531 225.828125 239.097656 226.847656 242.28125 C 227.347656 243.855469 227.265625 246.4375 227.246094 246.515625 C 225.507812 252.875 227.425781 258.503906 230.410156 264.136719 C 233.566406 270.082031 234.703125 276.738281 237.785156 282.5625 C 243.527344 293.421875 262.101562 298.515625 258.550781 313.652344 C 256.917969 320.601562 252.65625 326.867188 250.632812 333.738281 C 248.375 341.4375 248.269531 349.519531 248.308594 357.472656 C 248.316406 359.488281 249.320312 365.472656 247.976562 367.144531 C 247.058594 368.289062 241.847656 369.019531 240.183594 370.03125 C 235.460938 372.882812 231.78125 377.867188 233.351562 383.304688 C 233.390625 383.453125 233.429688 383.609375 233.46875 383.761719 C 233.234375 382.792969 234.160156 386.351562 233.835938 385.078125 C 233.875 385.234375 233.914062 385.386719 233.960938 385.535156 C 236.636719 395.003906 231.625 407.226562 233.109375 416.867188 C 233.894531 422.511719 238.351562 431.660156 245.105469 425.710938 C 249.757812 421.613281 250.292969 413.488281 258.515625 414.519531 C 262.09375 414.96875 265.925781 416.757812 269.5 417.59375 C 271.816406 418.125 274.996094 418.621094 276.6875 420.503906 C 281.320312 425.65625 277.539062 431.25 273.246094 434.371094 C 270.355469 436.433594 267.273438 436.738281 264.964844 439.714844 C 261.507812 444.171875 260.761719 449.855469 261.210938 455.300781 C 261.636719 460.363281 262.636719 465.355469 264.351562 470.132812 C 265.273438 472.691406 266.34375 474.597656 262.941406 474.265625 C 262.40625 474.210938 261.871094 473.984375 261.34375 473.625 C 261.363281 473.644531 261.179688 473.539062 261.042969 473.449219 C 261.089844 473.476562 261.109375 473.488281 261.121094 473.488281 C 261.140625 473.5 261.140625 473.507812 261.160156 473.515625 C 261.257812 473.574219 261.308594 473.605469 261.335938 473.625 C 261.257812 473.574219 261.1875 473.515625 261.109375 473.457031 C 261.042969 473.394531 260.878906 473.277344 260.878906 473.285156 C 256.253906 469.546875 251.710938 456.859375 245.863281 464.324219 C 243.167969 467.75 244.667969 474.539062 244.859375 478.429688 C 245.179688 484.949219 245.59375 491.472656 245.679688 498 C 245.824219 509.042969 245.804688 522.425781 239.820312 532.195312 C 234.136719 541.46875 220.703125 544.796875 225.167969 558.019531 C 226.570312 562.171875 230.128906 566.445312 229.789062 571.027344 C 229.449219 575.554688 224.828125 578.105469 223.929688 582.425781 C 221.789062 592.671875 235.585938 597.894531 236.308594 607.101562 C 237.078125 616.832031 224 619.058594 219.816406 626.054688 C 214.589844 634.785156 224.648438 645.78125 230.019531 651.964844 C 236.792969 659.761719 245.96875 664.839844 252.742188 672.625 C 256.257812 676.664062 259.503906 680.265625 263.601562 683.710938 C 268.214844 687.582031 270.316406 691.855469 273.097656 697.089844 C 275.5625 701.75 277.566406 703.765625 282.097656 706.019531 C 284.222656 707.074219 283.148438 705.777344 284.484375 707.828125 C 285.125 708.804688 285.292969 710.476562 285.449219 711.625 C 285.828125 714.390625 285.582031 717.28125 285.398438 720.054688 C 284.84375 728.214844 284.753906 741.148438 294.15625 744.984375 C 304.917969 749.382812 304.773438 732.925781 308.050781 727.410156 C 311.945312 720.867188 322.355469 725.132812 327.6875 727.496094 C 337.554688 731.875 347.761719 736 358.007812 730.238281 C 362.609375 727.644531 365.503906 723.722656 368.78125 719.722656 C 372.417969 715.296875 376.167969 712.226562 381.136719 709.386719 C 385.566406 706.855469 390.441406 704.277344 390.949219 698.636719 C 391.363281 694.101562 388.394531 689.992188 388.894531 685.480469 C 389.207031 682.621094 391.308594 679.449219 391.753906 676.34375 C 392.667969 669.941406 388.457031 666.984375 386.375 661.511719 C 383.085938 652.851562 394.457031 644.824219 401.269531 642.023438 C 411.757812 637.722656 423.980469 637.042969 435.066406 635.0625 C 444.164062 633.429688 449.273438 636.320312 454.738281 643.519531 C 461.183594 652.015625 466.15625 661.601562 478.042969 662.097656 C 483.5625 662.328125 489.175781 661.183594 494.664062 660.675781 C 499.714844 660.207031 504.988281 660.570312 509.574219 658.019531 C 517.765625 653.464844 519.585938 639.714844 520.550781 631.230469 C 521.042969 626.894531 521.015625 622.515625 523.214844 618.632812 C 525.566406 614.492188 530.375 611.554688 531.457031 606.777344 C 533.8125 596.414062 519.234375 589.5 521.402344 578.316406 C 523.367188 568.175781 534.675781 560.667969 534.941406 550.226562 C 535.074219 545.351562 532.046875 541.328125 530.785156 536.824219 C 529.90625 533.671875 530.296875 530.578125 531.367188 527.425781 C 532.796875 523.203125 535.789062 519.667969 537.421875 515.507812 C 539.714844 509.65625 539.386719 503.597656 538.566406 497.484375 C 537.867188 492.308594 537.265625 487.898438 539.960938 483.171875 C 543.027344 477.808594 547.597656 473.925781 546.34375 467.164062 C 545.449219 462.300781 542.53125 457.988281 541.816406 453.027344 C 540.941406 447.039062 544.222656 442.246094 545.867188 436.695312 C 547.5625 430.984375 546.214844 426.394531 544.609375 420.886719 C 543.023438 415.40625 544.222656 412.3125 545.574219 407 C 546.273438 404.285156 546.65625 401.464844 546.03125 398.699219 C 545.566406 396.636719 544.125 394.710938 543.84375 392.636719 C 543.355469 389.035156 545.683594 385.875 547.445312 382.976562 C 553.308594 373.34375 552.960938 360.597656 546.691406 350.972656 C 543.960938 346.796875 539.367188 344.644531 536.914062 340.226562 C 534.460938 335.789062 535.738281 331.113281 534.414062 326.371094 C 533.035156 321.441406 530.601562 317.273438 530.96875 311.992188 C 531.269531 307.640625 533.8125 303.992188 536.445312 300.632812 C 541.75 293.863281 548.191406 287.832031 555.191406 282.789062 C 559.050781 280.015625 564.113281 277.84375 566.515625 273.542969 C 569.023438 269.046875 566.953125 264.15625 568.578125 259.609375 C 569.921875 255.847656 573.929688 253.558594 576.082031 250.300781 C 578.792969 246.191406 578.914062 241.777344 577.6875 237.082031 " fill-opacity="1" fill-rule="nonzero"/></g><path fill="#b4b4b4" d="M 197.0625 93.492188 C 197.0625 93.492188 197.0625 93.492188 197.066406 93.5 C 197.09375 93.539062 196.90625 93.273438 197.0625 93.492188 " fill-opacity="1" fill-rule="nonzero"/><path fill="#b4b4b4" d="M 514.214844 405.015625 C 515.953125 406.300781 522.257812 407.699219 524.449219 407.691406 C 527.222656 407.683594 530.359375 403.769531 526.320312 402.4375 C 523.5625 401.53125 518.855469 399.558594 515.996094 399.898438 C 513.046875 400.253906 511.273438 402.855469 514.214844 405.015625 " fill-opacity="1" fill-rule="nonzero"/><path fill="#b4b4b4" d="M 491.09375 400.839844 C 493.476562 400.5 497.445312 399.835938 495.484375 396.324219 C 493.933594 393.542969 486.304688 395.753906 483.992188 396.042969 C 481.539062 396.347656 480.683594 398.992188 482.285156 400.761719 C 484.050781 402.710938 488.894531 401.144531 491.09375 400.839844 " fill-opacity="1" fill-rule="nonzero"/><path fill="#b4b4b4" d="M 457.503906 398.933594 C 453.796875 399.496094 446.476562 399.539062 443.335938 401.503906 C 440.269531 403.417969 440.589844 406.074219 444.152344 407 C 446.496094 407.601562 455.121094 405.386719 457.394531 404.59375 C 459.039062 404.015625 460.578125 404.050781 460.722656 401.851562 C 460.839844 400.042969 459.390625 398.648438 457.503906 398.933594 " fill-opacity="1" fill-rule="nonzero"/><path fill="#b4b4b4" d="M 416.371094 409.328125 C 414.273438 410.113281 410.074219 410.476562 409.015625 412.730469 C 407.847656 415.195312 409.785156 416.449219 411.875 416.640625 C 413.582031 416.796875 419.085938 414.796875 419.882812 413.414062 C 421.210938 411.085938 418.972656 408.234375 416.371094 409.328125 " fill-opacity="1" fill-rule="nonzero"/><path fill="#b4b4b4" d="M 386.015625 426.609375 C 385.996094 426.617188 385.964844 426.636719 385.953125 426.648438 C 385.964844 426.644531 385.996094 426.625 386.0625 426.585938 C 386.054688 426.589844 386.03125 426.605469 386.015625 426.609375 " fill-opacity="1" fill-rule="nonzero"/><path fill="#b4b4b4" d="M 385.972656 426.644531 C 385.933594 426.664062 385.90625 426.675781 385.878906 426.6875 C 385.671875 426.820312 385.839844 426.722656 385.972656 426.644531 " fill-opacity="1" fill-rule="nonzero"/><path fill="#b4b4b4" d="M 386.113281 420.496094 C 384.960938 420.535156 383.699219 421.519531 382.8125 422.023438 C 381.238281 422.882812 368.429688 428.136719 371.058594 432.386719 C 373.449219 436.242188 383.660156 427.9375 385.476562 426.910156 C 385.644531 426.8125 385.75 426.753906 385.839844 426.703125 C 385.789062 426.734375 385.796875 426.734375 385.878906 426.6875 C 385.898438 426.675781 385.925781 426.664062 385.953125 426.648438 C 385.945312 426.648438 385.945312 426.648438 385.957031 426.636719 C 385.984375 426.628906 386.003906 426.617188 386.015625 426.609375 C 386.09375 426.566406 386.160156 426.519531 386.292969 426.441406 C 386.1875 426.511719 386.113281 426.550781 386.0625 426.585938 C 386.101562 426.566406 386.050781 426.597656 385.972656 426.644531 C 386.253906 426.5 386.867188 426.167969 387.832031 425.644531 C 390.910156 424.09375 388.953125 420.390625 386.113281 420.496094 " fill-opacity="1" fill-rule="nonzero"/><path fill="#b4b4b4" d="M 352.386719 442.640625 C 349.039062 445.394531 344.558594 448.082031 341.679688 451.320312 C 339.1875 454.132812 340.09375 458.125 344.472656 456.226562 C 347.832031 454.769531 351.710938 450.6875 354.371094 448.226562 C 355.460938 447.207031 357.394531 446.109375 356.929688 444.265625 C 356.433594 442.226562 354.097656 441.25 352.386719 442.640625 " fill-opacity="1" fill-rule="nonzero"/><path fill="#b4b4b4" d="M 327.054688 466.269531 C 324.992188 467.945312 321.011719 471.496094 319.988281 473.886719 C 318.804688 476.652344 320.234375 479.5625 323.640625 477.972656 C 325.292969 477.195312 329.925781 472.207031 330.667969 470.503906 C 331.667969 468.234375 330.605469 463.347656 327.054688 466.269531 " fill-opacity="1" fill-rule="nonzero"/><path fill="#b4b4b4" d="M 310.589844 489.804688 C 309.65625 491.335938 303.332031 499.207031 309.539062 499.207031 C 312.1875 499.207031 316.898438 492.367188 315.230469 489.863281 C 313.742188 487.625 310.902344 489.269531 310.589844 489.804688 " fill-opacity="1" fill-rule="nonzero"/><path fill="#b4b4b4" d="M 302.234375 508.472656 C 300.308594 509.820312 299.332031 514.757812 298.398438 516.898438 C 297.335938 519.144531 296.382812 525.03125 301.277344 522.859375 C 304.050781 521.617188 305.460938 514.058594 306.707031 511.566406 C 308.273438 508.3125 304.449219 506.933594 302.234375 508.472656 " fill-opacity="1" fill-rule="nonzero"/><path fill="#b4b4b4" d="M 417.890625 85.207031 C 417.917969 85.171875 417.941406 85.148438 417.96875 85.113281 C 417.898438 85.199219 417.871094 85.226562 417.890625 85.207031 " fill-opacity="1" fill-rule="nonzero"/><path fill="#b4b4b4" d="M 343.5 508.316406 C 343.507812 508.304688 343.511719 508.292969 343.527344 508.277344 C 343.558594 508.214844 343.558594 508.214844 343.5 508.316406 " fill-opacity="1" fill-rule="nonzero"/><path fill="#b4b4b4" d="M 387.824219 466.746094 C 387.84375 466.6875 387.871094 466.628906 387.898438 466.570312 C 387.84375 466.699219 387.824219 466.738281 387.824219 466.746094 " fill-opacity="1" fill-rule="nonzero"/><path fill="#b4b4b4" d="M 461.714844 444.226562 C 461.738281 444.226562 461.765625 444.21875 461.785156 444.21875 C 461.378906 444.265625 461.53125 444.25 461.714844 444.226562 " fill-opacity="1" fill-rule="nonzero"/><path fill="#b4b4b4" d="M 497.863281 464 C 497.902344 463.964844 497.941406 463.925781 497.984375 463.894531 C 498 463.882812 497.972656 463.902344 497.863281 464 " fill-opacity="1" fill-rule="nonzero"/><path fill="#b4b4b4" d="M 291.253906 467.804688 C 291.253906 467.867188 291.257812 467.945312 291.257812 468.011719 C 291.273438 468.632812 291.253906 467.4375 291.253906 467.804688 " fill-opacity="1" fill-rule="nonzero"/><path fill="#b4b4b4" d="M 414.261719 517.375 C 414.28125 517.429688 414.300781 517.472656 414.320312 517.519531 C 414.347656 517.585938 414.367188 517.636719 414.40625 517.722656 C 414.359375 517.617188 414.3125 517.492188 414.261719 517.375 " fill-opacity="1" fill-rule="nonzero"/></svg>