<svg xmlns="http://www.w3.org/2000/svg" xmlns:xlink="http://www.w3.org/1999/xlink" width="1000" zoomAndPan="magnify" viewBox="0 0 750 749.999995" height="1000" preserveAspectRatio="xMidYMid meet" version="1.0"><defs><clipPath id="ba69eaa967"><path d="M 171.414062 4 L 580 4 L 580 746 L 171.414062 746 Z M 171.414062 4 " clip-rule="nonzero"/></clipPath></defs><rect x="-75" width="900" fill="#ffffff" y="-74.999999" height="899.999994" fill-opacity="1"/><rect x="-75" width="900" fill="#ffffff" y="-74.999999" height="899.999994" fill-opacity="1"/><path fill="#939598" d="M 502.125 17.332031 L 502.566406 16.34375 L 502.125 17.332031 C 502.125 17.332031 502.234375 17.332031 502.234375 17.332031 C 502.453125 17.441406 502.675781 17.441406 502.894531 17.441406 C 503.003906 17.441406 503.003906 17.441406 503.113281 17.441406 C 503.332031 17.441406 503.441406 17.441406 503.660156 17.332031 C 505.527344 16.34375 506.621094 14.699219 506.84375 12.832031 C 507.0625 10.75 506.074219 8.554688 504.320312 7.019531 C 504.101562 6.800781 503.660156 6.691406 503.332031 6.800781 C 503.003906 6.910156 502.675781 7.128906 502.566406 7.457031 C 501.359375 9.871094 500.261719 13.164062 501.46875 16.671875 C 501.578125 17 501.796875 17.222656 502.125 17.332031 Z M 502.125 17.332031 " fill-opacity="1" fill-rule="nonzero"/><g clip-path="url(#ba69eaa967)"><path fill="#939598" d="M 574.628906 227.496094 C 574.519531 227.382812 574.300781 227.382812 574.191406 227.382812 C 573.753906 227.382812 573.3125 227.273438 572.875 227.164062 C 571.449219 226.726562 570.351562 225.847656 569.144531 224.203125 L 568.160156 222.777344 C 566.953125 221.023438 565.636719 219.15625 564.648438 217.292969 C 563.988281 216.085938 563.441406 214.769531 562.785156 213.453125 C 562.5625 212.90625 562.234375 212.355469 562.015625 211.808594 C 561.578125 210.820312 561.359375 209.945312 561.136719 208.738281 C 560.917969 207.96875 560.917969 207.09375 560.808594 206.214844 L 560.808594 205.667969 C 560.699219 204.460938 560.699219 203.363281 560.589844 202.375 C 560.589844 200.402344 560.699219 198.316406 560.917969 195.902344 C 561.136719 194.257812 561.359375 192.613281 561.578125 191.078125 C 561.796875 189.542969 562.015625 188.007812 562.234375 186.46875 C 562.234375 186.140625 562.34375 185.8125 562.34375 185.375 C 562.34375 184.824219 562.34375 184.277344 562.34375 183.726562 C 562.34375 183.507812 562.234375 183.179688 562.234375 182.851562 C 562.234375 182.742188 562.125 182.632812 562.125 182.414062 C 562.015625 182.191406 561.90625 181.972656 561.796875 181.753906 C 561.6875 181.535156 561.578125 181.425781 561.46875 181.207031 C 561.359375 181.097656 561.246094 180.984375 561.136719 180.765625 C 561.027344 180.65625 560.917969 180.546875 560.808594 180.4375 C 560.480469 180.21875 560.152344 180 559.933594 179.78125 C 559.382812 179.339844 558.945312 179.011719 558.394531 178.574219 C 557.628906 177.804688 556.859375 176.707031 556.203125 175.28125 C 555.652344 174.074219 555.214844 172.871094 554.777344 171.773438 C 554.558594 171.113281 554.335938 170.457031 554.117188 169.90625 C 553.898438 169.359375 553.789062 168.699219 553.570312 168.152344 C 553.351562 167.496094 553.019531 166.835938 552.691406 166.179688 C 552.472656 165.738281 552.144531 165.300781 551.816406 164.863281 C 551.375 164.203125 550.828125 163.546875 550.167969 162.777344 C 549.621094 162.230469 549.074219 161.570312 548.523438 161.023438 C 547.867188 160.253906 547.097656 159.597656 546.441406 158.828125 C 544.792969 156.964844 543.476562 154.660156 542.601562 152.246094 C 542.164062 151.042969 542.164062 149.503906 542.050781 148.410156 C 541.941406 146.433594 542.492188 144.460938 543.589844 142.265625 C 544.355469 140.839844 545.234375 139.523438 546.21875 138.097656 L 546.878906 137.109375 C 546.988281 136.890625 547.097656 136.78125 547.207031 136.5625 C 547.207031 136.5625 547.207031 136.453125 547.207031 136.453125 C 547.316406 136.34375 547.316406 136.125 547.425781 135.902344 C 547.535156 135.464844 547.648438 135.027344 547.757812 134.589844 C 547.757812 134.257812 547.867188 133.929688 547.867188 133.601562 C 547.867188 133.382812 547.867188 133.050781 547.867188 132.722656 C 547.867188 132.503906 547.867188 132.285156 547.757812 132.175781 C 547.757812 132.175781 547.757812 132.066406 547.757812 132.066406 L 547.648438 131.734375 C 547.648438 131.734375 547.648438 131.625 547.648438 131.625 L 547.535156 131.40625 C 547.535156 131.40625 547.425781 131.296875 547.425781 131.1875 L 547.316406 131.078125 C 547.316406 131.078125 547.207031 130.96875 547.207031 130.96875 C 547.207031 130.96875 547.097656 130.859375 547.097656 130.859375 L 546.988281 130.75 C 546.988281 130.75 546.878906 130.640625 546.878906 130.640625 C 546.878906 130.640625 546.769531 130.53125 546.769531 130.53125 C 546.332031 130.308594 545.890625 130.089844 545.453125 129.871094 C 544.90625 129.652344 544.464844 129.433594 544.027344 129.101562 C 542.929688 128.445312 541.941406 127.457031 540.957031 126.03125 C 540.078125 124.714844 539.308594 123.507812 538.871094 122.304688 C 538.433594 121.316406 538.105469 120.328125 537.773438 119.339844 C 537.664062 118.902344 537.445312 118.355469 537.226562 117.914062 C 536.898438 117.148438 536.675781 116.488281 536.347656 115.941406 C 536.128906 115.503906 535.910156 115.171875 535.582031 114.734375 C 535.472656 114.515625 535.363281 114.40625 535.140625 114.1875 C 535.03125 114.074219 534.921875 113.964844 534.921875 113.964844 C 534.921875 113.964844 534.8125 113.855469 534.8125 113.855469 C 534.703125 113.746094 534.703125 113.746094 534.59375 113.746094 C 534.59375 113.746094 534.59375 113.746094 534.484375 113.746094 L 534.375 113.636719 C 534.15625 113.527344 533.933594 113.527344 533.714844 113.527344 C 533.496094 113.527344 533.386719 113.527344 533.167969 113.527344 C 532.070312 113.855469 530.972656 114.1875 529.875 114.625 C 528.671875 115.0625 527.574219 115.503906 526.476562 115.722656 C 524.722656 116.160156 522.964844 116.269531 521.539062 116.050781 C 519.894531 115.832031 518.25 115.171875 516.714844 114.515625 L 516.054688 114.296875 C 514.191406 113.527344 512.765625 112.761719 511.667969 111.664062 C 510.460938 110.566406 509.476562 109.03125 508.707031 106.945312 C 508.488281 106.398438 508.378906 105.847656 508.269531 105.082031 C 508.050781 103.546875 508.378906 101.792969 509.253906 100.253906 C 510.132812 98.71875 511.339844 97.183594 512.984375 95.648438 C 513.972656 94.769531 514.847656 94.222656 515.835938 93.785156 C 516.496094 93.453125 517.261719 93.234375 518.03125 93.015625 L 518.25 92.90625 C 518.578125 92.796875 518.90625 92.578125 519.347656 92.46875 C 520.003906 92.136719 520.664062 91.699219 521.320312 91.261719 C 521.871094 90.820312 522.527344 90.382812 523.1875 89.835938 C 523.40625 89.617188 523.625 89.394531 523.953125 89.066406 C 524.0625 88.957031 524.171875 88.847656 524.171875 88.738281 C 524.171875 88.738281 524.171875 88.628906 524.28125 88.628906 C 524.390625 88.410156 524.503906 88.191406 524.613281 87.96875 C 525.160156 86.765625 525.820312 85.449219 526.476562 84.242188 C 526.804688 83.582031 527.136719 82.925781 527.464844 82.265625 C 527.464844 82.265625 527.464844 82.15625 527.464844 82.15625 L 527.464844 82.046875 C 527.574219 81.828125 527.574219 81.5 527.464844 81.167969 C 527.355469 80.839844 527.136719 80.621094 526.804688 80.511719 L 526.476562 80.402344 C 526.039062 80.292969 525.488281 80.183594 525.050781 80.074219 C 524.832031 80.074219 524.613281 79.964844 524.390625 79.964844 C 524.390625 79.964844 524.28125 79.964844 524.28125 79.964844 C 524.0625 79.964844 523.953125 79.964844 523.625 79.964844 C 522.636719 80.074219 521.761719 80.183594 520.773438 80.402344 C 520.113281 80.511719 519.347656 80.621094 518.6875 80.730469 C 517.152344 80.949219 515.726562 80.839844 514.191406 80.511719 C 512.765625 80.183594 511.230469 79.414062 509.585938 78.316406 C 508.269531 77.441406 507.171875 76.015625 506.402344 74.257812 C 504.976562 70.96875 505.195312 67.019531 505.636719 63.507812 C 505.746094 62.304688 505.964844 61.207031 506.402344 60 C 506.734375 59.011719 507.28125 58.023438 507.828125 57.257812 C 508.597656 55.941406 509.585938 54.84375 510.679688 53.636719 L 511.121094 53.199219 C 511.777344 52.429688 512.4375 51.554688 513.09375 50.566406 C 513.3125 50.238281 513.421875 50.019531 513.644531 49.578125 C 513.753906 49.359375 513.753906 49.140625 513.863281 48.921875 C 513.972656 48.371094 514.082031 47.824219 514.300781 47.167969 C 514.410156 46.726562 514.410156 46.179688 514.519531 45.738281 C 514.519531 45.519531 514.519531 45.300781 514.410156 45.191406 C 514.410156 45.082031 514.300781 45.082031 514.300781 44.972656 C 514.191406 44.863281 514.082031 44.753906 513.972656 44.535156 C 513.421875 43.984375 512.765625 43.4375 512.21875 42.886719 C 511.121094 42.011719 510.023438 41.132812 509.035156 40.367188 C 508.707031 40.144531 508.488281 39.925781 508.160156 39.707031 C 507.71875 39.378906 507.171875 38.941406 506.621094 38.609375 L 506.292969 38.390625 C 506.292969 38.390625 506.183594 38.390625 506.183594 38.390625 C 505.964844 38.28125 505.855469 38.28125 505.527344 38.171875 C 504.976562 38.0625 504.429688 37.84375 503.660156 37.734375 C 503.222656 37.625 502.894531 37.625 502.453125 37.511719 C 502.234375 37.511719 502.015625 37.511719 501.796875 37.625 C 501.25 37.953125 500.699219 38.28125 500.152344 38.609375 C 499.601562 39.050781 499.164062 39.378906 498.617188 39.816406 L 498.507812 39.925781 C 497.191406 41.132812 496.09375 42.230469 494.558594 42.777344 C 492.582031 43.546875 490.28125 43.4375 487.867188 42.449219 C 485.234375 41.351562 483.148438 40.035156 481.503906 38.5 C 480.515625 37.511719 479.640625 36.417969 478.652344 35.210938 C 478.105469 34.441406 477.445312 33.785156 476.898438 33.015625 C 476.128906 32.25 475.363281 31.480469 474.484375 30.710938 C 473.605469 29.945312 472.621094 29.285156 471.632812 28.628906 C 470.535156 27.96875 469.4375 27.3125 468.339844 26.765625 C 467.574219 26.433594 466.914062 26.105469 466.257812 25.886719 C 465.488281 25.667969 464.722656 25.449219 463.953125 25.339844 C 462.199219 25.007812 460.445312 24.789062 458.6875 24.570312 C 458.359375 24.570312 457.921875 24.460938 457.59375 24.460938 C 456.386719 24.351562 455.070312 24.242188 453.972656 23.800781 C 452.546875 23.253906 451.449219 22.15625 450.351562 20.402344 C 449.476562 18.976562 449.035156 17.222656 448.707031 15.574219 L 448.597656 15.027344 C 448.378906 14.257812 448.269531 13.710938 448.050781 13.164062 C 447.941406 12.832031 447.828125 12.613281 447.609375 12.285156 C 447.390625 11.957031 447.28125 11.628906 447.0625 11.296875 C 446.953125 11.1875 446.84375 10.96875 446.625 10.75 C 446.402344 10.53125 446.183594 10.3125 445.964844 10.089844 C 445.636719 9.871094 445.417969 9.652344 444.976562 9.324219 C 444.210938 8.886719 443.441406 8.445312 442.785156 8.117188 C 441.140625 7.347656 439.382812 6.691406 437.410156 6.03125 C 436.09375 5.59375 434.777344 5.265625 433.460938 5.046875 C 432.800781 4.9375 431.925781 4.828125 430.9375 4.714844 C 430.609375 4.714844 430.390625 4.714844 429.949219 4.714844 C 429.839844 4.714844 429.621094 4.714844 429.511719 4.828125 C 429.511719 4.828125 429.402344 4.828125 429.402344 4.828125 C 429.074219 4.9375 428.742188 5.046875 428.414062 5.15625 C 426.878906 5.703125 425.5625 6.363281 424.246094 7.019531 C 423.917969 7.238281 423.589844 7.347656 423.257812 7.679688 L 423.039062 7.898438 C 422.820312 8.007812 422.710938 8.226562 422.710938 8.445312 C 422.601562 8.664062 422.601562 8.886719 422.601562 9.105469 C 422.382812 10.421875 422.273438 11.738281 422.164062 13.054688 L 422.164062 13.382812 C 422.164062 13.820312 422.054688 14.257812 422.054688 14.699219 C 421.941406 15.574219 421.832031 16.5625 421.832031 17.550781 C 421.832031 18.425781 421.832031 19.304688 421.832031 20.183594 L 421.832031 20.292969 C 421.832031 21.171875 421.832031 21.9375 421.722656 22.925781 L 421.722656 23.472656 C 421.722656 24.242188 421.722656 24.898438 421.722656 25.558594 C 421.722656 26.433594 421.722656 27.3125 421.722656 28.082031 C 421.613281 29.285156 421.503906 30.273438 421.066406 31.261719 C 420.738281 31.917969 420.078125 32.46875 419.421875 33.015625 L 418.761719 33.566406 C 418.324219 33.894531 417.996094 34.332031 417.554688 34.550781 C 417.007812 34.992188 416.347656 35.320312 415.800781 35.757812 C 415.472656 35.976562 415.144531 36.199219 414.921875 36.308594 C 413.496094 37.292969 411.851562 38.171875 410.097656 38.71875 C 409.546875 38.828125 409 38.941406 408.34375 39.050781 L 407.683594 39.160156 C 406.914062 39.269531 406.148438 39.378906 405.378906 39.378906 C 404.722656 39.378906 404.171875 39.378906 403.40625 39.378906 C 402.746094 39.378906 402.199219 39.378906 401.429688 39.378906 C 400.554688 39.488281 399.675781 39.488281 398.800781 39.707031 C 398.46875 39.816406 398.140625 39.925781 397.8125 40.035156 C 397.152344 40.253906 396.496094 40.585938 395.835938 40.804688 L 395.617188 40.914062 C 394.410156 41.351562 393.316406 41.902344 392.21875 42.449219 C 391.558594 42.777344 391.011719 42.996094 390.351562 43.328125 C 389.585938 43.65625 388.707031 43.984375 387.941406 44.3125 C 386.515625 44.863281 385.089844 45.410156 383.773438 46.179688 C 383.550781 46.289062 383.332031 46.398438 383.113281 46.617188 C 382.894531 46.835938 382.566406 47.054688 382.234375 47.277344 C 381.578125 47.933594 380.917969 48.59375 380.261719 49.359375 C 379.273438 50.566406 378.175781 51.882812 377.300781 53.089844 C 376.640625 53.96875 375.984375 54.84375 375.324219 55.613281 C 374.558594 56.597656 373.789062 57.585938 373.023438 58.683594 C 372.253906 59.671875 371.488281 60.65625 370.71875 61.644531 C 369.292969 63.398438 367.867188 64.9375 366.222656 66.25 C 365.5625 66.800781 364.796875 67.347656 364.136719 67.898438 C 363.261719 68.554688 362.273438 69.324219 361.285156 70.199219 C 359.3125 71.957031 357.886719 73.492188 356.570312 75.027344 C 355.800781 76.015625 355.144531 76.890625 354.484375 77.769531 C 354.046875 78.425781 353.71875 79.085938 353.277344 79.851562 C 352.839844 80.949219 352.402344 82.046875 351.960938 83.035156 L 351.851562 83.472656 C 351.195312 85.007812 350.535156 86.542969 349.878906 87.859375 C 348.671875 90.492188 347.027344 93.125 344.832031 95.757812 C 343.1875 97.953125 341.210938 99.925781 338.800781 102.230469 C 337.8125 103.21875 336.714844 104.203125 335.617188 105.082031 C 334.519531 105.960938 333.316406 106.726562 332.546875 107.386719 C 330.902344 108.480469 329.585938 109.25 328.269531 109.90625 C 327.171875 110.457031 325.964844 110.675781 324.648438 111.003906 L 323.441406 111.332031 C 320.921875 111.992188 318.289062 112.648438 315.765625 113.527344 C 314.230469 114.078125 312.914062 114.84375 311.707031 115.390625 C 309.621094 116.488281 307.539062 117.804688 304.90625 119.671875 C 304.90625 119.671875 304.796875 119.78125 304.796875 119.78125 L 304.355469 120.109375 C 303.152344 120.988281 301.945312 121.753906 300.847656 122.632812 L 298.324219 124.386719 C 297.335938 125.046875 296.460938 125.703125 295.582031 126.359375 C 292.949219 128.226562 290.316406 130.199219 287.574219 131.847656 C 286.257812 132.613281 284.832031 133.492188 283.515625 134.257812 C 282.75 134.699219 281.871094 135.136719 281.101562 135.683594 C 279.019531 136.890625 276.824219 137.988281 275.070312 138.976562 L 274.523438 139.304688 C 274.082031 139.523438 273.644531 139.742188 273.207031 139.960938 C 272.765625 140.183594 272.4375 140.402344 272.109375 140.621094 L 271.339844 141.058594 C 270.132812 141.71875 268.925781 142.265625 267.722656 142.816406 C 266.183594 143.472656 264.539062 143.910156 263.113281 144.242188 C 260.371094 144.898438 257.410156 145.117188 254.558594 144.898438 C 252.585938 144.679688 250.71875 144.019531 248.746094 143.363281 L 248.304688 143.253906 C 246.769531 142.703125 245.453125 142.046875 244.027344 141.277344 C 243.480469 140.949219 242.929688 140.730469 242.382812 140.402344 C 241.175781 139.851562 239.75 139.304688 238.105469 138.757812 C 236.570312 138.316406 235.144531 137.878906 233.609375 137.660156 C 232.402344 137.441406 231.085938 137.21875 229.878906 137 C 227.464844 136.5625 224.941406 136.234375 222.417969 135.683594 C 219.347656 135.027344 216.167969 133.710938 213.097656 131.625 C 211.78125 130.75 210.464844 129.980469 209.148438 129.324219 C 208.488281 128.992188 207.832031 128.554688 207.171875 128.226562 C 205.308594 127.128906 203.554688 125.921875 201.796875 124.605469 C 200.921875 123.949219 200.042969 123.179688 199.164062 122.191406 C 198.070312 121.097656 197.300781 119.78125 196.753906 118.355469 C 195.765625 115.832031 195.105469 113.308594 194.667969 111.222656 L 194.558594 110.894531 C 194.449219 110.347656 194.230469 109.578125 194.011719 108.8125 C 193.902344 108.589844 193.789062 108.371094 193.679688 108.042969 C 193.460938 107.605469 193.132812 107.054688 192.804688 106.507812 C 192.363281 105.960938 192.035156 105.410156 191.488281 104.863281 C 191.046875 104.421875 190.609375 103.984375 189.953125 103.328125 C 188.855469 102.449219 187.867188 101.792969 186.878906 101.023438 C 186.441406 100.804688 186.113281 100.585938 185.675781 100.363281 C 185.675781 100.363281 185.453125 100.253906 185.453125 100.253906 C 185.015625 100.035156 184.46875 100.144531 184.136719 100.585938 L 182.820312 99.816406 C 182.710938 99.925781 182.710938 100.035156 182.601562 100.144531 C 182.492188 100.476562 182.382812 100.914062 182.273438 101.351562 C 182.164062 102.339844 181.945312 103.4375 181.945312 104.753906 C 181.945312 105.191406 181.945312 105.628906 181.945312 106.179688 C 181.945312 106.179688 181.945312 106.289062 181.945312 106.289062 C 181.945312 106.398438 181.945312 106.617188 182.054688 106.835938 C 182.273438 107.824219 182.710938 108.8125 183.042969 109.6875 C 183.371094 110.675781 183.808594 111.664062 184.136719 112.539062 C 184.6875 113.964844 185.234375 115.503906 185.675781 117.257812 C 186.113281 118.792969 186.332031 120.21875 186.550781 121.863281 L 186.660156 122.523438 C 186.878906 124.167969 187.101562 125.8125 187.320312 127.457031 C 187.757812 130.96875 187.429688 134.699219 186.332031 138.316406 C 185.234375 141.71875 183.699219 145.117188 182.382812 147.96875 C 181.175781 150.492188 180.191406 153.234375 179.09375 156.195312 C 178.875 156.964844 178.652344 157.730469 178.433594 158.71875 C 178.324219 159.378906 178.214844 159.925781 178.214844 160.695312 C 178.214844 160.914062 178.214844 161.132812 178.214844 161.460938 C 178.324219 162.011719 178.324219 162.558594 178.433594 163.105469 C 178.652344 163.984375 178.984375 164.972656 179.203125 165.957031 C 179.75 167.496094 180.519531 168.921875 181.175781 170.347656 C 181.617188 171.332031 182.164062 172.429688 182.601562 173.527344 C 183.042969 174.515625 183.480469 175.613281 183.699219 176.597656 C 184.027344 177.914062 184.136719 179.339844 184.25 180.984375 C 184.25 182.523438 184.25 184.277344 184.027344 185.8125 C 183.808594 187.566406 183.042969 189.324219 182.273438 190.96875 C 181.726562 192.175781 181.175781 193.269531 180.519531 194.476562 C 179.859375 195.574219 179.203125 196.671875 178.433594 197.660156 L 178.105469 198.097656 C 176.242188 200.949219 174.816406 203.472656 173.609375 205.886719 C 173.28125 206.652344 172.949219 207.53125 172.621094 208.519531 C 172.402344 209.394531 172.074219 210.164062 171.851562 211.152344 C 171.742188 211.589844 171.632812 212.136719 171.632812 212.578125 C 171.523438 213.015625 171.742188 213.453125 172.183594 213.671875 C 172.621094 213.894531 173.058594 213.894531 173.390625 213.5625 C 173.828125 213.234375 174.265625 212.796875 174.816406 212.355469 C 175.363281 211.808594 175.910156 211.261719 176.460938 210.601562 C 176.898438 210.164062 177.335938 209.722656 177.777344 209.285156 L 177.886719 209.175781 C 178.324219 208.628906 178.875 208.1875 179.421875 207.859375 C 180.300781 207.3125 181.507812 206.980469 182.492188 206.652344 C 183.917969 206.214844 185.5625 206.105469 187.648438 206.433594 C 188.636719 206.542969 189.402344 206.761719 190.0625 207.203125 C 191.160156 207.75 191.925781 208.847656 192.476562 210.382812 C 192.695312 211.039062 192.804688 211.808594 192.914062 212.6875 C 192.914062 213.015625 193.132812 213.34375 193.460938 213.5625 C 193.792969 213.78125 194.121094 213.78125 194.449219 213.5625 C 195.105469 213.234375 195.65625 213.015625 196.203125 212.6875 C 196.863281 212.355469 197.410156 212.136719 198.070312 211.808594 C 199.386719 211.261719 200.703125 210.929688 201.578125 210.710938 C 203.664062 210.273438 205.855469 209.722656 208.050781 210.054688 C 209.257812 210.273438 210.132812 210.601562 211.011719 211.039062 C 212.109375 211.699219 212.988281 212.6875 213.863281 214.113281 C 215.289062 216.414062 216.386719 219.265625 216.933594 222.230469 C 217.265625 223.65625 217.484375 225.300781 217.59375 227.054688 C 217.59375 227.605469 217.703125 228.261719 217.703125 228.808594 C 217.703125 229.46875 217.703125 230.015625 217.8125 230.675781 C 217.8125 231.113281 217.921875 231.441406 218.03125 231.882812 C 218.25 232.980469 218.582031 234.074219 218.910156 235.171875 C 218.910156 235.171875 219.019531 235.390625 219.019531 235.390625 C 219.128906 235.5 219.128906 235.609375 219.238281 235.722656 C 219.347656 235.832031 219.566406 236.050781 219.789062 236.160156 C 220.773438 237.035156 221.761719 237.804688 222.640625 238.792969 C 223.847656 240.21875 224.941406 241.863281 226.257812 244.386719 C 228.015625 248.007812 229.332031 251.296875 230.207031 254.585938 C 230.644531 256.34375 231.195312 258.097656 231.742188 259.851562 L 231.851562 260.179688 C 232.292969 261.605469 232.839844 263.582031 233.277344 265.554688 C 233.71875 267.3125 233.71875 269.175781 233.828125 271.148438 C 233.9375 272.90625 233.828125 274.550781 233.71875 276.304688 C 233.609375 277.839844 233.5 279.265625 233.277344 280.472656 C 233.167969 280.914062 233.167969 281.460938 233.058594 281.898438 C 232.839844 283.214844 232.621094 284.640625 232.621094 286.175781 C 232.621094 286.617188 232.621094 287.164062 232.621094 287.714844 C 232.621094 287.933594 232.621094 288.042969 232.730469 288.261719 C 232.730469 288.261719 232.730469 288.480469 232.839844 288.480469 C 232.839844 288.589844 232.949219 288.699219 232.949219 288.808594 C 232.949219 288.808594 232.949219 288.917969 233.058594 288.917969 C 233.609375 289.6875 234.265625 290.457031 234.925781 291.332031 C 235.035156 291.441406 235.253906 291.660156 235.472656 291.882812 C 235.691406 291.992188 235.800781 292.101562 236.019531 292.320312 C 236.570312 292.648438 237.007812 292.867188 237.445312 293.199219 C 237.667969 293.308594 237.777344 293.308594 237.996094 293.417969 C 238.324219 293.527344 238.761719 293.636719 239.09375 293.746094 C 239.75 293.964844 240.410156 294.074219 241.175781 294.292969 C 242.601562 294.734375 243.917969 295.5 245.234375 296.269531 C 248.085938 297.914062 250.28125 300 251.707031 302.628906 C 252.144531 303.398438 252.363281 304.277344 252.804688 305.152344 L 253.132812 305.921875 C 253.460938 306.6875 253.679688 307.347656 253.902344 308.003906 C 254.121094 309.101562 254.230469 310.199219 254.121094 311.40625 C 254.011719 312.941406 253.902344 314.695312 253.570312 316.34375 C 253.242188 318.097656 252.472656 319.742188 251.816406 321.386719 C 251.378906 322.375 250.9375 323.363281 250.609375 324.457031 C 250.0625 326.214844 249.730469 328.078125 249.402344 329.613281 L 249.292969 330.054688 C 249.074219 331.039062 248.964844 332.027344 248.855469 333.234375 C 248.855469 334.222656 248.855469 335.207031 248.964844 336.414062 C 249.074219 337.183594 249.183594 337.949219 249.183594 338.71875 C 249.292969 339.484375 249.402344 340.363281 249.402344 341.132812 C 249.402344 341.679688 249.511719 342.117188 249.511719 342.667969 C 249.621094 344.09375 249.730469 345.519531 249.953125 347.054688 C 250.28125 349.359375 250.609375 351.222656 250.9375 352.867188 C 251.269531 354.625 251.707031 356.488281 251.925781 358.351562 C 252.253906 360.875 252.144531 363.289062 251.925781 365.59375 C 251.816406 366.46875 251.707031 367.347656 251.707031 368.335938 C 251.597656 369.320312 251.488281 370.308594 251.269531 371.40625 C 251.15625 372.28125 250.828125 373.160156 250.5 374.148438 L 250.390625 374.476562 C 249.730469 376.230469 249.183594 377.878906 248.304688 379.304688 C 247.539062 380.621094 246.441406 381.824219 245.015625 382.921875 C 243.371094 384.238281 241.617188 385.445312 239.75 386.105469 C 238.652344 386.542969 237.667969 386.761719 236.460938 387.089844 C 235.472656 387.308594 234.484375 387.640625 233.5 387.96875 C 233.277344 388.078125 232.949219 388.1875 232.621094 388.40625 L 232.292969 388.625 C 232.183594 388.734375 231.960938 388.847656 231.742188 389.066406 C 231.414062 389.285156 231.195312 389.613281 230.867188 389.941406 C 230.757812 390.050781 230.644531 390.273438 230.425781 390.492188 C 230.316406 390.601562 230.316406 390.820312 230.207031 391.039062 C 229.988281 391.699219 229.660156 392.246094 229.441406 392.90625 C 229.332031 393.125 229.332031 393.34375 229.21875 393.453125 C 229.109375 393.78125 229.21875 394.21875 229.441406 394.441406 L 229.660156 394.769531 C 230.207031 395.316406 230.644531 395.867188 231.085938 396.414062 C 231.851562 397.402344 232.402344 398.5 232.621094 399.59375 C 232.839844 400.800781 232.839844 402.007812 232.621094 402.996094 C 232.402344 403.652344 232.183594 404.3125 231.851562 404.96875 C 231.742188 405.300781 231.632812 405.519531 231.523438 405.847656 C 231.195312 406.617188 230.867188 407.492188 230.535156 408.371094 C 229.988281 410.34375 229.550781 411.988281 229.21875 413.527344 C 228.890625 415.609375 228.671875 417.253906 228.5625 418.902344 C 228.5625 419.558594 228.5625 420.4375 228.5625 421.203125 C 228.671875 421.753906 228.671875 422.300781 228.890625 422.960938 C 229 423.289062 229 423.507812 229.109375 423.835938 C 229.109375 423.835938 229.109375 423.945312 229.109375 423.945312 C 229.21875 424.054688 229.21875 424.273438 229.332031 424.496094 C 229.769531 425.261719 230.207031 426.03125 230.757812 426.796875 L 230.867188 426.90625 C 231.085938 427.238281 231.195312 427.457031 231.414062 427.785156 C 231.742188 428.332031 232.074219 428.773438 232.402344 429.320312 L 232.621094 429.648438 C 233.609375 430.636719 234.703125 431.625 235.582031 432.390625 L 236.351562 433.050781 C 236.351562 433.050781 236.460938 433.160156 236.460938 433.160156 L 236.898438 433.378906 C 237.445312 433.707031 237.996094 433.597656 238.324219 433.050781 C 238.652344 432.503906 239.09375 432.0625 239.53125 431.515625 C 239.53125 431.515625 239.640625 431.40625 239.640625 431.40625 C 239.75 431.296875 239.859375 431.1875 239.96875 431.074219 C 243.699219 426.90625 247.757812 424.496094 252.035156 423.835938 C 254.886719 423.398438 257.519531 423.507812 259.714844 424.273438 C 261.359375 424.824219 263.332031 425.589844 265.199219 426.6875 C 267.171875 427.894531 268.707031 429.429688 269.914062 431.1875 C 271.121094 432.832031 272 434.695312 272.546875 436.890625 C 273.753906 440.949219 273.425781 445.445312 272.984375 449.722656 C 272.546875 454 271.890625 457.949219 270.902344 461.570312 C 270.464844 463.324219 269.695312 464.96875 268.488281 466.613281 C 268.050781 467.273438 267.613281 467.820312 267.171875 468.371094 L 266.734375 468.917969 C 266.1875 469.6875 265.636719 470.34375 265.089844 471.332031 C 264.320312 472.539062 263.664062 473.636719 263.222656 474.621094 C 263.003906 475.0625 262.894531 475.390625 262.785156 475.828125 L 262.675781 476.269531 C 262.566406 476.597656 262.675781 476.925781 262.785156 477.144531 C 263.222656 477.804688 263.554688 478.351562 263.992188 479.011719 C 264.320312 479.558594 264.757812 480.105469 265.089844 480.65625 C 265.964844 481.972656 266.625 483.507812 267.171875 485.480469 C 267.722656 487.238281 267.832031 488.664062 267.832031 490.089844 C 267.832031 490.636719 267.722656 491.296875 267.613281 491.84375 C 267.390625 492.613281 267.0625 493.378906 266.734375 494.039062 C 266.1875 495.132812 265.308594 496.230469 264.429688 497 C 262.785156 498.316406 260.371094 499.082031 257.628906 499.191406 C 255.105469 499.300781 252.585938 497.984375 250.71875 495.792969 C 249.183594 494.039062 248.085938 491.953125 247.539062 489.871094 C 247.320312 488.882812 247.101562 487.785156 246.878906 486.6875 C 246.769531 486.140625 246.660156 485.480469 246.550781 484.933594 C 246.332031 484.054688 246.113281 483.398438 245.894531 482.628906 C 245.785156 482.300781 245.671875 482.082031 245.453125 481.753906 C 245.015625 480.984375 244.578125 480.214844 244.027344 479.449219 C 243.808594 479.121094 243.589844 478.898438 243.371094 478.570312 C 243.152344 478.351562 242.929688 478.242188 242.710938 477.914062 C 242.492188 477.804688 242.273438 477.585938 242.054688 477.472656 C 241.945312 477.363281 241.835938 477.363281 241.617188 477.253906 L 241.394531 477.144531 C 241.394531 477.144531 241.285156 477.144531 241.285156 477.144531 L 241.175781 477.144531 C 241.175781 477.144531 240.957031 477.144531 240.957031 477.144531 C 240.957031 477.144531 240.847656 477.144531 240.847656 477.144531 C 240.738281 477.144531 240.628906 477.144531 240.410156 477.144531 C 240.300781 477.144531 240.078125 477.144531 239.96875 477.253906 C 239.96875 477.253906 239.859375 477.253906 239.859375 477.253906 L 239.75 477.253906 C 239.53125 477.363281 239.3125 477.472656 239.203125 477.695312 L 238.984375 477.914062 C 238.875 478.132812 238.761719 478.351562 238.542969 478.679688 C 238.433594 479.011719 238.214844 479.339844 238.105469 479.777344 C 237.886719 480.4375 237.777344 481.09375 237.558594 481.972656 C 237.445312 482.410156 237.445312 482.957031 237.445312 483.507812 C 237.445312 484.054688 237.445312 484.605469 237.445312 485.261719 C 237.558594 485.699219 237.558594 486.140625 237.667969 486.6875 C 237.996094 487.894531 238.324219 488.992188 238.652344 490.089844 C 238.875 490.636719 238.984375 491.183594 239.203125 491.734375 C 239.640625 493.050781 239.859375 494.257812 240.078125 495.683594 C 240.1875 496.339844 240.300781 497 240.519531 497.765625 C 240.847656 498.972656 241.175781 500.179688 241.617188 501.496094 C 242.054688 502.921875 242.382812 504.457031 242.710938 506.324219 C 243.042969 508.40625 243.152344 510.601562 243.371094 512.792969 C 243.480469 513.5625 243.480469 514.328125 243.589844 515.097656 C 243.808594 516.960938 244.027344 518.828125 244.359375 520.691406 C 244.6875 522.777344 245.015625 525.078125 245.125 527.164062 C 245.34375 529.578125 245.234375 531.988281 245.015625 534.074219 C 244.796875 536.488281 244.6875 538.570312 244.027344 540.546875 C 242.820312 544.824219 240.628906 548.664062 238.652344 551.953125 C 238.105469 552.832031 237.558594 553.707031 237.117188 554.695312 C 236.570312 555.574219 236.132812 556.449219 235.582031 557.328125 C 234.59375 558.972656 233.5 560.617188 232.402344 562.261719 L 232.183594 562.484375 C 231.851562 563.03125 231.414062 563.578125 231.085938 564.019531 C 230.644531 564.566406 230.207031 565.226562 229.769531 565.882812 C 229.332031 566.652344 228.890625 567.417969 228.453125 568.1875 C 228.34375 568.296875 228.34375 568.515625 228.234375 568.734375 C 228.125 569.175781 228.015625 569.722656 227.902344 570.269531 C 227.792969 570.710938 227.792969 571.039062 227.683594 571.585938 L 227.683594 571.917969 C 227.683594 571.917969 227.683594 572.027344 227.683594 572.136719 C 227.683594 572.136719 227.683594 572.246094 227.683594 572.355469 C 227.792969 572.574219 227.792969 572.902344 227.902344 573.121094 L 228.234375 574 L 229.21875 573.671875 L 228.234375 574.21875 L 228.890625 575.976562 C 229.109375 576.632812 229.332031 577.179688 229.660156 577.839844 C 229.878906 578.386719 230.097656 579.046875 230.316406 579.59375 C 231.085938 581.679688 231.304688 583.871094 231.304688 585.628906 C 231.304688 586.613281 231.304688 587.492188 231.304688 588.371094 C 231.195312 589.464844 231.195312 590.5625 230.867188 591.441406 C 230.644531 592.207031 230.316406 592.976562 230.097656 593.746094 C 229.878906 594.402344 229.660156 595.0625 229.441406 595.71875 C 229.332031 596.15625 229.21875 596.488281 229.109375 596.925781 C 229 597.472656 228.890625 598.132812 228.890625 598.898438 C 228.890625 599.339844 228.890625 599.667969 228.890625 600.214844 C 228.890625 600.546875 229 600.765625 229 601.203125 C 229 601.421875 229.109375 601.53125 229.21875 601.75 C 229.550781 602.519531 229.878906 603.289062 230.316406 604.054688 C 231.304688 605.917969 232.292969 607.894531 233.167969 609.867188 C 234.265625 612.609375 234.925781 615.351562 235.144531 618.203125 C 235.253906 619.519531 235.144531 620.835938 235.144531 622.371094 C 235.035156 623.910156 234.925781 625.335938 234.484375 626.429688 C 234.046875 628.078125 233.386719 629.503906 232.621094 630.710938 C 231.851562 632.027344 230.757812 633.230469 229.769531 634.4375 C 228.890625 635.535156 228.125 636.632812 227.246094 637.949219 C 226.476562 639.15625 225.929688 640.253906 225.273438 641.457031 C 224.832031 642.335938 224.503906 643.214844 224.175781 644.089844 C 223.957031 644.859375 223.734375 645.628906 223.625 646.503906 C 223.625 646.941406 223.515625 647.382812 223.515625 647.820312 C 223.515625 648.257812 223.515625 648.699219 223.515625 649.136719 C 223.515625 649.136719 223.515625 649.246094 223.515625 649.246094 C 223.515625 649.355469 223.515625 649.464844 223.515625 649.464844 C 223.515625 649.464844 223.515625 649.574219 223.515625 649.574219 C 223.625 649.90625 223.734375 650.234375 223.847656 650.5625 C 224.066406 651.113281 224.285156 651.550781 224.503906 652.097656 C 225.050781 652.976562 225.492188 653.855469 226.039062 654.730469 L 226.699219 655.828125 C 227.246094 656.707031 227.792969 657.582031 228.453125 658.570312 C 228.78125 659.007812 229.21875 659.558594 229.550781 659.996094 C 229.878906 660.324219 230.316406 660.765625 230.644531 661.09375 L 231.523438 661.859375 C 232.402344 662.628906 233.386719 663.398438 234.265625 664.164062 C 235.253906 665.152344 236.351562 666.140625 237.445312 667.457031 C 238.433594 668.550781 239.203125 669.539062 240.078125 670.746094 C 240.519531 671.292969 240.847656 671.953125 241.285156 672.5 C 241.726562 673.050781 242.054688 673.707031 242.492188 674.253906 C 244.46875 676.996094 246.441406 679.519531 248.527344 681.933594 C 250.9375 684.566406 253.351562 687.308594 256.203125 689.722656 C 257.300781 690.597656 258.398438 691.476562 259.824219 692.355469 C 260.480469 692.792969 261.25 693.230469 261.90625 693.671875 C 264.539062 695.207031 267.171875 696.742188 268.929688 699.15625 C 270.132812 700.691406 270.683594 702.445312 270.902344 704.421875 C 271.011719 705.296875 270.902344 706.066406 270.902344 707.050781 C 270.902344 707.820312 270.902344 708.699219 270.902344 709.574219 C 271.011719 710.125 271.011719 710.671875 271.121094 711.222656 L 271.121094 711.332031 C 271.339844 712.097656 271.449219 712.757812 271.78125 713.523438 C 272.109375 714.402344 272.546875 715.277344 272.984375 716.15625 L 273.207031 716.484375 C 273.425781 716.925781 273.535156 717.363281 273.644531 717.800781 C 273.644531 718.132812 273.972656 718.460938 274.300781 718.679688 C 274.523438 718.789062 274.742188 718.898438 274.960938 719.007812 C 275.070312 719.117188 275.179688 719.117188 275.398438 719.226562 C 277.042969 719.558594 279.019531 720.652344 280.445312 721.859375 C 283.078125 724.492188 282.859375 728.769531 282.75 732.5 L 282.75 732.9375 C 282.75 732.9375 282.75 733.050781 282.75 733.050781 C 282.75 733.597656 282.75 734.363281 282.75 735.023438 C 282.640625 737.328125 282.527344 740.289062 284.832031 741.824219 C 284.941406 741.933594 285.050781 741.933594 285.160156 741.933594 C 289.878906 743.359375 292.621094 740.398438 295.144531 737.765625 C 296.128906 736.667969 297.226562 735.679688 298.324219 734.804688 C 303.589844 730.746094 311.597656 730.855469 316.53125 735.132812 C 317.738281 736.121094 318.726562 737.21875 319.824219 738.3125 C 321.46875 739.960938 323.113281 741.714844 325.199219 743.140625 C 325.199219 743.140625 325.308594 743.25 325.308594 743.25 C 329.585938 745.113281 334.300781 745.992188 338.910156 745.992188 C 343.296875 745.992188 347.574219 745.222656 351.414062 743.578125 C 351.523438 743.578125 351.523438 743.46875 351.632812 743.46875 C 358.980469 738.421875 364.464844 731.074219 369.621094 724.054688 C 370.9375 722.300781 372.253906 720.542969 373.570312 718.789062 L 374.117188 718.132812 C 377.519531 713.742188 381.359375 708.808594 382.015625 703.105469 C 382.015625 702.996094 382.015625 702.773438 382.015625 702.664062 C 381.578125 701.128906 381.140625 699.59375 380.699219 698.058594 C 377.957031 688.734375 375.433594 679.960938 381.46875 671.511719 C 386.402344 665.152344 384.101562 658.570312 381.796875 652.207031 C 379.382812 645.296875 377.082031 638.828125 383.113281 632.246094 C 385.636719 629.832031 387.832031 628.734375 389.914062 628.84375 C 393.535156 629.171875 396.605469 633.671875 399.894531 638.386719 C 403.734375 643.980469 408.121094 650.34375 414.59375 651.113281 C 415.03125 651.113281 415.472656 650.890625 415.691406 650.453125 C 419.96875 641.128906 425.234375 637.621094 433.132812 639.15625 C 434.226562 639.265625 435.324219 639.484375 436.53125 639.59375 C 447.609375 640.910156 460.113281 642.445312 467.464844 651.113281 C 474.046875 662.410156 480.957031 664.054688 492.363281 666.578125 L 493.023438 666.6875 C 494.335938 667.125 495.433594 668.003906 496.640625 668.882812 C 498.285156 670.199219 500.042969 671.511719 502.453125 671.734375 C 507.71875 672.609375 511.667969 671.84375 514.191406 669.320312 C 517.042969 666.46875 517.921875 661.75 516.824219 655.058594 C 516.824219 655.058594 516.824219 654.949219 516.824219 654.949219 C 513.09375 642.445312 517.8125 637.289062 523.953125 630.601562 C 526.804688 627.417969 530.097656 623.800781 532.617188 619.082031 C 532.730469 618.863281 532.730469 618.535156 532.730469 618.316406 C 532.179688 616.011719 531.191406 614.035156 530.207031 612.0625 C 528.890625 609.429688 527.683594 607.015625 527.464844 604.273438 C 527.574219 603.175781 527.574219 601.972656 527.683594 600.875 C 527.902344 596.597656 528.230469 592.207031 529.875 588.371094 C 530.972656 586.175781 532.398438 583.324219 532.839844 580.035156 C 533.386719 576.304688 532.839844 572.683594 532.289062 569.285156 C 531.523438 564.238281 530.753906 559.523438 533.167969 554.695312 C 533.167969 554.695312 533.167969 554.585938 533.167969 554.585938 C 536.347656 546.25 539.417969 537.363281 541.394531 528.152344 C 542.382812 523.652344 542.160156 519.046875 542.050781 514.660156 C 541.941406 511.257812 541.722656 507.75 542.160156 504.347656 C 542.710938 500.070312 544.027344 495.902344 545.34375 491.84375 C 547.097656 486.359375 548.960938 480.65625 548.742188 474.621094 C 548.960938 467.273438 548.414062 459.925781 547.867188 452.683594 C 547.316406 446.105469 546.769531 439.304688 546.878906 432.722656 C 548.085938 428.332031 548.960938 426.140625 549.730469 424.496094 C 551.265625 421.09375 551.375 420.4375 549.402344 409.90625 C 549.730469 404.96875 551.375 400.253906 553.019531 395.757812 C 556.53125 385.773438 559.933594 376.339844 549.402344 366.359375 C 540.847656 357.144531 537.226562 344.75 533.714844 332.683594 C 532.839844 329.613281 531.960938 326.542969 530.863281 323.472656 C 528.011719 315.792969 532.179688 304.277344 537.554688 296.488281 C 540.734375 292.210938 545.34375 289.796875 550.277344 287.273438 C 552.472656 286.175781 554.667969 284.972656 556.859375 283.65625 C 562.453125 279.707031 564.648438 273.453125 566.730469 267.53125 C 567.71875 264.679688 568.707031 261.828125 570.023438 259.304688 C 571.011719 257.550781 572.105469 255.792969 573.203125 254.148438 C 575.726562 250.417969 578.25 246.578125 578.90625 241.972656 C 580.664062 235.0625 579.128906 230.238281 574.628906 227.496094 Z M 574.628906 227.496094 " fill-opacity="1" fill-rule="nonzero"/></g><path fill="#939598" d="M 232.621094 689.832031 C 229.332031 685.664062 227.464844 685.773438 224.285156 686.542969 C 223.296875 686.761719 222.089844 686.980469 220.664062 687.089844 C 220.445312 687.089844 220.226562 687.199219 220.007812 687.417969 C 219.675781 687.636719 219.347656 687.855469 219.019531 688.078125 C 218.582031 688.1875 218.359375 688.625 218.359375 689.0625 C 218.140625 695.753906 221.542969 701.679688 224.832031 707.382812 C 225.382812 708.257812 225.929688 709.246094 226.367188 710.125 C 227.136719 711.332031 227.683594 712.757812 228.34375 714.074219 C 229.550781 716.816406 230.757812 719.667969 233.386719 721.75 C 233.609375 721.859375 233.828125 721.96875 234.046875 721.96875 C 234.15625 721.96875 234.265625 721.96875 234.375 721.96875 C 234.703125 721.859375 235.035156 721.640625 235.144531 721.3125 C 237.886719 714.292969 238.875 706.394531 237.886719 699.375 C 237.667969 694.109375 236.898438 692.792969 232.621094 689.832031 Z M 232.621094 689.832031 " fill-opacity="1" fill-rule="nonzero"/><path fill="#939598" d="M 191.488281 78.207031 L 191.925781 78.425781 C 194.121094 79.523438 196.535156 80.730469 199.054688 81.058594 C 199.054688 81.058594 199.164062 81.058594 199.164062 81.058594 C 199.714844 81.058594 200.152344 80.621094 200.261719 80.074219 C 200.480469 78.316406 200.589844 76.671875 200.589844 74.917969 C 200.589844 71.957031 200.703125 69.105469 202.019531 66.472656 C 202.128906 66.25 202.128906 65.921875 202.128906 65.703125 C 201.796875 64.277344 201.90625 63.179688 202.566406 62.304688 C 204.429688 59.890625 209.914062 59.78125 212.65625 59.78125 C 212.875 59.78125 213.097656 59.78125 213.207031 59.78125 C 213.644531 59.78125 213.972656 59.5625 214.191406 59.230469 C 217.265625 53.96875 217.59375 50.019531 215.070312 47.933594 C 214.960938 47.824219 214.851562 47.824219 214.742188 47.714844 C 211.339844 46.726562 208.378906 47.714844 206.078125 50.675781 C 204.320312 52.652344 203.332031 54.953125 202.238281 57.257812 C 201.359375 59.230469 200.480469 60.988281 199.386719 62.632812 C 195.875 66.691406 192.144531 71.515625 190.9375 77.109375 C 190.828125 77.441406 191.050781 77.988281 191.488281 78.207031 Z M 191.488281 78.207031 " fill-opacity="1" fill-rule="nonzero"/><path fill="#939598" d="M 474.375 7.019531 C 474.921875 9.214844 475.800781 12.394531 479.089844 12.394531 C 479.089844 12.394531 479.199219 12.394531 479.199219 12.394531 C 479.53125 12.394531 479.75 12.285156 479.96875 12.066406 C 482.273438 9.542969 483.480469 5.8125 483.480469 1.644531 C 483.480469 1.425781 483.367188 1.207031 483.257812 0.988281 C 483.039062 0.65625 482.601562 0.328125 482.164062 0.109375 C 481.832031 0 481.503906 0 481.285156 0 C 478.980469 0.546875 477.117188 2.304688 475.472656 3.730469 C 475.140625 4.058594 474.703125 4.386719 474.375 4.714844 C 474.046875 5.046875 473.9375 5.484375 474.046875 5.8125 C 474.15625 6.253906 474.265625 6.582031 474.375 7.019531 Z M 474.375 7.019531 " fill-opacity="1" fill-rule="nonzero"/><path fill="#939598" d="M 205.636719 656.925781 C 196.644531 657.035156 190.0625 660.433594 187.539062 666.46875 C 187.429688 666.796875 187.429688 667.234375 187.648438 667.566406 C 187.976562 668.003906 188.308594 668.441406 188.636719 668.882812 C 191.160156 672.0625 193.792969 675.460938 194.230469 679.519531 C 194.230469 680.070312 194.667969 680.398438 195.21875 680.507812 C 195.65625 680.507812 195.984375 680.617188 196.421875 680.617188 C 196.535156 680.617188 196.644531 680.617188 196.753906 680.617188 C 196.972656 680.617188 197.082031 680.507812 197.300781 680.507812 C 203.003906 677 204.539062 670.417969 205.746094 664.492188 C 205.964844 663.726562 206.078125 662.957031 206.296875 662.191406 C 206.296875 662.191406 206.296875 662.082031 206.296875 662.082031 C 206.625 660.546875 206.734375 659.230469 206.625 658.023438 C 206.625 657.253906 206.1875 656.925781 205.636719 656.925781 Z M 205.636719 656.925781 " fill-opacity="1" fill-rule="nonzero"/></svg>